<svg xmlns="http://www.w3.org/2000/svg" viewBox="0 0 107.4 124.9"><defs><style>.a{fill:#86ffcb;}.b{fill:#040046;}.c{fill:#fff;stroke:#040046;stroke-miterlimit:10;stroke-width:2px;}</style></defs><title>Arrow_down</title><path class="a" d="M55.3,123.9a4.4,4.4,0,0,1-3.9-2.2l-27.1-46A4.4,4.4,0,0,1,28.1,69l53.4-.6a4.5,4.5,0,0,1,3.9,2.3,4.3,4.3,0,0,1,0,4.4L59.1,121.6A4.4,4.4,0,0,1,55.3,123.9Z" transform="translate(0 0)"/><path class="b" d="M81.5,69.4a3.4,3.4,0,0,1,3,1.8,3.4,3.4,0,0,1,0,3.4L71.4,97.9,58.3,121.1a3.5,3.5,0,0,1-3,1.8,3.3,3.3,0,0,1-3-1.7l-13.6-23-13.6-23a3.6,3.6,0,0,1,0-3.5,3.3,3.3,0,0,1,3-1.7l26.7-.3,26.7-.3h0m0-2h0l-26.7.3L28,68a5.4,5.4,0,0,0-4.6,8.2L37,99.2l13.6,23a5.4,5.4,0,0,0,9.4-.1L73.1,98.9,86.3,75.6a5.5,5.5,0,0,0-4.8-8.2Z" transform="translate(0 0)"/><path class="c" d="M1.8,10.6A5.4,5.4,0,0,1,6.4,2.4l47.2-.7L100.8,1a5.5,5.5,0,0,1,4.9,8.1l-23,41.3-23,41.2a5.5,5.5,0,0,1-9.5.1L26,51.2Z" transform="translate(0 0)"/><path class="b" d="M58.8,66.9a5.5,5.5,0,0,1-9.5.1L35.7,44,22.1,21a5.5,5.5,0,0,1,4.7-8.2l26.7-.3,26.7-.3A5.5,5.5,0,0,1,85,20.4L71.9,43.7Z" transform="translate(0 0)"/></svg>