<svg xmlns="http://www.w3.org/2000/svg" viewBox="0 0 50 42"><defs><style>.a{fill:#fff671;}</style></defs><title>flits_1</title><polygon class="a" points="21.3 27.7 11.5 35.4 17 25.3 10.3 25 15.9 20.3 5.5 15.4 17.5 16.2 14 7.9 21 13.1 23.3 7.6 26.2 12.7 34 4.5 30 15.1 43.8 12.3 32 19 39.7 21.6 32.5 24.1 39.8 32.9 29.6 27.5 30.4 34.8 25.3 30 18.9 37.8 21.3 27.7"/><path d="M31.2,9l-1.5,3.9-1.4,3.6,3.7-.8,5.6-1.1-4.1,2.3-4.1,2.4,4.5,1.5,2.6.8-2.9,1-2.9,1.1,2,2.3,2.9,3.5-3.8-2-3.5-1.8.4,3.9.3,2.5L26.8,30l-1.7-1.6-1.4,1.8L21,33.6l.6-2.7L23,25l-4.7,3.7-3.4,2.7,2.3-4.1,1.6-2.9-3.4-.2H13l2.3-1.9,2.5-2.1-3-1.4-3.9-1.9,4.8.4,3.5.2-1.4-3.2L16.5,11l2.8,2.1,2.1,1.7,1.1-2.5.9-2.3,1.2,2L26,14.4l1.9-2L31.2,9m5.7-9L26.4,10.9,23.1,5.2l-2.6,6.3-9-6.8,4.4,10.4L0,13.9l13.9,6.7L7.6,26l7.7.3L8.1,39.5l11.5-9.1L16.9,42l8.5-10.5,6.3,6-.9-8.1L44,36.3,34.3,24.6,43,21.5l-8.4-2.7L50,10,31.6,13.7,36.9,0Z"/></svg>