<svg xmlns="http://www.w3.org/2000/svg" viewBox="0 0 17 15"><defs><style>.a{fill:#fff671;}</style></defs><title>flits_3</title><polygon class="a" points="7 10.2 3.5 13.1 5.6 9.2 3.2 9.1 5.2 7.3 1.2 5.3 5.8 5.7 4.5 2.4 7.1 4.5 7.9 2.5 8.9 4.3 11.9 1.1 10.4 5.2 15.6 4.1 11.2 6.8 13.9 7.7 11.2 8.7 14 12.1 10.2 10 10.5 12.7 8.6 10.9 6.2 14 7 10.2"/><path d="M11.2,2.2l-.9,2.5-.3.9.9-.2,3.3-.7L11.5,6.3l-.9.5,1,.4,1.5.5-1.6.6-.7.3.5.5L13,11.3l-2.3-1.2-.8-.5v2.5L9,10.9l-.4-.4-.4.5L6.7,12.9,7.1,11l.3-1.5-1.1,1-2,1.6L5.6,9.6,6,8.9H3.8L5.1,7.7l.5-.5L5,6.9,2.5,5.7l2.9.2h.8l-.3-.7-.8-2L6.7,4.5l.5.4.2-.6L7.9,3l.6,1.1.4.7.4-.6,1.9-2M12.6,0,9,3.9l-1.1-2L7,4.1,3.9,1.7,5.4,5.4,0,5,4.7,7.4,2.6,9.3H5.2L2.7,14.1l3.9-3.2L5.7,15l2.9-3.7,2.2,2.1-.3-2.9L15,13,11.6,8.8l3-1.1-2.8-1L17,3.6,10.8,4.9,12.6,0Z"/></svg>