<svg xmlns="http://www.w3.org/2000/svg" viewBox="0 0 30 30"><defs><style>.a{fill:#fff671;}</style></defs><title>flits_2</title><polygon class="a" points="12.4 20.6 6.1 26.6 9.8 18.4 5.4 18.2 9 14.6 1.7 10.4 10.1 11.1 7.7 4.5 12.5 8.8 13.9 4.7 15.8 8.5 21.1 1.8 18.4 10.3 28.1 8.1 20 13.5 24.8 15.5 20 17.5 25.1 24.7 18.1 20.3 18.6 25.8 15.3 21.9 11 28.3 12.4 20.6"/><path d="M20.2,3.6,18.3,9.5l-.4,1.3,1.3-.3,7-1.6-5.8,3.9-1.2.8,1.3.5,3.4,1.4-3.6,1.4-.8.4.5.8,3.8,5.3-4.8-3-1.3-.8v1.5l.4,3.5L15.9,22l-.7-.7-.5.8-3,4.5.8-4.8.5-2.2-1.7,1.5L7.2,25l2.7-5.9.5-1H9.3l-3-.2,2.6-2.6.7-.7L8.8,14,3.3,10.9l6.2.5h1.1l-.4-1.1L8.6,5.8l3.2,2.9.9.7.3-1,1-2.8,1.2,2.5.5,1.1.7-.9,3.8-4.7M22.1,0,15.8,7.8l-2-4.1L12.3,8.1,6.9,3.2l2.6,7.5L0,9.8l8.4,4.9L4.6,18.5l4.6.3L5,28.2l6.8-6.5L10.3,30l5-7.5,3.8,4.4L18.6,21l7.9,5-5.9-8.4,5.2-2.2-5-2L30,7.2,19,9.8,22.1,0Z"/></svg>