<svg xmlns="http://www.w3.org/2000/svg" viewBox="0 0 150 50.5"><defs><style>.a{fill:#040046;}.b{fill:#86ffcb;}.c{fill:#fff;}</style></defs><title>play_button</title><rect class="a" x="3.4" y="3.4" width="143.3" height="43.71" rx="5.2"/><path class="b" d="M141.4,6.8a1.9,1.9,0,0,1,1.9,1.8V41.9a2,2,0,0,1-1.9,1.9H8.6a1.9,1.9,0,0,1-1.8-1.9V8.6A1.8,1.8,0,0,1,8.6,6.8H141.4m0-6.8H8.6A8.6,8.6,0,0,0,0,8.6V41.9a8.5,8.5,0,0,0,8.6,8.6H141.4a8.5,8.5,0,0,0,8.6-8.6V8.6A8.6,8.6,0,0,0,141.4,0Z"/><polygon class="c" points="21 32.2 21 14.1 25.9 14.1 25.9 28.2 30.9 28.2 30.9 32.2 21 32.2"/><path class="a" d="M25.5,14.5V28.6h5v3.3H21.3V14.5h4.2m.8-.8H20.6V32.6H31.3V27.9h-5V13.7Z"/><path class="c" d="M37.9,32.4a4.6,4.6,0,0,1-4-2,9.6,9.6,0,0,1-1.5-5.7,9.1,9.1,0,0,1,.8-3.7A5.6,5.6,0,0,1,35,18.5a4.4,4.4,0,0,1,2.5-.8,3.7,3.7,0,0,1,1.7.5,4.8,4.8,0,0,1,1.6,1.3,9.9,9.9,0,0,1,1.1,2.3,15.6,15.6,0,0,1,.5,2.2,10.3,10.3,0,0,0,.1,1.7H37l.2.5a4.2,4.2,0,0,0,1,2,2.4,2.4,0,0,0,1.8.7,3.8,3.8,0,0,0,2.5-.9v1.4C41.3,31.5,39.8,32.4,37.9,32.4Zm.5-11.6a1.3,1.3,0,0,0-1.2.8,3.9,3.9,0,0,0-.4,1.7v.6H40v-.4a3.6,3.6,0,0,0-.4-1.9A1.3,1.3,0,0,0,38.4,20.8Z"/><path class="a" d="M37.5,18.1a4.2,4.2,0,0,1,1.5.4,5.8,5.8,0,0,1,1.5,1.3,5.1,5.1,0,0,1,1,2.1A7.6,7.6,0,0,1,42,24c0,.4.1.9.1,1.4H36.6l.2.9A4.3,4.3,0,0,0,38,28.5a2.8,2.8,0,0,0,2,.8,3.7,3.7,0,0,0,2.1-.6v.6c-1.1,1.9-2.4,2.8-4.2,2.8a4.4,4.4,0,0,1-3.7-1.9,9.7,9.7,0,0,1-1.4-5.5,10.5,10.5,0,0,1,.7-3.6,6.2,6.2,0,0,1,1.7-2.3,3.7,3.7,0,0,1,2.3-.7m-1,6.2h3.9v-.8a4.3,4.3,0,0,0-.5-2.1,1.6,1.6,0,0,0-1.5-1,1.8,1.8,0,0,0-1.5,1,3.8,3.8,0,0,0-.4,1.9v1m1-6.9a4.3,4.3,0,0,0-2.7.8,6.2,6.2,0,0,0-2,2.6,10,10,0,0,0-.7,3.9,10.1,10.1,0,0,0,1.5,5.9,5,5,0,0,0,4.3,2.2c2.1,0,3.7-1.1,4.9-3.3V26.9A3.1,3.1,0,0,1,40,28.5a2,2,0,0,1-1.5-.6,3.2,3.2,0,0,1-1-1.8h5.3V24c-.1-.6-.3-1.4-.5-2.3a6.7,6.7,0,0,0-1.2-2.4,7.6,7.6,0,0,0-1.7-1.5,4.3,4.3,0,0,0-1.9-.4Zm-.3,6.1v-.2a2.4,2.4,0,0,1,.4-1.5c.2-.4.5-.7.8-.7s.6.3.9.7a4,4,0,0,1,.3,1.7Z"/><path class="c" d="M49.5,32.3a3.2,3.2,0,0,1-1.6-.4,4.7,4.7,0,0,1-1.4-1.4,5.4,5.4,0,0,1-.8-1.9,29.2,29.2,0,0,1-.2-3.8V21.5H43.9l6.1-7v3.6h2.2v3.4H50v2.4a10.2,10.2,0,0,0,.2,2.2,1.1,1.1,0,0,0,1.2,1,1.1,1.1,0,0,0,.8-.3v4.6A4,4,0,0,1,49.5,32.3Z"/><path class="a" d="M49.6,15.5v3h2.2v2.6H49.6v2.8a11.3,11.3,0,0,0,.2,2.3,1.6,1.6,0,0,0,1.6,1.3h.4v3.8a3.6,3.6,0,0,1-2.3.8,3.7,3.7,0,0,1-1.4-.4,4,4,0,0,1-1.3-1.3,5.1,5.1,0,0,1-.7-1.7,29.2,29.2,0,0,1-.2-3.8V21.1H44.7l4.9-5.6m.8-2.1-7.3,8.5h2.1v2.9a18.5,18.5,0,0,0,.2,3.9,6,6,0,0,0,.8,2.1,6.4,6.4,0,0,0,1.5,1.4,4.1,4.1,0,0,0,1.8.5,4.3,4.3,0,0,0,3.1-1.2V25.6c-.3.7-.7,1.1-1.2,1.1a.8.8,0,0,1-.9-.6,12.8,12.8,0,0,1-.1-2.2v-2h2.2V17.7H50.4V13.4Z"/><path class="c" d="M55.7,24.3a5.3,5.3,0,0,0,.8-2.6v-.3h-.2a3.5,3.5,0,0,1-2.1-3.6,4.9,4.9,0,0,1,.8-2.8,1.9,1.9,0,0,1,1.7-1.1,1.8,1.8,0,0,1,1.7,1.1,5.6,5.6,0,0,1,.7,3.2,7.9,7.9,0,0,1-1.2,4.2A5.9,5.9,0,0,1,55.7,24.3Z"/><path class="a" d="M56.7,14.1c.4,0,.9.1,1.4,1a6.1,6.1,0,0,1,.6,3,8.3,8.3,0,0,1-1.1,4l-1,1.1q.1-.6.3-1.5v-.5l-.5-.2q-1.8-.7-1.8-3.3a4.4,4.4,0,0,1,.7-2.6c.6-.9,1.1-1,1.4-1m0-.7a2.2,2.2,0,0,0-2,1.3,4.8,4.8,0,0,0-.8,3c0,2,.7,3.3,2.2,4a4.3,4.3,0,0,1-1.3,3.1V25a5.7,5.7,0,0,0,3.3-2.5,8,8,0,0,0,1.3-4.4,6.6,6.6,0,0,0-.8-3.4,2.2,2.2,0,0,0-2-1.3Z"/><path class="c" d="M65.4,32.4a8.1,8.1,0,0,1-2.5-.4,10.9,10.9,0,0,1-2.5-1l.9-3.1a2.8,2.8,0,0,0,.9,1,2.7,2.7,0,0,0,1.7.7,1.3,1.3,0,0,0,1.4-1.4,1.7,1.7,0,0,0-.3-1,2.7,2.7,0,0,0-.8-.7L63,26a3.5,3.5,0,0,1-1.7-1.5,5.3,5.3,0,0,1-.6-2.6,3.8,3.8,0,0,1,1.2-3,4.9,4.9,0,0,1,3.6-1.1,7.6,7.6,0,0,1,3.9,1l-1,2.9a3.1,3.1,0,0,0-2.2-1.2,1.2,1.2,0,0,0-.9.3,1.8,1.8,0,0,0-.4.9,1.7,1.7,0,0,0,.5,1.2,4.3,4.3,0,0,0,1.4.8,4.2,4.2,0,0,1,2.4,1.7,7,7,0,0,1,.5,2.5,4.5,4.5,0,0,1-1.2,3.3A3.9,3.9,0,0,1,65.4,32.4Z"/><path class="a" d="M65.5,18.1a6.7,6.7,0,0,1,3.4.9l-.6,2a3.2,3.2,0,0,0-2.1-.9,1.7,1.7,0,0,0-1.2.5,1.5,1.5,0,0,0-.4,1.1,2.5,2.5,0,0,0,.5,1.5l1.6.8a3.3,3.3,0,0,1,2.1,1.6,4.6,4.6,0,0,1,.5,2.3,4.5,4.5,0,0,1-1,3.1,4,4,0,0,1-2.9,1.1,7.9,7.9,0,0,1-2.4-.5,10.2,10.2,0,0,1-2.1-.8l.5-2.1.6.5a3.1,3.1,0,0,0,1.9.8,1.7,1.7,0,0,0,1.8-1.8,1.6,1.6,0,0,0-.4-1.2,1.6,1.6,0,0,0-1-.8l-1.1-.5a3.6,3.6,0,0,1-1.6-1.4,6,6,0,0,1-.5-2.4,3.4,3.4,0,0,1,1.1-2.8,5,5,0,0,1,3.3-1m0-.7a5.4,5.4,0,0,0-3.8,1.2,4.2,4.2,0,0,0-1.4,3.3,4.5,4.5,0,0,0,.7,2.7,3.2,3.2,0,0,0,1.9,1.7l1.1.6a1.8,1.8,0,0,1,.7.5,1.9,1.9,0,0,1,.2.8c0,.7-.3,1-1,1a2.4,2.4,0,0,1-1.5-.6A5.3,5.3,0,0,1,61.1,27L60,31.2a11.8,11.8,0,0,0,2.8,1.2,8.7,8.7,0,0,0,2.6.4,4.4,4.4,0,0,0,3.4-1.3,4.8,4.8,0,0,0,1.3-3.6,5.8,5.8,0,0,0-.6-2.6,4,4,0,0,0-2.6-2,2.2,2.2,0,0,1-1.2-.7,1,1,0,0,1-.4-.9.9.9,0,0,1,.3-.6.6.6,0,0,1,.6-.3c.8,0,1.5.6,2.4,1.7l1.2-3.8a7.3,7.3,0,0,0-4.3-1.3Z"/><path class="c" d="M81.1,36.4V18.1h4.4v1.7l.7-.7A2.8,2.8,0,0,1,88.4,18a3.4,3.4,0,0,1,2.9,1.9,9.5,9.5,0,0,1,1.2,5,9.6,9.6,0,0,1-1.3,5.4,3.6,3.6,0,0,1-3.2,2,4.5,4.5,0,0,1-1.9-.5l-.6-.4v5Zm5.7-13.2a1.5,1.5,0,0,0-.9.4c-.3.4-.4.5-.4.7v2.8h.2a1.8,1.8,0,0,0,1.1.5,1.2,1.2,0,0,0,1.1-.7,3.5,3.5,0,0,0,.3-1.6,3.3,3.3,0,0,0-.3-1.5A1.2,1.2,0,0,0,86.8,23.2Z"/><path class="a" d="M88.4,18.4a2.8,2.8,0,0,1,2.5,1.7,8.8,8.8,0,0,1,1.2,4.8,9.8,9.8,0,0,1-1.2,5.2A3.4,3.4,0,0,1,88,32a2.9,2.9,0,0,1-1.7-.6l-1.1-.7V36H81.4V18.5h3.8v2.2l1.3-1.3a2.4,2.4,0,0,1,1.9-1m-1.6,9.7a1.7,1.7,0,0,0,1.4-.9,3.2,3.2,0,0,0,.4-1.8,2.7,2.7,0,0,0-.4-1.6,1.6,1.6,0,0,0-1.4-1,1.6,1.6,0,0,0-1.2.6,1.1,1.1,0,0,0-.4.9v3l.3.2a1.8,1.8,0,0,0,1.3.6m1.6-10.5a3.5,3.5,0,0,0-2.5,1.2V17.7H80.7V36.8h5.2V32.1a4.2,4.2,0,0,0,2.1.6,4,4,0,0,0,3.5-2.2,10.3,10.3,0,0,0,1.4-5.6,10.3,10.3,0,0,0-1.3-5.2,3.9,3.9,0,0,0-3.2-2.1Zm-1.6,9.7a1.6,1.6,0,0,1-.9-.3V24.3c0-.1.1-.2.3-.4a.7.7,0,0,1,.6-.3,1,1,0,0,1,.8.5,2.7,2.7,0,0,1,.2,1.3,2.8,2.8,0,0,1-.2,1.4,1,1,0,0,1-.8.5Z"/><rect class="c" x="94.9" y="14.1" width="4.5" height="18.14"/><path class="a" d="M99,14.5V31.9H95.3V14.5H99m.7-.8H94.5V32.6h5.2V13.7Z"/><path class="c" d="M104.3,32.3a2,2,0,0,1-1.7-.9,4,4,0,0,1-.7-2.6,4.4,4.4,0,0,1,.9-2.9,2.8,2.8,0,0,1,2.3-1l1.5.3.5.2v-.6a2.2,2.2,0,0,0-2.3-2.5,5.6,5.6,0,0,0-2.7.8V19.6a7.1,7.1,0,0,1,4.7-1.6,5.4,5.4,0,0,1,2.4.5,2.9,2.9,0,0,1,1.5,1.4,5.8,5.8,0,0,1,.7,2.1,14.3,14.3,0,0,1,.2,3.3v6.9h-4.5V30.5l-.6.7a2.8,2.8,0,0,1-1.1.8Zm1.6-5.7a1.2,1.2,0,0,0-1,.5,1.6,1.6,0,0,0-.4,1.2,2.1,2.1,0,0,0,.3,1.2,1.4,1.4,0,0,0,1.1.6,1.4,1.4,0,0,0,1.2-.6h0V27h-.2A1.9,1.9,0,0,0,105.9,26.6Z"/><path class="a" d="M106.8,18.4a5.3,5.3,0,0,1,2.3.4,3.3,3.3,0,0,1,1.3,1.3,6.8,6.8,0,0,1,.7,2,25.5,25.5,0,0,1,.1,3.2v6.6h-3.7V26.8l-.4-.2a2.7,2.7,0,0,0-1.2-.3,1.6,1.6,0,0,0-1.3.6,2,2,0,0,0-.5,1.4,2.8,2.8,0,0,0,.4,1.5,2.1,2.1,0,0,0,1.4.7,1.7,1.7,0,0,0,1-.3l-.7.8-.9.7-1,.3a1.7,1.7,0,0,1-1.4-.8,4.3,4.3,0,0,1-.6-2.4,4,4,0,0,1,.8-2.7,2.3,2.3,0,0,1,2-.8l1.4.2,1,.4V24.8c-.1-1.8-1-2.9-2.7-2.9a4.9,4.9,0,0,0-2.3.6V19.7a6.9,6.9,0,0,1,4.3-1.3m0-.8a7.1,7.1,0,0,0-5,1.8v4.5a4.4,4.4,0,0,1,3-1.2c1.3,0,1.9.7,1.9,2.1l-1.6-.3a3.1,3.1,0,0,0-2.6,1.2,4.3,4.3,0,0,0-1,3.1,4.7,4.7,0,0,0,.8,2.8,2.4,2.4,0,0,0,2,1.1l1.3-.3a4.7,4.7,0,0,0,1.2-.9v1.1H112V25.3a26.8,26.8,0,0,0-.2-3.4,6,6,0,0,0-.8-2.1,3.1,3.1,0,0,0-1.6-1.6,5.3,5.3,0,0,0-2.6-.6Zm-.9,12.1a.9.9,0,0,1-.8-.4,1.7,1.7,0,0,1-.3-1,1.2,1.2,0,0,1,.3-.9.9.9,0,0,1,.8-.4l.9.2v2.1a1,1,0,0,1-.9.4Z"/><polygon class="c" points="113.9 36.4 115.9 29.5 112.5 18.1 116.9 18.1 118.4 23 119.8 18.1 124.1 18.1 118.8 36.4 113.9 36.4"/><path class="a" d="M123.6,18.5,118.5,36h-4.1l1.9-6.3v-.4L113,18.5h3.6l1,3.4.8,2.4.7-2.4,1-3.4h3.5m1-.8h-5.1l-1.2,4-1.2-4H112l3.5,11.8-2.1,7.3h5.7l5.5-19.1Z"/><path class="c" d="M128.1,32.5a1.3,1.3,0,0,1-1.1-.7,3.5,3.5,0,0,1-.5-1.8,2.7,2.7,0,0,1,1.2-2.5l.3-.2-.2-.4c-.1,0-.3-.5-1.1-3a15.5,15.5,0,0,1-1-5.4,7.2,7.2,0,0,1,.8-3.5c.5-.8,1-1.2,1.7-1.2a1.9,1.9,0,0,1,1.6,1.2,7.1,7.1,0,0,1,.8,3.4,16.1,16.1,0,0,1-.9,5.1,16.4,16.4,0,0,1-1.3,3.5v.3l.3.2a1.8,1.8,0,0,1,.8.9,4.2,4.2,0,0,1,.4,1.6,2.8,2.8,0,0,1-.6,1.8A1.2,1.2,0,0,1,128.1,32.5Z"/><path class="a" d="M128.2,14.1c.2,0,.7,0,1.3,1.1a6.1,6.1,0,0,1,.7,3.2,18,18,0,0,1-.8,5,27.4,27.4,0,0,1-1.3,3.4h0a25.4,25.4,0,0,1-1.1-2.9,17.8,17.8,0,0,1-.9-5.3,6.2,6.2,0,0,1,.7-3.3c.6-1.1,1.2-1.1,1.4-1.1m-.1,13.6.3.2a1.2,1.2,0,0,1,.7.7,3.2,3.2,0,0,1,.3,1.4,2.8,2.8,0,0,1-.5,1.6.8.8,0,0,1-.8.5c-.2,0-.4,0-.8-.5a2.7,2.7,0,0,1-.4-1.6,2.4,2.4,0,0,1,.9-2.2h.3m.1-14.3a2.6,2.6,0,0,0-2.1,1.4,8.1,8.1,0,0,0-.8,3.7,16,16,0,0,0,1,5.5,29.9,29.9,0,0,0,1.2,3.2,2.9,2.9,0,0,0-1.4,2.8,3.2,3.2,0,0,0,.6,2,1.7,1.7,0,0,0,1.4.9,1.6,1.6,0,0,0,1.4-.9,3.2,3.2,0,0,0,.6-2,4.3,4.3,0,0,0-.3-1.7,2.7,2.7,0,0,0-1-1.1,36.7,36.7,0,0,0,1.3-3.6,16.1,16.1,0,0,0,.8-5.2,8,8,0,0,0-.7-3.6c-.6-.9-1.2-1.4-2-1.4Z"/><path class="a" d="M141.4,1.5a7.1,7.1,0,0,1,7.1,7.1V41.8a7.1,7.1,0,0,1-7.1,7H8.6a7.1,7.1,0,0,1-7.1-7V8.6A7.1,7.1,0,0,1,8.6,1.5H141.4m0-1.5H8.6A8.5,8.5,0,0,0,0,8.6V41.8a8.5,8.5,0,0,0,8.6,8.5H141.4a8.5,8.5,0,0,0,8.6-8.5V8.6A8.5,8.5,0,0,0,141.4,0Z"/></svg>