<?xml version="1.0" standalone="no"?>
<!DOCTYPE svg PUBLIC "-//W3C//DTD SVG 20010904//EN"
 "http://www.w3.org/TR/2001/REC-SVG-20010904/DTD/svg10.dtd">
<svg version="1.0" xmlns="http://www.w3.org/2000/svg"
 width="513.000000pt" height="513.000000pt" viewBox="0 0 513.000000 513.000000"
 preserveAspectRatio="xMidYMid meet">
<metadata>
Created by potrace 1.11, written by Peter Selinger 2001-2013
</metadata>
<g transform="translate(0.000000,513.000000) scale(0.100000,-0.100000)"
fill="#000000" stroke="none">
<path d="M1028 3676 c-64 -17 -123 -58 -161 -112 -40 -57 -56 -103 -64 -182
-5 -51 -8 -60 -19 -51 -18 15 -18 7 1 -38 12 -27 15 -80 15 -233 l0 -198 -37
4 c-73 8 -450 34 -484 33 -28 0 18 -26 244 -140 l277 -139 0 -50 0 -50 -105
-92 -105 -93 37 -7 c21 -4 68 -7 106 -7 l67 -1 0 -136 0 -137 -97 -185 -96
-186 77 64 c123 104 112 102 119 15 9 -126 69 -223 170 -277 l42 -23 1660 -3
c1864 -3 1712 -9 1804 74 29 26 62 69 78 102 l28 57 0 880 0 880 -33 67 c-35
72 -77 113 -152 150 l-45 23 -1640 2 c-1301 1 -1650 -1 -1687 -11z m3321 -52
c64 -19 131 -77 163 -142 l23 -47 0 -865 0 -865 -23 -50 c-30 -66 -66 -102
-127 -131 l-50 -24 -1640 0 -1640 0 -50 24 c-56 25 -109 81 -133 135 -8 20
-17 77 -20 126 l-4 90 76 63 76 63 0 -125 c0 -93 4 -136 16 -166 12 -29 15
-55 10 -93 l-7 -52 23 28 23 28 59 -30 58 -31 1522 0 1521 0 51 24 c28 13 63
39 77 58 60 78 57 33 57 935 0 780 -1 830 -19 868 -22 50 -67 96 -118 121 -37
18 -88 19 -1548 22 -1127 2 -1521 0 -1553 -9 -48 -13 -124 -76 -150 -123 -12
-23 -18 -65 -22 -160 l-5 -128 -72 56 -73 57 0 58 c0 135 70 243 180 281 53
19 112 19 1661 20 1429 0 1611 -2 1658 -16z m-2476 -106 c-163 -181 -416 -454
-422 -456 -4 -1 -36 50 -72 114 -35 64 -69 124 -75 132 -9 12 -23 -15 -69
-131 l-58 -146 -37 27 c-20 15 -49 37 -64 49 l-28 22 4 133 c3 145 17 192 69
230 59 44 88 47 438 48 l334 0 -20 -22z m2382 -4 c22 -11 54 -40 70 -63 l30
-43 3 -811 c2 -560 0 -824 -8 -849 -14 -50 -56 -97 -105 -119 -38 -18 -106
-19 -1540 -19 l-1501 0 -44 23 c-27 13 -45 28 -44 38 1 12 179 252 281 379 2
2 68 -60 146 -138 78 -78 145 -142 148 -142 3 0 -4 83 -14 185 -11 102 -17
188 -15 191 3 2 137 -68 297 -157 161 -88 294 -159 296 -157 2 2 -96 126 -216
277 -121 151 -216 277 -212 281 4 4 92 38 195 76 103 37 184 71 180 75 -4 3
-83 32 -177 64 -93 32 -174 61 -178 65 -4 4 147 99 337 211 190 112 344 205
342 206 -3 3 -716 -139 -812 -162 -21 -5 10 87 192 573 l16 42 1146 -2 c1141
-3 1147 -3 1187 -24z m-2485 -226 c-98 -262 -159 -433 -156 -435 1 -2 135 24
296 57 161 33 297 59 302 58 5 -2 -106 -71 -247 -153 -140 -83 -255 -152 -255
-155 0 -3 64 -27 143 -53 230 -78 226 -64 41 -131 -87 -32 -161 -60 -163 -62
-2 -2 66 -90 151 -196 85 -106 157 -198 161 -205 4 -6 -95 45 -219 113 -125
69 -228 123 -229 122 -2 -3 21 -242 30 -303 l6 -40 -113 113 c-62 61 -116 112
-120 112 -4 0 -66 -76 -138 -170 -72 -93 -135 -172 -139 -174 -4 -3 14 93 41
212 26 119 47 223 45 229 -1 7 -92 -62 -202 -153 -110 -91 -206 -171 -214
-177 -14 -11 202 418 220 438 5 5 9 12 9 16 0 3 -68 10 -152 14 l-152 7 45 42
c24 22 80 73 124 112 l80 71 -230 116 c-265 134 -268 126 42 101 107 -8 209
-14 228 -12 l34 3 -75 184 c-41 101 -73 185 -72 187 2 2 72 -51 156 -116 145
-114 153 -119 161 -97 5 12 28 71 51 131 l42 109 65 -117 c36 -64 68 -116 73
-116 4 0 83 83 176 185 93 102 170 185 171 185 2 0 -6 -24 -17 -52z m-850
-327 c22 -57 39 -105 37 -108 -3 -2 -28 -1 -56 3 l-51 7 0 126 c1 145 0 145
70 -28z m-50 -375 c0 -3 -4 -8 -10 -11 -5 -3 -10 -1 -10 4 0 6 5 11 10 11 6 0
10 -2 10 -4z m28 -351 c-22 -41 -41 -75 -44 -75 -2 0 -4 34 -4 75 l0 75 44 0
43 0 -39 -75z m193 -305 l-36 -165 -3 135 -3 135 36 33 c20 19 38 32 40 30 2
-1 -13 -77 -34 -168z"/>
<path d="M3920 2758 c-28 -15 -58 -43 -78 -74 -32 -46 -34 -53 -30 -120 4 -90
36 -141 111 -179 67 -33 119 -32 188 3 141 71 153 264 21 356 -60 42 -148 48
-212 14z m157 -19 c66 -25 115 -96 115 -169 0 -75 -40 -134 -114 -165 -49 -20
-84 -19 -134 4 -103 47 -138 187 -67 271 50 61 132 85 200 59z"/>
</g>
</svg>
