<svg xmlns="http://www.w3.org/2000/svg" viewBox="0 0 300 291.7"><defs><style>.a{fill:#86ffcb;}.b,.h{fill:#fff;}.c{fill:#b3b3b3;}.d{fill:#666;}.e{fill:#fff671;}.f,.g,.i,.l{fill:none;}.f,.g,.h,.j,.l{stroke:#000;}.f,.g,.h,.i,.j{stroke-miterlimit:10;}.g{stroke-width:1.5px;}.h{stroke-width:0.92px;}.i{stroke:#fff;}.j{fill:#ead9be;}.k{fill:#160078;}.l{stroke-linecap:round;stroke-linejoin:round;stroke-width:0;}.m{fill:#ccc;}</style></defs><title>selfie tekening kleur def</title><path d="M298.8,46.5c-.3,13.1,1.6,26.1,1.4,39.2a2.4,2.4,0,0,0-1.9-2.5c0-11.9-1.5-23.8-1.4-35.7s3.7-23.7-1.5-34.5c-2.2-4.5-5.9-8.3-10.7-9.8s-11.2-.3-16.6.5a111.2,111.2,0,0,1-19.1,1c-4.8-.2-9.4-1.3-14-1.7h0c-.8-.2-2.3-.8-2.7-.6s-.1.3-.1.5h-4.9A3.9,3.9,0,0,1,229.1.7c2.4-1.3,6.2.5,8.7.9a110.2,110.2,0,0,0,11.4,1.2,103,103,0,0,0,19.2-1c5.8-.9,11.8-2.2,17.5-.2,7.7,2.7,12,9.7,13.3,17.4C300.8,28.2,299.1,37.3,298.8,46.5Z" transform="translate(-0.3 -0.2)"/><path d="M300.2,85.7h0a2.5,2.5,0,0,1-2,2.6,21.7,21.7,0,0,0,.1-2.6h0a20.9,20.9,0,0,0,0-2.5A2.4,2.4,0,0,1,300.2,85.7Z" transform="translate(-0.3 -0.2)"/><path d="M299,119.8c.2,5.2.7,10.4.5,15.6a49,49,0,0,1-.8,7.6c-.4,2.6-1.1,4.8-.7,7.4a151.9,151.9,0,0,1,.6,28.6c-.7,9.5-2.1,18.9-2,28.5s1.1,19.5,1.4,29.2-.3,19.5-.9,29.2c-.3,5.9.8,13.5-3.3,18.4s-13.6,4.4-20.2,4.2c-19.5-.7-39.2.5-58.7,2a4.2,4.2,0,0,0,1.1-2.7v-.2c7-.6,14.1-1,21.1-1.3l6.2.4c9.1.4,18.2-.2,27.3-.2,6.2,0,15.7,1.9,20.9-2.6,2.7-2.4,3.2-6.1,3.5-9.5s.3-8.8.5-13.2A276.3,276.3,0,0,0,296,231c-.4-9.7-1.8-19.3-1.2-29.1s1.7-20.1,1.9-30.2a1.3,1.3,0,0,0-.1-.6,2.2,2.2,0,0,0,.1-.8v-2.6c1.6-1.5.9-4.5.6-6.7s-.7-5.6-1.1-8.4a2.1,2.1,0,0,0-1-1.5,1.5,1.5,0,0,0-.1-.7h0a73.2,73.2,0,0,0,2.5-19.8c-.2-7.2-1-14.3-.7-21.5s1-13.7,1.3-20.6a2.5,2.5,0,0,0,2-2.6C299.9,97.2,298.4,108.4,299,119.8Z" transform="translate(-0.3 -0.2)"/><path d="M298.3,83.2a20.9,20.9,0,0,1,0,2.5,2.3,2.3,0,0,0-.9-2v-.6Z" transform="translate(-0.3 -0.2)"/><path d="M298.3,85.7h0a2.4,2.4,0,0,1-1,2.1c0-.7.1-1.4.1-2.1V83.7A2.3,2.3,0,0,1,298.3,85.7Z" transform="translate(-0.3 -0.2)"/><path d="M298.3,85.8a21.7,21.7,0,0,1-.1,2.6l-.9.2v-.7A2.4,2.4,0,0,0,298.3,85.8Z" transform="translate(-0.3 -0.2)"/><path d="M298.2,88.4c-.3,6.9-1.1,13.7-1.3,20.6s.5,14.3.7,21.5a73.2,73.2,0,0,1-2.5,19.8h0l-.3-2.5a52.1,52.1,0,0,0,1.9-13.7c.1-8-1-16-.8-24s1.1-14.4,1.4-21.6Z" transform="translate(-0.3 -0.2)"/><path d="M298.3,83.2h-.9c0-7.5-.7-14.8-1.1-22.2a149.1,149.1,0,0,1,.3-25c1.1-11,1.2-27.3-11.8-31.7-3.7-1.2-7.7-.9-11.5-.3s-9.5,1.5-14.4,1.8a101.7,101.7,0,0,1-22-1.4A2.4,2.4,0,0,0,235.2,3H235c4.6.4,9.2,1.5,14,1.7a111.2,111.2,0,0,0,19.1-1c5.4-.8,11.2-2.2,16.6-.5s8.5,5.3,10.7,9.8c5.2,10.8,1.6,23.1,1.5,34.5S298.3,71.3,298.3,83.2Z" transform="translate(-0.3 -0.2)"/><path d="M297.4,83.1v.6l-.9-.5Z" transform="translate(-0.3 -0.2)"/><path d="M297.4,83.7v2.1c0,.7-.1,1.4-.1,2.1a2,2,0,0,1-.9.5l-1-.5c0-.7.1-1.4.1-2.1V83.7l1-.5Z" transform="translate(-0.3 -0.2)"/><path d="M297.3,161c.3,2.2,1,5.2-.6,6.7a9.1,9.1,0,0,0,.1-1.7,2.5,2.5,0,0,0-.5-1.6c-.1-.4-.1-.8-.2-1.2s-.1-3.9-.2-5.8a16.6,16.6,0,0,1,.3-3.2h-.6c-.1-1.1-.3-2.1-.4-3.1a2.1,2.1,0,0,1,1,1.5C296.6,155.4,297,158.2,297.3,161Z" transform="translate(-0.3 -0.2)"/><path d="M297.3,87.9v.7l-.9-.2A2,2,0,0,0,297.3,87.9Z" transform="translate(-0.3 -0.2)"/><path d="M297.3,88.6c-.3,7.2-1.2,14.4-1.4,21.6s.9,16,.8,24a52.1,52.1,0,0,1-1.9,13.7l.3,2.5v.5a3.4,3.4,0,0,0-2.8,0,.4.4,0,0,0-.1-.3.6.6,0,0,0,.1-.4,1.1,1.1,0,0,1,.2-.6V149a66.5,66.5,0,0,0,2.3-16c-.1-7.8-1-15.6-.8-23.4s1.1-14,1.4-21l1-.2Z" transform="translate(-0.3 -0.2)"/><path d="M296.8,166a9.1,9.1,0,0,1-.1,1.7c0,.1,0,.1-.1.2l-.3-3.5A2.5,2.5,0,0,1,296.8,166Z" transform="translate(-0.3 -0.2)"/><path d="M296.7,167.7v2.6a19.3,19.3,0,0,0-.1-2.4C296.7,167.8,296.7,167.8,296.7,167.7Z" transform="translate(-0.3 -0.2)"/><path d="M296.7,170.3h-.3l-.3-.3a10.9,10.9,0,0,0,.1-1.8l.4-.3A19.3,19.3,0,0,1,296.7,170.3Z" transform="translate(-0.3 -0.2)"/><path d="M296.4,170.3h.3a2.2,2.2,0,0,1-.1.8A2.4,2.4,0,0,0,296.4,170.3Z" transform="translate(-0.3 -0.2)"/><path d="M284.8,4.2c13,4.4,12.9,20.7,11.8,31.7a149.1,149.1,0,0,0-.3,25c.4,7.4,1.1,14.7,1.1,22.2h-1.9c0-15-2.5-29.8-1-44.7.7-7.4,1.8-15.1-.8-22.2-1.4-3.5-3.6-6.9-6.9-8.9s-8.2-2.2-12.4-1.7c-7.1,1-14.1,2.2-21.4,2.1a94.9,94.9,0,0,1-15.9-1.4,2.7,2.7,0,0,0-.2-2,101.7,101.7,0,0,0,22,1.4c4.9-.3,9.6-1.1,14.4-1.8S281.1,3,284.8,4.2Z" transform="translate(-0.3 -0.2)"/><path d="M296.6,171.1a1.3,1.3,0,0,1,.1.6c-.2,10.1-1.4,20.1-1.9,30.2s.8,19.4,1.2,29.1a276.3,276.3,0,0,1-.5,30.2c-.2,4.4-.3,8.8-.5,13.2s-.8,7.1-3.5,9.5c-5.2,4.5-14.7,2.6-20.9,2.6-9.1,0-18.2.6-27.3.2l-6.2-.4,9.6-.4c8.4-.2,16.8-.4,25.2-.3,5.4,0,12.6,1.3,17.6-1.4s4.3-10.7,4.6-15.9c.5-8.1,1-16.2,1.1-24.3.2-15.8-2.5-31.6-1-47.5.8-8.2,1.6-16.2,1.9-24.4A1.9,1.9,0,0,0,296.6,171.1Z" transform="translate(-0.3 -0.2)"/><path d="M296.4,170.3a2.4,2.4,0,0,1,.2.8,1.9,1.9,0,0,1-.5,1v-1.8Z" transform="translate(-0.3 -0.2)"/><path d="M296.4,170.3h-.3V170Z" transform="translate(-0.3 -0.2)"/><path d="M296.3,164.4l.3,3.5-.4.3v-4C296.2,164.3,296.2,164.3,296.3,164.4Z" transform="translate(-0.3 -0.2)"/><path d="M296.3,164.4c-.1-.1-.1-.1-.1-.2s-.1-.6-.1-1S296.2,164,296.3,164.4Z" transform="translate(-0.3 -0.2)"/><path d="M295.6,154.2h.6a16.6,16.6,0,0,0-.3,3.2Z" transform="translate(-0.3 -0.2)"/><path d="M296.2,164.2v4l-.8.4a22.7,22.7,0,0,0-.6-3,.7.7,0,0,0,.2-.8l-.2-1.4A2.9,2.9,0,0,1,296.2,164.2Z" transform="translate(-0.3 -0.2)"/><path d="M296.2,168.2a10.9,10.9,0,0,1-.1,1.8,2,2,0,0,0-.8-.8c.1.1.1-.2.1-.6Z" transform="translate(-0.3 -0.2)"/><path d="M296.1,170v.3h-2.2v-1.5h1.5c0,.4,0,.7-.1.6A2,2,0,0,1,296.1,170Z" transform="translate(-0.3 -0.2)"/><path d="M296.1,163.2c0,.4.1.7.1,1a2.9,2.9,0,0,0-1.4-.8l-.9-6.4a23.6,23.6,0,0,1,.4-2.8h1.3l.3,3.2A37.5,37.5,0,0,0,296.1,163.2Z" transform="translate(-0.3 -0.2)"/><path d="M296.1,170.3v1.8a2.9,2.9,0,0,1-2.3,1,6.1,6.1,0,0,1,.1-1.4.9.9,0,0,1-.6-.4v-1h2.8Z" transform="translate(-0.3 -0.2)"/><path d="M295.9,157.4c.1,1.9.2,3.9.2,5.8A37.5,37.5,0,0,1,295.9,157.4Z" transform="translate(-0.3 -0.2)"/><path d="M295.5,83.1h1l-1,.5Z" transform="translate(-0.3 -0.2)"/><path d="M296.4,88.4l-1,.2v-.7Z" transform="translate(-0.3 -0.2)"/><path d="M295.6,154.2h-1.3c.2-1.1.4-2.2.7-3.3l.2.2C295.3,152.1,295.5,153.1,295.6,154.2Z" transform="translate(-0.3 -0.2)"/><path d="M295.5,83.1v.6a3,3,0,0,0-1,2.1V83.2Z" transform="translate(-0.3 -0.2)"/><path d="M295.5,83.7v2.1c0,.7-.1,1.4-.1,2.1a2.7,2.7,0,0,1-.9-2h0A3,3,0,0,1,295.5,83.7Z" transform="translate(-0.3 -0.2)"/><path d="M295.4,87.9v.7l-1-.2a20.9,20.9,0,0,0,.1-2.5A2.7,2.7,0,0,0,295.4,87.9Z" transform="translate(-0.3 -0.2)"/><path d="M295.1,150.4a1.5,1.5,0,0,1,.1.7l-.2-.2Z" transform="translate(-0.3 -0.2)"/><path d="M294.2,196.5c-1.5,15.9,1.2,31.7,1,47.5-.1,8.1-.6,16.2-1.1,24.3-.3,5.2.8,13-4.6,15.9s-12.2,1.4-17.6,1.4c-8.4-.1-16.8.1-25.2.3l-9.6.4c-6.2-.6-12.5-1.5-18.7-1.7h-.6l18.2-1.3a82.8,82.8,0,0,0,13.2.6c7.6-.2,15.1-.3,22.7-.2,3.6,0,7.3.2,10.9,0s7.2-.8,8.5-4.3.8-8.5,1-12.3l.6-10.6c.4-7.7.5-15.4.4-23s-1.1-14.5-1.5-21.7.5-14.7,1.1-22.1c.4-5.6.8-11.1.9-16.6a2.9,2.9,0,0,0,2.3-1C295.8,180.3,295,188.3,294.2,196.5Z" transform="translate(-0.3 -0.2)"/><path d="M295.4,168.6h-1.5V166a1.1,1.1,0,0,0,.9-.4A22.7,22.7,0,0,1,295.4,168.6Z" transform="translate(-0.3 -0.2)"/><path d="M295,164.8a.7.7,0,0,1-.2.8v-.3c-.1-.6-.3-1.3-.4-2h.5Z" transform="translate(-0.3 -0.2)"/><path d="M295.4,88.6c-.3,7-1.1,14-1.4,21s.7,15.6.8,23.4a66.5,66.5,0,0,1-2.3,16v.6a1.1,1.1,0,0,0-.2.6.6.6,0,0,1-.1.4,24.5,24.5,0,0,1-.2-2.7c.1-2.1,1-4.3,1.3-6.4,1.5-9.1-.1-18.5-.2-27.7s1-16.9,1.4-25.4Z" transform="translate(-0.3 -0.2)"/><path d="M293.9,157l.9,6.4h-.5c-.2-1.1-.3-2.2-.4-3.3A15,15,0,0,1,293.9,157Z" transform="translate(-0.3 -0.2)"/><path d="M294.7,165.3v.3a1.1,1.1,0,0,1-.9.4v2.8h-.1c0-1.2,0-2.4-.1-3.5a11.8,11.8,0,0,0-.4-2,1.7,1.7,0,0,1,1,0C294.4,164,294.6,164.7,294.7,165.3Z" transform="translate(-0.3 -0.2)"/><path d="M295.5,83.1h-1c0-11.4-1.5-22.8-1.4-34.2,0-8.1,1.5-16.2,1-24.4-.3-5.9-1.8-12.8-7.2-16.3s-9.3-2.2-14-1.5a131.2,131.2,0,0,1-15.2,1.8,103.9,103.9,0,0,1-15.8-.7l-5.1-.7a1.6,1.6,0,0,0,.3-.9A94.9,94.9,0,0,0,253,7.7c7.3.1,14.3-1.1,21.4-2.1,4.2-.5,8.7-.7,12.4,1.7s5.5,5.4,6.9,8.9c2.6,7.1,1.5,14.8.8,22.2C293,53.3,295.5,68.1,295.5,83.1Z" transform="translate(-0.3 -0.2)"/><path d="M294.5,83.2v2.6h0a20.9,20.9,0,0,1-.1,2.5,2.5,2.5,0,0,1-1.8-2.5h0A2.9,2.9,0,0,1,294.5,83.2Z" transform="translate(-0.3 -0.2)"/><path d="M295,150.9c-.3,1.1-.5,2.2-.7,3.3h-.8v-.8c0,.3-.1.5-.1.8h-.6c-.1-1-.3-2.1-.5-3.2A3.4,3.4,0,0,1,295,150.9Z" transform="translate(-0.3 -0.2)"/><path d="M293.5,154.2h.8a23.6,23.6,0,0,0-.4,2.8Z" transform="translate(-0.3 -0.2)"/><path d="M294.1,24.6c.5,8.2-1,16.3-1,24.4-.1,11.4,1.4,22.8,1.4,34.2a2.9,2.9,0,0,0-1.9,2.6c.1-7.7-.4-15.4-.9-23.1a161.9,161.9,0,0,1-.2-23.1c.6-7.1,2.1-14.6-.2-21.6-1.1-3.2-3-6.4-5.9-8.2s-6.5-1.8-9.9-1.4c-7.5.8-14.9,2.2-22.5,2.2s-12.3-1.4-18.5-1.9h-.1a2.5,2.5,0,0,0,2.4-1.4l5.1.7a103.9,103.9,0,0,0,15.8.7,131.2,131.2,0,0,0,15.2-1.8c4.7-.7,9.7-1.2,14,1.5S293.8,18.7,294.1,24.6Z" transform="translate(-0.3 -0.2)"/><path d="M294.3,163.3a1.7,1.7,0,0,0-1,0V163l-.3-6.2V156l.3-1.8h.2l.4,2.8a15,15,0,0,0,0,3C294,161.1,294.1,162.2,294.3,163.3Z" transform="translate(-0.3 -0.2)"/><path d="M293.9,168.8v1.5a7.6,7.6,0,0,0-.1-1.5Z" transform="translate(-0.3 -0.2)"/><path d="M293.9,170.3h-.6v-1.6h.5A7.6,7.6,0,0,1,293.9,170.3Z" transform="translate(-0.3 -0.2)"/><path d="M293.9,171.7a6.1,6.1,0,0,0-.1,1.4h-.6a9.7,9.7,0,0,1,.1-1.7A.9.9,0,0,0,293.9,171.7Z" transform="translate(-0.3 -0.2)"/><path d="M293.7,165.3c.1,1.1.1,2.3.1,3.5h-.5v-5.4h0A11.8,11.8,0,0,1,293.7,165.3Z" transform="translate(-0.3 -0.2)"/><path d="M293.4,153.4v.8h-.2C293.3,153.9,293.4,153.7,293.4,153.4Z" transform="translate(-0.3 -0.2)"/><path d="M293,113.8c.1,9.2,1.7,18.6.2,27.7-.3,2.1-1.2,4.3-1.3,6.4a24.5,24.5,0,0,0,.2,2.7v.3a2.2,2.2,0,0,0-1.4,1.7c-1.1,6.1.2,11.7.3,17.7a3.3,3.3,0,0,0,.4,1.5h-.3a.3.3,0,0,1-.1-.2v1.2c-1.3-1.8-1.5-4.7-1.9-6.6a35,35,0,0,1-.8-10.7c.8-7,3.4-13.7,3.6-20.8s-.9-16-.8-24,1.3-16.6,1.5-24.9a2.5,2.5,0,0,0,1.8,2.5C294,96.9,292.9,105.3,293,113.8Z" transform="translate(-0.3 -0.2)"/><path d="M293.2,173h.6c-.1,5.5-.5,11-.9,16.6-.6,7.4-1.5,14.7-1.1,22.1s1.3,14.4,1.5,21.7,0,15.3-.4,23l-.6,10.6c-.2,3.8.2,8.7-1,12.3s-5.2,4.2-8.5,4.3-7.3,0-10.9,0c-7.6-.1-15.1,0-22.7.2a82.8,82.8,0,0,1-13.2-.6,389.2,389.2,0,0,1,40.4-.4c3.7.2,8.3.8,11.7-1.2s2.9-4.6,3-7.3c.4-7.7.8-15.4,1.1-23.1.6-18.6-2.5-37.3-.8-55.9C292.1,187.9,292.9,180.5,293.2,173Z" transform="translate(-0.3 -0.2)"/><path d="M293.3,163v.3h0Z" transform="translate(-0.3 -0.2)"/><path d="M293.3,163.3v5.4l-.8-.4-.9-4a1.2,1.2,0,0,1,.5-.5v1.7l.8-2v-.2Z" transform="translate(-0.3 -0.2)"/><path d="M292.7,154.2h.6L293,156v.8Z" transform="translate(-0.3 -0.2)"/><path d="M293.3,168.7v1.6H293l-.5-2Z" transform="translate(-0.3 -0.2)"/><path d="M293.3,163v.3H293c.1,0,.1,0,.1-.1l-1,.4a67.1,67.1,0,0,0-1-7.1,18.1,18.1,0,0,1,.3-2.3h1.3l.3,2.6a7.6,7.6,0,0,0-.1,1.5A24.9,24.9,0,0,0,293.3,163Z" transform="translate(-0.3 -0.2)"/><path d="M293.3,170.3v1a.4.4,0,0,1-.1-.3,6.4,6.4,0,0,1-.2-.7Z" transform="translate(-0.3 -0.2)"/><path d="M293.3,171.3a9.7,9.7,0,0,0-.1,1.7,2.8,2.8,0,0,1-1.8-1.2,3.3,3.3,0,0,1-.4-1.5h2a6.4,6.4,0,0,0,.2.7A.4.4,0,0,0,293.3,171.3Z" transform="translate(-0.3 -0.2)"/><path d="M293.1,163.2c0,.1,0,.1-.1.1l-.9.5v-.2Z" transform="translate(-0.3 -0.2)"/><path d="M293,163.3v.2l-.8,2v-1.7Z" transform="translate(-0.3 -0.2)"/><path d="M293,170.3h-2V166c0-.2,0-.3.1-.4a3.3,3.3,0,0,0,1.4,2.7Z" transform="translate(-0.3 -0.2)"/><path d="M293,156.8l.3,6.2a24.9,24.9,0,0,1-.4-4.7A7.6,7.6,0,0,1,293,156.8Z" transform="translate(-0.3 -0.2)"/><path d="M293.2,173c-.3,7.5-1.1,14.9-1.8,22.4-1.7,18.6,1.4,37.3.8,55.9-.3,7.7-.7,15.4-1.1,23.1-.1,2.7-.5,5.8-3,7.3s-8,1.4-11.7,1.2a389.2,389.2,0,0,0-40.4.4c-8.7-.8-17.4-2.2-26.5-1.4-8.8-1.5-24.4,0-39.2,1.2-9.6-.1-19.3.1-28.9.3l-56.2.9-56.1,1c-4.4,0-9,.5-13.4-.3s-7.5-3.5-7.6-8.6c-.2-9.1.3-18.2.4-27.2.3-21.4.6-42.7.8-64.1a3,3,0,0,0-.9-2.1v-4.2H8.2a22.9,22.9,0,0,0,.2-2.5l1.7,2.2c.1-.6.1-1.2.2-1.9a3.2,3.2,0,0,1,1,2.2c-.2,19.6-.5,39.1-.7,58.6-.2,9.6-.4,19.2-.5,28.8-.1,3.9-.8,8.7.2,12.5s5,4.6,8.5,4.8c8.2.4,16.7-.2,24.9-.4l25.9-.4,51.7-.9c15.4-.3,30.9-.2,46.4-1.4,12.5-.9,25.3-2.7,37.9-1.8,6.8.5,13.5.2,20.3.8s16.3,1.8,24.6,1.7,17.5-.4,26.2-.2c3.1.1,7.1.6,10-.7s2.6-6.2,2.6-9c.3-16.5,1.7-32.7.4-49.2a160.5,160.5,0,0,1-.3-25c.6-8,1.3-16,1.6-24.1a3.5,3.5,0,0,0,1.4,1.3l-1.3-2.3h.3A2.8,2.8,0,0,0,293.2,173Z" transform="translate(-0.3 -0.2)"/><path d="M292.7,154.1h-1.3c.2-1.1.4-2.2.7-3.3h.1C292.4,152,292.6,153.1,292.7,154.1Z" transform="translate(-0.3 -0.2)"/><path class="a" d="M291.7,62.7c.5,7.7,1,15.4.9,23.1h0c-.2,8.3-1.3,16.6-1.5,24.9s1.1,16,.8,24-2.8,13.8-3.6,20.8a35,35,0,0,0,.8,10.7c.4,1.9.6,4.8,1.9,6.6-.3,8.1-1,16.1-1.6,24.1a160.5,160.5,0,0,0,.3,25c1.3,16.5-.1,32.7-.4,49.2,0,2.8.5,7.6-2.6,9s-6.9.8-10,.7c-8.7-.2-17.5-.1-26.2.2s-16.4-.9-24.6-1.7-13.5-.3-20.3-.8c-12.6-.9-25.4.9-37.9,1.8-15.5,1.2-31,1.1-46.4,1.4l-51.7.9-25.9.4c-8.2.2-16.7.8-24.9.4-3.5-.2-7.5-.9-8.5-4.8s-.3-8.6-.2-12.5c.1-9.6.3-19.2.5-28.8.2-19.5.5-39,.7-58.6a3.2,3.2,0,0,0-1-2.2c1.2-15.4-1.3-30.7-1.8-46.1S10,99.2,10.4,83.4s-2-32-2.4-48.1c-.1-7.1-.6-15.4,1.5-22.4a8.3,8.3,0,0,1,1.7-3.2c-.1.1-1.1,0,.3-.1h3.8c.7-.1,1.1-.1,0-.1,4.3.2,8.7-.1,13.1-.1H61.6L154.2,9l72.1-.3h8.2c6.2.5,12.2,1.8,18.5,1.9s15-1.4,22.5-2.2c3.4-.4,6.9-.5,9.9,1.4s4.8,5,5.9,8.2c2.3,7,.8,14.5.2,21.6A161.9,161.9,0,0,0,291.7,62.7Z" transform="translate(-0.3 -0.2)"/><path d="M291.1,171.9l1.3,2.3a3.5,3.5,0,0,1-1.4-1.3v-1.2A.3.3,0,0,0,291.1,171.9Z" transform="translate(-0.3 -0.2)"/><path d="M292.1,150.6a.4.4,0,0,1,.1.3h-.1Z" transform="translate(-0.3 -0.2)"/><path d="M292.1,163.6v.2a1.2,1.2,0,0,0-.5.5v-.2A1.2,1.2,0,0,1,292.1,163.6Z" transform="translate(-0.3 -0.2)"/><path d="M291.6,164.3l.9,4a3.3,3.3,0,0,1-1.4-2.7h0A1.7,1.7,0,0,1,291.6,164.3Z" transform="translate(-0.3 -0.2)"/><path d="M292.1,163.6a1.2,1.2,0,0,0-.5.5,30.7,30.7,0,0,1-.6-5.2,19.3,19.3,0,0,1,.1-2.4A67.1,67.1,0,0,1,292.1,163.6Z" transform="translate(-0.3 -0.2)"/><path d="M291.6,164.1v.2a1.7,1.7,0,0,0-.5,1.2A1.9,1.9,0,0,1,291.6,164.1Z" transform="translate(-0.3 -0.2)"/><path d="M292.1,150.9c-.3,1.1-.5,2.2-.7,3.3h-.7a22.3,22.3,0,0,0,.4,2.3,19.3,19.3,0,0,0-.1,2.4,30.7,30.7,0,0,0,.6,5.2,1.9,1.9,0,0,0-.5,1.4h0c-.1.1-.1.2-.1.4v4.3c-.1-6-1.4-11.6-.3-17.7A2.2,2.2,0,0,1,292.1,150.9Z" transform="translate(-0.3 -0.2)"/><path d="M290.7,154.2h.7a18.1,18.1,0,0,0-.3,2.3A22.3,22.3,0,0,1,290.7,154.2Z" transform="translate(-0.3 -0.2)"/><path d="M236.9,4.3a2.7,2.7,0,0,1,.2,2l-2.6-.5H234l.3-1.9Z" transform="translate(-0.3 -0.2)"/><path d="M237.1,6.3a1.6,1.6,0,0,1-.3.9l-2.9-.5V5.8h.5Z" transform="translate(-0.3 -0.2)"/><path d="M233.9,6.7l2.9.5a2.5,2.5,0,0,1-2.4,1.4h-.7A11,11,0,0,1,233.9,6.7Z" transform="translate(-0.3 -0.2)"/><path d="M235.2,3a2.4,2.4,0,0,1,1.7,1.3l-2.6-.5c0-.3.1-.6.1-.8h.8Z" transform="translate(-0.3 -0.2)"/><path d="M235,3h-2.8c0-.2.1-.3.1-.5S234.2,2.8,235,3Z" transform="translate(-0.3 -0.2)"/><path d="M234.4,2.9h0Z" transform="translate(-0.3 -0.2)"/><path d="M234.4,3c0,.2-.1.5-.1.8l-2.2-.4c0-.2.1-.3.1-.5h2.2Z" transform="translate(-0.3 -0.2)"/><path d="M234.4,5.8h0Z" transform="translate(-0.3 -0.2)"/><path d="M234.3,3.8,234,5.7l-2.6-.5a4.1,4.1,0,0,1,.5-.9l.2-.9Z" transform="translate(-0.3 -0.2)"/><path d="M234.2,2.9h0Z" transform="translate(-0.3 -0.2)"/><path d="M15.3,9.6c1.1,0,.7,0,0,.1H12.8c1.6-.3-.6-.2,0,0H11.5c-1.4.1-.4.2-.3.1a8.3,8.3,0,0,0-1.7,3.2C7.4,19.9,7.9,28.2,8,35.3c.4,16.1,2.8,32,2.4,48.1S8,114.8,8.5,130.5s3,30.7,1.8,46.1l-1.1-.5-.7-.2c.2-3.7.3-7.3.2-11-.1-7.1-.8-14.1-1.4-21.1A291.5,291.5,0,0,1,7.5,102a301.5,301.5,0,0,0,.1-42.5C6.7,46.7,5.5,33.9,6.5,21.1c.2-3.5,1-16.2,6.9-13.3,2.6,1.2,5.3.4,8.2.2s7.1-.5,10.6-.6c7.1-.3,14.1-.3,21.2-.2l85.1.7,95.2.7h-7.4L154.2,9l-92.6.4H28.4C24,9.5,19.6,9.8,15.3,9.6Z" transform="translate(-0.3 -0.2)"/><path d="M234,5.7h-2.7a.7.7,0,0,1,.1-.6Z" transform="translate(-0.3 -0.2)"/><path d="M234,5.8Z" transform="translate(-0.3 -0.2)"/><path d="M234,5.8v.9h0a9.5,9.5,0,0,1-1.8-.4c-.5,0-.8-.2-.8-.5Z" transform="translate(-0.3 -0.2)"/><path d="M233.9,6.7a11,11,0,0,0-.2,1.8c-2.2-.4-5.1-.5-6.2-2.7h3.8c0,.3.3.5.8.5a9.5,9.5,0,0,0,1.8.4Z" transform="translate(-0.3 -0.2)"/><path d="M233.7,8.5h0l-95.2-.7L53.4,7.2c-7.1-.1-14.1-.1-21.2.2-3.5.1-7.1.3-10.6.6S16,9,13.4,7.8C7.5,4.9,6.7,17.6,6.5,21.1c-1,12.8.2,25.6,1.1,38.4A301.5,301.5,0,0,1,7.5,102a291.5,291.5,0,0,0-.2,41.8c.6,7,1.3,14,1.4,21.1.1,3.7,0,7.3-.2,11H8l.4.5a22.9,22.9,0,0,1-.2,2.5l-.9-.3c1-9.5.4-19.1-.4-28.6a273,273,0,0,1-1.2-35C6.3,103,7.6,91.1,7.6,79.1s-1.3-23.3-2-35A192.6,192.6,0,0,1,5.3,24,87.7,87.7,0,0,1,6.4,13.7c.4-2.4,1.7-5.8,4-7H14a.9.9,0,0,0,1-.1l212.5-.9C228.6,8,231.5,8.1,233.7,8.5Z" transform="translate(-0.3 -0.2)"/><path d="M218.4,284.6c6.2.2,12.5,1.1,18.7,1.7-7,.3-14.1.7-21.1,1.3l-2.9.2A1,1,0,0,1,212,289l-1.8-.3v-.3l.9-2c.2-.4.2-.5,0-.6a3.4,3.4,0,0,1,2-.9l4.7-.3Z" transform="translate(-0.3 -0.2)"/><path d="M232.2,2.9Z" transform="translate(-0.3 -0.2)"/><path d="M232.2,2.9c0,.2-.1.3-.1.5l-1-.3c-1.2-.2-1.7,1.6-.5,1.9l.8.2a.7.7,0,0,0-.1.6h-3.9c0-.1-.1-.2-.1-.3a4.3,4.3,0,0,1-.1-2.5h5Z" transform="translate(-0.3 -0.2)"/><path d="M232.1,3.4l-.2.9a4.1,4.1,0,0,0-.5.9l-.8-.2c-1.2-.3-.7-2.1.5-1.9Z" transform="translate(-0.3 -0.2)"/><path d="M231.3,5.8Z" transform="translate(-0.3 -0.2)"/><path d="M227.3,2.9h0Z" transform="translate(-0.3 -0.2)"/><path d="M227.4,5.7h.1L15,6.7a.9.9,0,0,1-1,.1H10.4c-2.3,1.2-3.6,4.6-4,7A87.7,87.7,0,0,0,5.3,24a192.6,192.6,0,0,0,.3,20.1c.7,11.7,2,23.3,2,35S6.3,103,5.7,114.9a273,273,0,0,0,1.2,35c.8,9.5,1.4,19.1.4,28.6l.9.3L7.9,181v.6H7.7l-2.1-2.8v2l-.5-.4a1.3,1.3,0,0,0,.1-.6c1.7-13.6-.1-27.3-1.1-40.9s-.2-25.9.7-38.8a279.1,279.1,0,0,0,.1-38.8C4,48.5,2.7,35.6,3.5,22.8c.3-5.3,1.3-20.2,9.6-18.3l1.9.7a.7.7,0,0,1,.4.5C29,4.2,42.8,4.3,56.5,4.4Z" transform="translate(-0.3 -0.2)"/><path d="M227.4,5.7,56.5,4.4C42.8,4.3,29,4.2,15.4,5.7a.7.7,0,0,0-.4-.5l-1.9-.7h0l2.2-.3L14.4,4h1l2.1-.2c3.3-.1,6.7.1,10.1.1H53.4l74.5-.3,72.8-.3h26.5a4.3,4.3,0,0,0,.1,2.5C227.3,5.5,227.4,5.6,227.4,5.7Z" transform="translate(-0.3 -0.2)"/><path d="M227.3,2.9H200.7l-72.8.3-74.5.3H27.6c-3.4,0-6.8-.2-10.1-.1h0l-1.1-.9C32,1.1,47.8,1.4,63.4,1.6Z" transform="translate(-0.3 -0.2)"/><path d="M236,283.3l-18.2,1.3c-3.6-.1-7.2.2-10.8-.2s-5-.3-7.5-.3h-3.2c-8.7-.8-17.3-1.1-26-1.1,14.8-1.2,30.4-2.7,39.2-1.2C218.6,281.1,227.3,282.5,236,283.3Z" transform="translate(-0.3 -0.2)"/><path d="M207,284.4c3.6.4,7.2.1,10.8.2l-4.7.3a3.4,3.4,0,0,0-2,.9c-.3-.2-1.2,0-1.8-.1a16.1,16.1,0,0,0-3.8-.1l-3.6.3h-1.1a3.2,3.2,0,0,0-2.5-1.7h1.2Q203.3,284.1,207,284.4Z" transform="translate(-0.3 -0.2)"/><path d="M216,287.6v.2l-2.9,2.8h1.8c-.9,1.1-2.4,1.4-4.3,1.1-4-.6-7.7,0-11.7.3a4.3,4.3,0,0,1-4.4-2.2l3.8.4a3.2,3.2,0,0,0,2.2-1.2l6.8-.6,2.9.4,1.8.3a1,1,0,0,0,1.1-1.2Z" transform="translate(-0.3 -0.2)"/><path d="M213.1,290.6l2.9-2.8a4.2,4.2,0,0,1-1.1,2.7Z" transform="translate(-0.3 -0.2)"/><path d="M211.1,285.8c.2.1.2.2,0,.6l-.9,2c0-.2.1-.4.1-.6A4,4,0,0,1,211.1,285.8Z" transform="translate(-0.3 -0.2)"/><path d="M209.3,285.7c.6.1,1.5-.1,1.8.1a4,4,0,0,0-.8,2c0,.2-.1.4-.1.6v.3l-2.9-.4-6.8.6a3,3,0,0,0,.3-2.9h1.1l3.6-.3A16.1,16.1,0,0,1,209.3,285.7Z" transform="translate(-0.3 -0.2)"/><path d="M200.8,286a3,3,0,0,1-.3,2.9l-2.2.2v-2.4a1.8,1.8,0,0,1,1.8-.6Z" transform="translate(-0.3 -0.2)"/><path d="M200.8,286h-.7a1.8,1.8,0,0,0-1.8.6v-2.4A3.2,3.2,0,0,1,200.8,286Z" transform="translate(-0.3 -0.2)"/><path d="M198.3,289.1l2.2-.2a3.2,3.2,0,0,1-2.2,1.2Z" transform="translate(-0.3 -0.2)"/><path d="M198.3,289.1v1a4.4,4.4,0,0,1-.2-1Z" transform="translate(-0.3 -0.2)"/><path d="M198.3,287.2v1.9h-.2a4.2,4.2,0,0,1-.1-1.9Z" transform="translate(-0.3 -0.2)"/><path d="M198.3,286.7v.5h-.2A.8.8,0,0,1,198.3,286.7Z" transform="translate(-0.3 -0.2)"/><path d="M198.3,284.3v2.4a.8.8,0,0,0-.2.5l-3.7-.3A4.5,4.5,0,0,1,198.3,284.3Z" transform="translate(-0.3 -0.2)"/><path d="M196.3,284.2h2a4.5,4.5,0,0,0-3.9,2.6c-8-.7-16.1-.9-24.1-1C178.9,285.2,187.6,284.4,196.3,284.2Z" transform="translate(-0.3 -0.2)"/><path d="M198.3,287.2h0Z" transform="translate(-0.3 -0.2)"/><path d="M198.1,289.1a4.4,4.4,0,0,0,.2,1l-3.8-.4a3.9,3.9,0,0,1-.1-2.8l3.7.3h-.4c-1.2.1-1.2,2,0,1.9Z" transform="translate(-0.3 -0.2)"/><path d="M198.1,289.1h-.4c-1.2.1-1.2-1.8,0-1.9h.3A4.2,4.2,0,0,0,198.1,289.1Z" transform="translate(-0.3 -0.2)"/><path d="M194.4,286.9a3.9,3.9,0,0,0,.1,2.8c-20.9-1.6-42-.8-63-.5l-60,1.1-29,.5-15.8.2c-4.2.1-8.4.3-12.5-.5s-7.8-2.5-9.9-6-2-6.7-1.9-10.1c.2-9.7.3-19.3.4-29,.3-19.4.6-38.9.8-58.3a6.9,6.9,0,0,0,1.9.7l-.6,45.9c-.1,9.2-.3,18.3-.5,27.5,0,4.2-.1,8.3-.1,12.5s0,6.6,1.7,9.6c3.5,5.9,11.3,6,17.3,5.9l27.4-.5,55.4-.9c17.2-.3,34.4-.2,51.6-1,4.2-.2,8.4-.6,12.6-.9C178.3,286,186.4,286.2,194.4,286.9Z" transform="translate(-0.3 -0.2)"/><path d="M196.3,284.2c-8.7.2-17.4,1-26,1.7-10.5-.1-20.9.2-31.3.4l-65,1.1-32.8.5-15.7.3c-3.9,0-7.9.3-11.7-.6s-5.5-2.1-7-4.6-1.5-7.8-1.5-11.6c.2-10.7.3-21.4.5-32.2.2-18,.5-36,.7-54.1l-1-.2c.1-1.3.1-2.7.1-4.1a2,2,0,0,0,.9.5l1.2.3h.2c-.1.3-.1.6-.2,1l-.4-.2c.2.1.3.5.3.9s0,.6,0,0V183a.8.8,0,0,0,.1-.4l.7.4q-.3,31-.8,61.9c-.1,10.4-.5,20.9-.4,31.3.1,5.1,2,8.3,7.1,9.5s8.3.6,12.4.5l63.1-1,61.7-1.1c5.6-.1,12.1-.5,18.8-1C179,283.1,187.6,283.4,196.3,284.2Z" transform="translate(-0.3 -0.2)"/><path d="M139,286.3c10.4-.2,20.8-.5,31.3-.4-4.2.3-8.4.7-12.6.9-17.2.8-34.4.7-51.6,1l-55.4.9-27.4.5c-6,.1-13.8,0-17.3-5.9-1.7-3-1.7-6.3-1.7-9.6s.1-8.3.1-12.5c.2-9.2.4-18.3.5-27.5l.6-45.9h.2l-.2-.3v-2.7l1,.2c-.2,18.1-.5,36.1-.7,54.1-.2,10.8-.3,21.5-.5,32.2,0,3.8-.6,8.3,1.5,11.6s4.3,3.9,7,4.6,7.8.6,11.7.6l15.7-.3,32.8-.5Z" transform="translate(-0.3 -0.2)"/><path d="M141.4,283.4c9.6-.2,19.3-.4,28.9-.3-6.7.5-13.2.9-18.8,1l-61.7,1.1-63.1,1c-4.1.1-8.3.5-12.4-.5s-7-4.4-7.1-9.5c-.1-10.4.3-20.9.4-31.3q.5-30.9.8-61.9a3,3,0,0,1,.9,2.1c-.2,21.4-.5,42.7-.8,64.1-.1,9-.6,18.1-.4,27.2.1,5.1,2.6,7.8,7.6,8.6s9,.3,13.4.3l56.1-1Z" transform="translate(-0.3 -0.2)"/><path d="M17.5,3.7h0l-2.1.2h-1c-2.4-.3-5-.4-7,1.4-3.5,3.2-4,8.4-4.5,12.8-1.4,13-.2,26.1.8,39a292.5,292.5,0,0,1,.4,38.6c-.8,12.8-1.7,25.6-1.1,38.5.7,14.7,2.8,29.4,1.4,44.2a2.6,2.6,0,0,0,.7,1.9c-.1,1-.2,2-.4,3v.3a.6.6,0,0,0,0,.6,1.2,1.2,0,0,0,.6.6h.2v2.7l-1.9-2.5v2c-1.4-.9-1.9-2.3-1.7-4.4A131.8,131.8,0,0,0,3,168.6c.1-8.7-.8-17.4-1.5-26-1.3-15.9-.1-31.6.7-47.5S2.1,63.5,1.1,47.6C.3,36.2-.6,24.1,1.9,12.9c.7-3.5,2-7.4,4.9-9.6s6.9-2.5,9.6-.5h-1Z" transform="translate(-0.3 -0.2)"/><path d="M17.5,3.7l-2.1-.8h1Z" transform="translate(-0.3 -0.2)"/><path d="M15.3,4.2l-2.2.3L14.4,4Z" transform="translate(-0.3 -0.2)"/><path d="M14.4,4l-1.3.5h0c-8.3-1.9-9.3,13-9.6,18.3C2.7,35.6,4,48.5,4.9,61.3a279.1,279.1,0,0,1-.1,38.8c-.9,12.9-1.6,25.8-.7,38.8s2.8,27.3,1.1,40.9a1.3,1.3,0,0,1-.1.6,2.6,2.6,0,0,1-.7-1.9C5.8,163.7,3.7,149,3,134.3c-.6-12.9.3-25.7,1.1-38.5a292.5,292.5,0,0,0-.4-38.6c-1-12.9-2.2-26-.8-39,.5-4.4,1-9.6,4.5-12.8S12,3.7,14.4,4Z" transform="translate(-0.3 -0.2)"/><path d="M12.8,9.6c-.6-.2,1.6-.3,0,0Z" transform="translate(-0.3 -0.2)"/><path d="M10.3,176.6c-.1.7-.1,1.3-.2,1.9l-1.7-2.2a.4.4,0,0,1,.1-.3h0l.7.2Z" transform="translate(-0.3 -0.2)"/><path d="M8.5,178.8V183l-.7-.4c.1-.4.1-.7.2-1V181l.3-2.2Z" transform="translate(-0.3 -0.2)"/><path d="M8.5,175.9h0a.4.4,0,0,0-.1.3l-.4-.5Z" transform="translate(-0.3 -0.2)"/><path d="M7.7,182.6a.8.8,0,0,1-.1.4v.3c0-.4-.1-.8-.3-.9Z" transform="translate(-0.3 -0.2)"/><path d="M5.6,178.8l2.1,2.8-1.2-.3a2,2,0,0,1-.9-.5Z" transform="translate(-0.3 -0.2)"/><path d="M7.6,183.3c0,.6-.3,1.2,0,0Z" transform="translate(-0.3 -0.2)"/><path d="M5.5,187.6l.2.3H5.5Z" transform="translate(-0.3 -0.2)"/><path d="M5.6,180.8c0,1.4,0,2.8-.1,4.1H5.3a1.2,1.2,0,0,1-.6-.6.6.6,0,0,1,0-.6v-.3c.2-1,.3-2,.4-3Z" transform="translate(-0.3 -0.2)"/><path d="M3.6,185.1l1.9,2.5v.2a6.9,6.9,0,0,1-1.9-.7Z" transform="translate(-0.3 -0.2)"/><path class="b" d="M80.5,79.3q1.4,29.1,4.3,58.1c.5,5,1.3,10.4,4.9,14s6.1,3.5,9.6,4.3c7.7,1.6,15.5,1.8,23.4,2.1s13.4.4,19.6-1.8a7.8,7.8,0,0,0,3.7-2.2c1.4-1.5,1.7-3.8,2-5.9a277.5,277.5,0,0,0-2.6-77.2,5.8,5.8,0,0,0-1.8-4,5.3,5.3,0,0,0-2.4-.8c-12.9-2.6-26.2-2.5-39.3-1.5-5.3.4-10.7.9-15.2,3.6s-7.8,8.1-6.4,13.2" transform="translate(-0.3 -0.2)"/><path d="M79.1,79.3c.6,12.3,1.3,24.6,2.3,36.8.5,5.8,1,11.6,1.6,17.4s.7,9.2,2.3,13.4c3.2,8.2,11.4,10,19.3,11.1,10.3,1.3,21.7,2.3,32,.8,3.4-.5,8-1.3,10.5-4.1s2.5-8.7,2.8-12.5a266.3,266.3,0,0,0,.7-36.8,261.6,261.6,0,0,0-3.5-33.1c-.5-3.1-.9-5.9-3.9-7.3s-10.5-1.9-15-2.2c-11.5-.9-24.8-1.4-36.1,1.6C84.2,66.5,77.3,72.8,79,81.5c.3,1.8,2.9,1,2.6-.7-2.2-11.6,11.9-14.4,20.3-15a164.4,164.4,0,0,1,25.3-.3c4,.2,10.1-.2,13.6,1.7s4.2,9,4.8,13.5a271.5,271.5,0,0,1,2.4,28.5,254.1,254.1,0,0,1-.4,26.2c-.2,4.2-.5,8.4-1,12.5-1.1,7.7-9.5,8.4-15.8,8.6a153.4,153.4,0,0,1-24.4-1.1c-4.1-.5-8.6-1-12.4-2.9-5.6-2.6-7-8-7.7-13.6-2.4-19.7-3.5-39.7-4.5-59.6,0-1.7-2.8-1.7-2.7,0Z" transform="translate(-0.3 -0.2)"/><path class="c" d="M84.4,81.5c.8,17.9,2.1,35.8,3.9,53.6.5,4.6,1.2,9.7,4.4,12.9s5.6,3.3,8.7,4c6.9,1.5,14,1.8,21.1,2s12,.4,17.7-1.6a8.9,8.9,0,0,0,3.3-2.1c1.3-1.4,1.5-3.5,1.7-5.4A262.7,262.7,0,0,0,143,73.5c-.3-1.4-.6-2.9-1.7-3.7a5.4,5.4,0,0,0-2.1-.8c-11.7-2.3-23.6-2.2-35.5-1.4-4.7.4-9.6.9-13.6,3.4s-7,7.5-5.8,12.2" transform="translate(-0.3 -0.2)"/><path d="M83,81.5c.6,11.2,1.3,22.5,2.2,33.8q.6,8.4,1.5,16.8c.4,4.1.6,8.5,2.1,12.3,3.1,7.5,10.9,9,18.1,9.9,9.6,1.3,20.7,2.4,30.2.4,2.6-.6,5.8-1.5,7.6-3.7s2.2-8.2,2.5-11.9a257.8,257.8,0,0,0,.6-32.9A251.8,251.8,0,0,0,144.6,75c-.5-2.9-.8-5.5-3.6-6.9s-9.2-1.7-12.9-2c-12-1-48.9-4-45.1,17.4.3,1.8,2.9,1,2.6-.7-2.4-13.6,16.9-13.9,25.6-14.2,5-.2,10-.2,15,.1s13.3-.2,15.4,5.2c.9,2.1.9,5.3,1.2,7.6s.8,6.2,1.1,9.3c.6,5.1.9,10.2,1.2,15.4a273,273,0,0,1-.5,30c-.1,2.2-.3,4.5-.5,6.8-.5,4.3-1.5,6.8-6,8.6s-10.7,1.2-15.6,1c-9.3-.3-27.2,1.1-31.3-9.5-1.6-4.4-1.6-9.4-2.1-13.9s-.9-10.6-1.3-15.9c-.9-10.6-1.5-21.2-2-31.8a1.4,1.4,0,0,0-2.8,0Z" transform="translate(-0.3 -0.2)"/><path class="d" d="M120.2,142.4a10.9,10.9,0,0,0-5.9,3.8,4.9,4.9,0,0,0-1.2,2.5,2.2,2.2,0,0,0,.9,2.4,3.1,3.1,0,0,0,1.6.6,14.9,14.9,0,0,0,4.2.3,4.7,4.7,0,0,0,3.5-2,4.4,4.4,0,0,0-.1-4.7,7.4,7.4,0,0,0-4-2.9c-.4-.2-1.1,0-.9.4" transform="translate(-0.3 -0.2)"/><path d="M119.8,141.1c-3.3.9-7.6,3.6-8.1,7.4s4.1,5.1,7.4,4.9,6.7-2.6,6.1-6.4-4.1-7.1-7.2-5.9c-.4.2-.9.5-1,1v.3c-.3,1.7,2.4,2.5,2.7.7v-.3l-1,1c.8-.3,2.3,1,2.7,1.5a3.5,3.5,0,0,1,1.1,3.2c-.5,2.1-3.1,2.3-4.8,2.1s-2.9-.1-3.3-1.2.8-2.2,1.2-2.7a9.9,9.9,0,0,1,4.9-2.9c1.7-.5,1-3.2-.7-2.7Z" transform="translate(-0.3 -0.2)"/><path d="M123.1,71.3c.3,0,.6.4.3.6l-.3.2h0l-.3-.7-.7.6-9.2-.9c-.3-.1-.5-.4-.3-.6v-.3h.2l.4.6c.1-.2.1-.4.2-.6Z" transform="translate(-0.3 -0.2)"/><path class="e" d="M123.1,72.1h0l-5.8,5c-.7.6-1.4.9-.9,2.1l1.3,1.3h.1l2.4,2.5h-.8a18.6,18.6,0,0,1-2.6-2.3c-.6-.6-1.9-1.6-1.5-2.7s2.2-2.2,3.2-3l3.6-3Z" transform="translate(-0.3 -0.2)"/><path class="e" d="M122.8,71.4l.3.7h-1Z" transform="translate(-0.3 -0.2)"/><path class="e" d="M112.9,71.1l9.2.9-3.6,3c-1,.8-2.8,1.8-3.2,3s.9,2.1,1.5,2.7a18.6,18.6,0,0,0,2.6,2.3l-7.6-.3c-.2,0-.4.3-.4.5a63.9,63.9,0,0,0,2.2,7.8,37.6,37.6,0,0,0-9.1-8.7l-.4-.2a.5.5,0,0,0-.6.2,63.9,63.9,0,0,1-5.8,13.4c-.1-4.1-.2-8.2-.2-12.2v-.4c-.1-.3-.3-.5-.6-.4a100.8,100.8,0,0,0-10.3,3.1L92,78.3l.3-.3c.1-.2,0-.6-.3-.6a45.8,45.8,0,0,1-13.7-5.3,90.2,90.2,0,0,1,15.6-2.2h.4l.8-.4h0V58.7a67.3,67.3,0,0,1,3.8,7.6.4.4,0,0,0,.7.1c0-.1.1-.2.1-.3a121.5,121.5,0,0,1,6.6-10.9c-.2,3-.4,5.9-.7,8.9v.4c0,.3.4.4.6.3a90.6,90.6,0,0,1,11.3-4.3l-4.8,9.7v.3C112.4,70.7,112.6,71,112.9,71.1Z" transform="translate(-0.3 -0.2)"/><path class="e" d="M120.9,83.2a.4.4,0,0,1-.2.7c.1,0,0-.1-.2-.4s.1-.3.2-.4h-.5l-2.4-2.5A38.8,38.8,0,0,0,120.9,83.2Z" transform="translate(-0.3 -0.2)"/><path class="e" d="M120.5,83.5c.2.3.3.4.2.4h-.2Z" transform="translate(-0.3 -0.2)"/><path d="M120.7,83.1c-.1.1-.1.3-.2.4l-.3-.4Z" transform="translate(-0.3 -0.2)"/><path class="e" d="M120.5,83.5v.3l-1.1-.8h.8Z" transform="translate(-0.3 -0.2)"/><path d="M120.5,83.8h0l-8.2-.3a1.3,1.3,0,0,0-.1-.6,1,1,0,0,1-.4.5h.5A66,66,0,0,0,115.6,94c-.6-1-1.3-2-2-3a63.9,63.9,0,0,1-2.2-7.8c0-.2.2-.5.4-.5l7.6.3Z" transform="translate(-0.3 -0.2)"/><path class="e" d="M118.1,59.4a.4.4,0,0,1,.5.6l-5.1,10.3,4-9.8.8-.3-.4-.6h.2Z" transform="translate(-0.3 -0.2)"/><path class="e" d="M117.9,59.6l.4.6-.8.3h0A3,3,0,0,1,117.9,59.6Z" transform="translate(-0.3 -0.2)"/><path d="M117.8,59.5h.1a3,3,0,0,0-.4.8Z" transform="translate(-0.3 -0.2)"/><path d="M117.8,59.5l-.3.9h0a90.6,90.6,0,0,0-11.3,4.3c-.2.1-.6,0-.6-.3v-.4h.2l.6.4v-.7A97,97,0,0,1,117.8,59.5Z" transform="translate(-0.3 -0.2)"/><path class="e" d="M117.5,60.5h0Z" transform="translate(-0.3 -0.2)"/><path class="e" d="M117.5,60.5h0l-4,9.8h-.8Z" transform="translate(-0.3 -0.2)"/><path class="e" d="M115.7,94.1c.1.4-.6.7-.8.3h0l.7-.3Z" transform="translate(-0.3 -0.2)"/><path class="e" d="M115.6,94l-.7.3h0c-.5-1.1-.9-2.2-1.3-3.3C114.3,92,115,93,115.6,94Z" transform="translate(-0.3 -0.2)"/><polygon class="e" points="114.6 94.1 114.6 94.1 114.6 94.1 114.6 94.1"/><path d="M114.9,94.3h0a35,35,0,0,0-10.8-11.2l.4-.8a37.6,37.6,0,0,1,9.1,8.7C114,92.1,114.4,93.2,114.9,94.3Z" transform="translate(-0.3 -0.2)"/><path class="e" d="M113.5,70.3c-.1.2-.1.4-.2.6l-.4-.6Z" transform="translate(-0.3 -0.2)"/><path d="M112.2,83a1.3,1.3,0,0,1,.1.6h-.5A1,1,0,0,0,112.2,83Z" transform="translate(-0.3 -0.2)"/><path d="M106.5,53.6a.4.4,0,0,1,.7.2V54h0l-.8-.2h0Z" transform="translate(-0.3 -0.2)"/><path class="e" d="M107.2,54c-.2,3.3-.5,6.5-.7,9.8l-.7.3h-.2L107.2,54Z" transform="translate(-0.3 -0.2)"/><path class="e" d="M107.2,54l-1.6,10.1c.3-3,.5-5.9.7-8.9Z" transform="translate(-0.3 -0.2)"/><path class="e" d="M106.4,53.8l.8.2-.9,1.2C106.3,54.8,106.4,54.3,106.4,53.8Z" transform="translate(-0.3 -0.2)"/><path class="e" d="M106.5,63.8v.7l-.6-.4Z" transform="translate(-0.3 -0.2)"/><path class="e" d="M106.4,53.8c0,.5-.1,1-.1,1.4a121.5,121.5,0,0,0-6.6,10.9l-.4-.9a90.1,90.1,0,0,1,7.1-11.4Z" transform="translate(-0.3 -0.2)"/><path d="M104.5,82.3l-.4.8a1.7,1.7,0,0,0,.2-.5Z" transform="translate(-0.3 -0.2)"/><path d="M104.5,82.3l-.2.3-.6.2.4.3a68.3,68.3,0,0,1-6.3,14.1h-.1V95.7a63.9,63.9,0,0,0,5.8-13.4.5.5,0,0,1,.6-.2Z" transform="translate(-0.3 -0.2)"/><path d="M104.3,82.6a1.7,1.7,0,0,1-.2.5l-.4-.3Z" transform="translate(-0.3 -0.2)"/><path class="e" d="M99.3,65.2l.4.9h-.1Z" transform="translate(-0.3 -0.2)"/><path d="M99.7,66.1c0,.1-.1.2-.1.3a.4.4,0,0,1-.7-.1,67.3,67.3,0,0,0-3.8-7.6V57.2h0a68,68,0,0,1,4.2,8l-.4.8h.8Z" transform="translate(-0.3 -0.2)"/><path class="e" d="M99.3,65.2l.3.9h-.7Z" transform="translate(-0.3 -0.2)"/><path class="e" d="M97.8,97.2h-.1a.4.4,0,0,1-.8-.2v-.2H97l.7.2Z" transform="translate(-0.3 -0.2)"/><path class="e" d="M97.7,95.7v1.4l-.7-.2A7.5,7.5,0,0,1,97.7,95.7Z" transform="translate(-0.3 -0.2)"/><path d="M97.5,83.5c0,4,.1,8.1.2,12.2a7.5,7.5,0,0,0-.7,1.2h-.1c-.1-4.4-.2-8.9-.2-13.3h.8Z" transform="translate(-0.3 -0.2)"/><path d="M97.5,83.1v.4h-.3l-.6-.4v.5a96.5,96.5,0,0,0-10.8,3.3h0l.7-1a100.8,100.8,0,0,1,10.3-3.1C97.2,82.6,97.4,82.8,97.5,83.1Z" transform="translate(-0.3 -0.2)"/><path d="M97.2,83.5h-.5v-.5Z" transform="translate(-0.3 -0.2)"/><path class="e" d="M95,57c0,.1.1.1.1.2h0l-.8.2h-.1v-.2C94.2,56.8,94.8,56.7,95,57Z" transform="translate(-0.3 -0.2)"/><path class="e" d="M95.1,69.3h0Z" transform="translate(-0.3 -0.2)"/><path class="e" d="M95.1,69.3h0l-.8.4Z" transform="translate(-0.3 -0.2)"/><path class="e" d="M95.1,69.3l-.8.5V69c.3,0,.6,0,.6.2Z" transform="translate(-0.3 -0.2)"/><path class="e" d="M94.3,69.8l.8-.4Z" transform="translate(-0.3 -0.2)"/><path d="M95.1,58.7V69.3h-.2c0-.2-.3-.2-.6-.2,0-3.8,0-7.7-.1-11.6h.1Z" transform="translate(-0.3 -0.2)"/><path class="e" d="M95.1,57.2v1.5l-.8-1.3Z" transform="translate(-0.3 -0.2)"/><path d="M94.3,69.4v.4h-.4a90.2,90.2,0,0,0-15.6,2.2h0l-.9-.6a91.2,91.2,0,0,1,16.5-2.4h.4Z" transform="translate(-0.3 -0.2)"/><path d="M92,77.4c.3,0,.4.4.3.6l-.3.3h-.2c-.1-.2-.1-.4-.2-.6s-.2.3-.4.4a44.5,44.5,0,0,1-14.1-5.7.4.4,0,0,1,.1-.8h.3a1.7,1.7,0,0,0-.1.7l.9-.2h0A45.8,45.8,0,0,0,92,77.4Z" transform="translate(-0.3 -0.2)"/><path class="e" d="M92,78.3l-5.4,7.5-1.2.4h0l6.4-8Z" transform="translate(-0.3 -0.2)"/><path class="e" d="M91.6,77.6c.1.2.1.4.2.6l-.6-.2C91.4,77.9,91.5,77.7,91.6,77.6Z" transform="translate(-0.3 -0.2)"/><path class="e" d="M91.8,78.2l-6.4,8L91.2,78Z" transform="translate(-0.3 -0.2)"/><path class="e" d="M86.6,85.8l-.7,1-.5-.6Z" transform="translate(-0.3 -0.2)"/><path class="e" d="M86.6,85.8l-1.2.4Z" transform="translate(-0.3 -0.2)"/><path d="M85.9,86.8h-.2a.4.4,0,0,1-.5-.6c.1-.1.1-.2.2-.2h0Z" transform="translate(-0.3 -0.2)"/><polygon points="77.2 71.2 78.1 71.8 77.2 71.3 77.2 71.2"/><path d="M78.3,72.1l-.9.2a1.7,1.7,0,0,1,.1-.7Z" transform="translate(-0.3 -0.2)"/><path d="M77.5,71.6l.8.5Z" transform="translate(-0.3 -0.2)"/><path class="f" d="M117.8,80.6a38.8,38.8,0,0,0,3.1,2.6.4.4,0,0,1-.2.7" transform="translate(-0.3 -0.2)"/><line class="f" x1="94.8" y1="69.1" x2="94" y2="69.5"/><path class="g" d="M117.5,60.5h0l.8-.3-.4-.6" transform="translate(-0.3 -0.2)"/><line class="g" x1="117.2" y1="60.2" x2="112.5" y2="69.9"/><path class="g" d="M117.8,59.5h.3a.4.4,0,0,1,.5.6l-5.1,10.3" transform="translate(-0.3 -0.2)"/><line class="f" x1="117.2" y1="60.2" x2="117.6" y2="59.3"/><polyline class="f" points="113.3 70.1 117.2 60.2 117.2 60.2"/><path class="g" d="M120.5,83.8v-.3c.1-.1.1-.3.2-.4h-1.3a18.6,18.6,0,0,1-2.6-2.3c-.6-.6-1.9-1.6-1.5-2.7s2.2-2.2,3.2-3l3.6-3h1" transform="translate(-0.3 -0.2)"/><path class="g" d="M123.1,72.1l-5.8,5c-.7.6-1.4.9-.9,2.1l1.3,1.3h.1l2.4,2.5.3.4c.2.3.3.4.2.4h-.2" transform="translate(-0.3 -0.2)"/><path class="f" d="M115.6,94h.1c.1.4-.6.7-.8.3h0" transform="translate(-0.3 -0.2)"/><line class="f" x1="114.6" y1="94.1" x2="114.6" y2="94.1"/><path class="f" d="M115.6,94l-.7.3h0" transform="translate(-0.3 -0.2)"/><path class="g" d="M112.9,70.3h.6" transform="translate(-0.3 -0.2)"/><path class="g" d="M112.9,70.3l.4.6c.1-.2.1-.4.2-.6l9.6,1c.3,0,.6.4.3.6l-.3.2h0l-.3-.7-.7.6-9.2-.9c-.3-.1-.5-.4-.3-.6v-.3Z" transform="translate(-0.3 -0.2)"/><path class="f" d="M112.3,83.6A66,66,0,0,0,115.6,94c-.6-1-1.3-2-2-3a63.9,63.9,0,0,1-2.2-7.8c0-.2.2-.5.4-.5l7.6.3,1.1.8h0l-8.2-.3" transform="translate(-0.3 -0.2)"/><path class="f" d="M112.3,83.6a1.3,1.3,0,0,0-.1-.6,1,1,0,0,1-.4.5Z" transform="translate(-0.3 -0.2)"/><path class="g" d="M107.2,54c-.2,3.3-.5,6.5-.7,9.8" transform="translate(-0.3 -0.2)"/><path class="g" d="M105.6,64.1c.3-3,.5-5.9.7-8.9l.9-1.2" transform="translate(-0.3 -0.2)"/><line class="f" x1="106.9" y1="53.8" x2="105.4" y2="63.8"/><path class="g" d="M105.8,64.1l.7-.3" transform="translate(-0.3 -0.2)"/><polyline class="g" points="105.4 63.8 105.6 63.9 105.6 63.9"/><path class="f" d="M117.9,59.6a3,3,0,0,0-.4.8h0a90.6,90.6,0,0,0-11.3,4.3c-.2.1-.6,0-.6-.3v-.4" transform="translate(-0.3 -0.2)"/><line class="g" x1="117.6" y1="59.3" x2="117.6" y2="59.4"/><path class="f" d="M105.8,64.1l.6.4v-.7a97,97,0,0,1,11.3-4.3" transform="translate(-0.3 -0.2)"/><path class="f" d="M104.5,82.3a37.6,37.6,0,0,1,9.1,8.7c.4,1.1.8,2.2,1.3,3.3h0a35,35,0,0,0-10.8-11.2" transform="translate(-0.3 -0.2)"/><line class="f" x1="103.9" y1="82.8" x2="104.2" y2="82.1"/><path class="f" d="M104.3,82.6a1.7,1.7,0,0,1-.2.5" transform="translate(-0.3 -0.2)"/><path class="g" d="M99.3,65.2a90.1,90.1,0,0,1,7.1-11.4v-.2a.4.4,0,0,1,.7.2V54h0l-.8-.2c0,.5-.1,1-.1,1.4a121.5,121.5,0,0,0-6.6,10.9" transform="translate(-0.3 -0.2)"/><line class="f" x1="99.5" y1="65.9" x2="99" y2="65"/><path class="f" d="M99.3,65.2l.3.9" transform="translate(-0.3 -0.2)"/><path class="f" d="M97,96.9l.7.2V95.7a63.9,63.9,0,0,0,5.8-13.4.5.5,0,0,1,.6-.2l.4.2-.2.3-.6.2.4.3a68.3,68.3,0,0,1-6.3,14.1h-.1a.4.4,0,0,1-.8-.2v-.2" transform="translate(-0.3 -0.2)"/><path class="f" d="M95.1,69.3h0" transform="translate(-0.3 -0.2)"/><path class="f" d="M95.1,69.3h0l-.8.4" transform="translate(-0.3 -0.2)"/><line class="f" x1="94" y1="69.5" x2="94.8" y2="69.1"/><path class="f" d="M94.2,57.4v-.2c0-.4.6-.5.8-.2s.1.1.1.2a68,68,0,0,1,4.2,8l-.4.8h.8c0,.1-.1.2-.1.3a.4.4,0,0,1-.7-.1,67.3,67.3,0,0,0-3.8-7.6V57.2l-.8.2" transform="translate(-0.3 -0.2)"/><path class="f" d="M95.1,58.7V69.3h-.2c0-.2-.3-.2-.6-.2,0-3.8,0-7.7-.1-11.6h.1Z" transform="translate(-0.3 -0.2)"/><path class="g" d="M85.4,86.2,91.2,78l.6.2" transform="translate(-0.3 -0.2)"/><line class="g" x1="85.1" y1="85.9" x2="85.1" y2="85.9"/><line class="f" x1="91.6" y1="77.9" x2="85.1" y2="85.9"/><line class="g" x1="86.4" y1="85.5" x2="91.8" y2="78.1"/><path class="g" d="M85.4,86.2l1.2-.4" transform="translate(-0.3 -0.2)"/><line class="f" x1="86.4" y1="85.5" x2="85.2" y2="86"/><path class="f" d="M96.7,83.6h.5l-.6-.4Z" transform="translate(-0.3 -0.2)"/><path class="f" d="M85.4,86.2l.5.6.7-1a100.8,100.8,0,0,1,10.3-3.1c.3-.1.5.1.6.4v.4c0,4,.1,8.1.2,12.2a7.5,7.5,0,0,0-.7,1.2h-.1c-.1-4.4-.2-8.9-.2-13.3" transform="translate(-0.3 -0.2)"/><line class="g" x1="85.1" y1="85.9" x2="85.2" y2="86"/><path class="f" d="M96.7,83.6a96.5,96.5,0,0,0-10.8,3.3h-.2a.4.4,0,0,1-.5-.6c.1-.1.1-.2.2-.2" transform="translate(-0.3 -0.2)"/><path class="f" d="M77.4,71.5a91.2,91.2,0,0,1,16.5-2.4h.4v.8h-.4a90.2,90.2,0,0,0-15.6,2.2" transform="translate(-0.3 -0.2)"/><line class="f" x1="78.1" y1="71.8" x2="77.2" y2="71.2"/><path class="f" d="M78.3,72.1l-.8-.5" transform="translate(-0.3 -0.2)"/><line class="f" x1="77.2" y1="71.3" x2="78.1" y2="71.8"/><path class="f" d="M91.8,78.2c-.1-.2-.1-.4-.2-.6s-.2.3-.4.4a44.5,44.5,0,0,1-14.1-5.7.4.4,0,0,1,.1-.8h.3a1.7,1.7,0,0,0-.1.7l.9-.2h0A45.8,45.8,0,0,0,92,77.4c.3,0,.4.4.3.6l-.3.3" transform="translate(-0.3 -0.2)"/><line class="g" x1="91.8" y1="78.1" x2="91.6" y2="77.9"/><path class="b" d="M81.7,105.9l.6,10.2c-4.6,2.1-3.9-1-4.4-2.7s-1.9-4.1,0-6.8C78.4,105.9,81.1,106.8,81.7,105.9Z" transform="translate(-0.3 -0.2)"/><path d="M80,94.5h0Z" transform="translate(-0.3 -0.2)"/><path d="M79.9,94.4h0Z" transform="translate(-0.3 -0.2)"/><path d="M79.9,94.4l-.3.8h-.3v-.5a.6.6,0,0,1,.6-.3h.1Z" transform="translate(-0.3 -0.2)"/><path d="M79.3,95.5v-.4h.3l.3-.8h0a3,3,0,0,1,.4-.8h.2c.9.4.2,1.9-.7,1.6h-.5Z" transform="translate(-0.3 -0.2)"/><path d="M79.3,95.1v.4a.6.6,0,0,1-.7-.3A.8.8,0,0,1,79.3,95.1Z" transform="translate(-0.3 -0.2)"/><path d="M78.4,94.3a1.7,1.7,0,0,1,1.4,0,.6.6,0,0,0-.6.3v.5a.8.8,0,0,0-.7.1A1,1,0,0,1,78.4,94.3Z" transform="translate(-0.3 -0.2)"/><path class="b" d="M79.3,95.5l1.4,9.4c-.7.1-2.5.3-2.8,0s-.3-2.1-.3-2.8-.5-6.2,1-6.9A.6.6,0,0,0,79.3,95.5Z" transform="translate(-0.3 -0.2)"/><path d="M79.9,94.4h-.1a1.7,1.7,0,0,0-1.4,0,.8.8,0,0,1,.4-.4c.5-.5.8-.5,1.5-.3A3,3,0,0,0,79.9,94.4Z" transform="translate(-0.3 -0.2)"/><path d="M80.8,105.8v-.9h.1a.9.9,0,0,1,0,1.8,15,15,0,0,1-3,0,2.5,2.5,0,0,1,.1-.8h2.9Z" transform="translate(-0.3 -0.2)"/><path d="M77.2,106.6h.6a3.4,3.4,0,0,1-.1,1Z" transform="translate(-0.3 -0.2)"/><path d="M80.7,104.9v.9h-3c0-.6-.5-.9-1.1-.9h0c0-2.1,0-4.2-.1-6.3a5.9,5.9,0,0,1,.6-3.2,2.9,2.9,0,0,1,1.2-1,1,1,0,0,0,.2.9c-1.5.7-1.1,6-1,6.9s-.3,2.4.3,2.8S80,105,80.7,104.9Z" transform="translate(-0.3 -0.2)"/><path d="M76.8,105.9l.4.7h-.4Z" transform="translate(-0.3 -0.2)"/><path d="M76.7,104.9c.6,0,1.1.3,1.1.9a1.1,1.1,0,0,1-.9-.3A.8.8,0,0,1,76.7,104.9Z" transform="translate(-0.3 -0.2)"/><path d="M77.9,113.4c.5,1.7,2.6,2.3,4.4,2.7l.7,1.3c-2.5-.6-5.4-1.4-6.1-3.3a5.5,5.5,0,0,1-.2-1.8c0-2,0-3.9.1-5.8h.4l.7-.7-.2,1.8C77.6,109.6,77.3,111.8,77.9,113.4Z" transform="translate(-0.3 -0.2)"/><path d="M76.9,105.5a1.1,1.1,0,0,0,.9.3h.1a2.5,2.5,0,0,0-.1.8h-.6l-.4-.7v.6l-.7-.7c-.1-.1-.1-.3-.2-.4a1.4,1.4,0,0,1,.8-.5A.8.8,0,0,0,76.9,105.5Z" transform="translate(-0.3 -0.2)"/><path d="M76.9,114.1c.7,1.9,3.6,2.7,6.1,3.3l-.7-1.3,1,.2a1.1,1.1,0,0,1-.6,2.1c-1.9-.5-4.2-1-5.7-2.4a.9.9,0,0,0-.7-.9c-1.5-2.4-.7-6.5-.6-9.2.1-.2.1-.4.2-.5s.1.3.2.4l.7.7c-.1,1.9-.1,3.8-.1,5.8A5.5,5.5,0,0,0,76.9,114.1Z" transform="translate(-0.3 -0.2)"/><path d="M76.3,115.1a.9.9,0,0,1,.7.9l-.6-.7A.3.3,0,0,1,76.3,115.1Z" transform="translate(-0.3 -0.2)"/><path class="b" d="M77.3,116.1l5,1.9.7,9.5a5.8,5.8,0,0,1-6-3.7c-.2-.6-1.1-7-.8-7S77.1,116.2,77.3,116.1Z" transform="translate(-0.3 -0.2)"/><path d="M75.3,116.8c.1-.5.5-1.2.9-.8l.5.8c-.1,0-.3.1-.5,0s.6,6.4.8,7c1,2.3,3.2,4.2,5.8,3.7l.4.8c-2.6.8-5.4-1-6.7-3.5S75.2,119.6,75.3,116.8Z" transform="translate(-0.3 -0.2)"/><path d="M75.8,99.4c-.1-2.6.7-7.4,4.5-5.8h0c-.7-.2-1-.2-1.5.3a.8.8,0,0,0-.4.4,2.9,2.9,0,0,0-1.2,1,5.9,5.9,0,0,0-.6,3.2c.1,2.1.1,4.2.1,6.3h0a1.4,1.4,0,0,0-.8.5c-.1-.5,0-1-.1-1.5Z" transform="translate(-0.3 -0.2)"/><path d="M83.5,129.2c-3.6.7-6.8-1.6-8.1-4.9-.7-1.5-2.5-9.7.8-9.2h.1a.3.3,0,0,0,.1.2l.6.7a.8.8,0,0,1-.3.8l-.5-.8c-.4-.4-.8.3-.9.8-.1,2.8,0,5.6,1.2,8s4.1,4.3,6.7,3.5l-.4-.8H83A.9.9,0,0,1,83.5,129.2Z" transform="translate(-0.3 -0.2)"/><path class="b" d="M123,158.1v.4c-.1-.4-.3-.8-.4-1.2l-2.5-6.1-.3-.9a3.9,3.9,0,0,1,.4-1.8c1.5-2.7,4.7-4.2,7.8-4.4h1.4l1.3.7a13.2,13.2,0,0,1,2.8,2.5,10.4,10.4,0,0,1,1.7,5.4,36.4,36.4,0,0,1-.4,5.7c-4-.7-8.2.4-12.2-.4" transform="translate(-0.3 -0.2)"/><path d="M121.7,158.1v.4l2.7-.4c-.6-2.1-1.8-4.1-2.4-6.2s1.7-5.6,4.8-6.3c7.3-1.5,7.3,8.2,6.7,12.8l1.8-1.3c-4.1-.6-8.2.2-12.2-.4-1.8-.3-2.5,2.4-.8,2.7,4.1.6,8.2-.2,12.2.3a1.5,1.5,0,0,0,1.8-1.3c.5-4.1.9-8.6-1.7-12.1s-4.5-4-7.7-3.5a10.6,10.6,0,0,0-7.7,5c-1.9,3.5,1.6,7.7,2.6,11.1.4,1.6,2.5,1.1,2.7-.4v-.4c.2-1.8-2.5-1.8-2.7,0Z" transform="translate(-0.3 -0.2)"/><path class="b" d="M79.1,94.3l1.8.4" transform="translate(-0.3 -0.2)"/><path d="M78.7,95.6l1.8.4a1.4,1.4,0,0,0,1.7-.9,1.3,1.3,0,0,0-.9-1.7l-1.8-.5a1.5,1.5,0,0,0-1.7,1,1.4,1.4,0,0,0,.9,1.7Z" transform="translate(-0.3 -0.2)"/><path class="h" d="M77.3,105.6a1.7,1.7,0,0,1-.6.6" transform="translate(-0.3 -0.2)"/><path class="b" d="M81,117.2a3.1,3.1,0,0,1,1.9.6" transform="translate(-0.3 -0.2)"/><path d="M81,118.6a2.5,2.5,0,0,1,1.2.4,1.4,1.4,0,0,0,1.9-.5,1.3,1.3,0,0,0-.5-1.9,5.7,5.7,0,0,0-2.6-.8,1.4,1.4,0,0,0,0,2.8Z" transform="translate(-0.3 -0.2)"/><path class="b" d="M245.5,193.7c4.4,8.7,5.5,17.3,1.2,26.3h-.1c-3.7,6.9-11,10.9-14.6,17.9l-.2.5c-.4.9-1.7.3-1.8-.5-1-9.4-5.9-17.4-10-25.7a68.7,68.7,0,0,1-4.7-11.6,15.9,15.9,0,0,1-.5-6.8l-3.4,3.8c-2.7,3-4.4,6.6-6.6,9.9-4.5,7-10.7,14.7-7.7,23.5,0,.1,0,.2.1.2s-1.3,1.7-1.8.8a.4.4,0,0,0-.1-.3,142.5,142.5,0,0,1-11.5-40.9,75.1,75.1,0,0,1-22.4,42.8c0,.1-.1.1-.2.2s-1.9-.2-1.4-1.2v-.2c4.6-10.8,4.2-22.4,2.9-33.8-1.4,5.4-3.9,10.5-6.4,15.4A95.8,95.8,0,0,1,139.4,238l-.2.2-.3.3h-.1a74.1,74.1,0,0,1-16.5,11.8h-.2A.9.9,0,0,1,121,249v-.2c20.2-23,13-57.7,10.3-85.3-1.1-11.4-1.6-23.3,3.6-33.8,2.6-5.4,6.6-10.3,10.6-14.7s8.1-8.8,12.8-12.3c16.7-12.7,42.2-11.1,59.3.1A35.5,35.5,0,0,1,233.9,128c1.7,11.9-1.6,23.8-.8,35.7S240.4,183.8,245.5,193.7ZM245,219a23.2,23.2,0,0,0,1.6-17.7c-1.5-5-4.4-9.6-7-14.2a71.2,71.2,0,0,1-6.7-13.9,53.2,53.2,0,0,1-1.7-17.8c.6-11.1,3-22.8-.7-33.7S217.1,103,206.2,99.3s-21.5-4.9-32-2.2-19.5,10.8-27.2,19.3c-4.1,4.4-8,9.2-10.6,14.7a42.7,42.7,0,0,0-3.8,17.9c-.3,12,1.7,24.2,2.8,36.1,1.9,20.8,2.6,43.8-10,61.3a64.9,64.9,0,0,0,12.5-9.6c0-.1.1-.1.1-.2a91.6,91.6,0,0,0,15.6-21.5c3.7-7,7.8-14.9,8.2-23-.2-1.6-.4-3.2-.7-4.8h0v-.2a.8.8,0,0,1,.4-.7c.2-1,1.7-1.3,1.9-.2a29.6,29.6,0,0,1,.3,5.9c1.7,12.8,3.1,25.3-.8,37.4a72.8,72.8,0,0,0,19.8-51.3,1,1,0,1,1,1.9,0,139.4,139.4,0,0,0,9.9,46.8c.5-5.7,3.7-10.9,6.9-15.7s4.2-7.3,6.7-10.6,5.4-5.7,7.6-9v-.2c.6-.9,2.1-.4,1.7.7v.2a16.4,16.4,0,0,0-.9,7.9,52.2,52.2,0,0,0,1.8,5.6,106.6,106.6,0,0,0,5.5,11.9c3.2,6.2,6.3,12.5,7.6,19.3C235.3,229.2,241.7,225.3,245,219Z" transform="translate(-0.3 -0.2)"/><path class="b" d="M246.6,201.3A23.2,23.2,0,0,1,245,219c-3.3,6.3-9.7,10.2-13.5,16.1-1.3-6.8-4.4-13.1-7.6-19.3a106.6,106.6,0,0,1-5.5-11.9,52.2,52.2,0,0,1-1.8-5.6,16.4,16.4,0,0,1,.9-7.9v-.2c.4-1.1-1.1-1.6-1.7-.7v.2c-2.2,3.3-5.2,5.8-7.6,9s-4.3,7.2-6.7,10.6-6.4,10-6.9,15.7a139.4,139.4,0,0,1-9.9-46.8,1,1,0,1,0-1.9,0,72.8,72.8,0,0,1-19.8,51.3c3.9-12.1,2.5-24.6.8-37.4a29.6,29.6,0,0,0-.3-5.9c-.2-1.1-1.7-.8-1.9.2a.8.8,0,0,0-.4.7v.2h0c.3,1.6.5,3.2.7,4.8-.4,8.1-4.5,16-8.2,23A91.6,91.6,0,0,1,138,236.6c0,.1-.1.1-.1.2a64.9,64.9,0,0,1-12.5,9.6c12.6-17.5,11.9-40.5,10-61.3-1.1-11.9-3.1-24.1-2.8-36.1a42.7,42.7,0,0,1,3.8-17.9c2.6-5.5,6.5-10.3,10.6-14.7,7.7-8.5,15.8-16.4,27.2-19.3s21.8-1.2,32,2.2,20.6,11.3,24.3,22.4,1.3,22.6.7,33.7a53.2,53.2,0,0,0,1.7,17.8,71.2,71.2,0,0,0,6.7,13.9C242.2,191.7,245.1,196.3,246.6,201.3Z" transform="translate(-0.3 -0.2)"/><path class="i" d="M245.5,193.7c-5.1-9.9-11.5-18.5-12.4-30s2.5-23.8.8-35.7a35.5,35.5,0,0,0-16.2-25.2c-17.1-11.2-42.6-12.8-59.3-.1-4.7,3.5-8.8,8-12.8,12.3s-8,9.3-10.6,14.7c-5.2,10.5-4.7,22.4-3.6,33.8,2.7,27.6,9.9,62.3-10.3,85.3v.2a.9.9,0,0,0,1.1,1.5h.2a74.1,74.1,0,0,0,16.5-11.8h.1l.3-.3.2-.2a95.8,95.8,0,0,0,16.9-23.9c2.5-4.9,5-10,6.4-15.4,1.3,11.4,1.7,23-2.9,33.8v.2c-.5,1,.6,2,1.4,1.2s.2-.1.2-.2a75.1,75.1,0,0,0,22.4-42.8,142.5,142.5,0,0,0,11.5,40.9.4.4,0,0,1,.1.3c.5.9,2.1.2,1.8-.8s-.1-.1-.1-.2c-3-8.8,3.2-16.5,7.7-23.5,2.2-3.3,3.9-6.9,6.6-9.9l3.4-3.8a15.9,15.9,0,0,0,.5,6.8,68.7,68.7,0,0,0,4.7,11.6c4.1,8.3,9,16.3,10,25.7.1.8,1.4,1.4,1.8.5l.2-.5c3.6-7,10.9-11,14.6-17.9h.1C251,211,249.9,202.4,245.5,193.7Z" transform="translate(-0.3 -0.2)"/><path class="i" d="M245,219c-3.3,6.3-9.7,10.2-13.5,16.1-1.3-6.8-4.4-13.1-7.6-19.3a106.6,106.6,0,0,1-5.5-11.9,52.2,52.2,0,0,1-1.8-5.6,16.4,16.4,0,0,1,.9-7.9v-.2c.4-1.1-1.1-1.6-1.7-.7v.2c-2.2,3.3-5.2,5.8-7.6,9s-4.3,7.2-6.7,10.6-6.4,10-6.9,15.7a139.4,139.4,0,0,1-9.9-46.8,1,1,0,1,0-1.9,0,72.8,72.8,0,0,1-19.8,51.3c3.9-12.1,2.5-24.6.8-37.4a29.6,29.6,0,0,0-.3-5.9c-.2-1.1-1.7-.8-1.9.2a.8.8,0,0,0-.4.7v.2h0c.3,1.6.5,3.2.7,4.8-.4,8.1-4.5,16-8.2,23A91.6,91.6,0,0,1,138,236.6c0,.1-.1.1-.1.2a64.9,64.9,0,0,1-12.5,9.6c12.6-17.5,11.9-40.5,10-61.3-1.1-11.9-3.1-24.1-2.8-36.1a42.7,42.7,0,0,1,3.8-17.9c2.6-5.5,6.5-10.3,10.6-14.7,7.7-8.5,15.8-16.4,27.2-19.3s21.8-1.2,32,2.2,20.6,11.3,24.3,22.4,1.3,22.6.7,33.7a53.2,53.2,0,0,0,1.7,17.8,71.2,71.2,0,0,0,6.7,13.9c2.6,4.6,5.5,9.2,7,14.2A23.2,23.2,0,0,1,245,219Z" transform="translate(-0.3 -0.2)"/><path class="j" d="M244.8,191.8c4.4,8.7,5.6,17.3,1.2,26.3h0c-3.8,6.9-11,11-14.6,17.9-.1.2-.2.3-.2.5s-1.7.3-1.8-.5c-1-9.4-5.9-17.4-10-25.7a58.7,58.7,0,0,1-4.7-11.6,16,16,0,0,1-.6-6.8l-3.3,3.8c-2.7,3-4.4,6.6-6.6,9.9-4.6,7-10.8,14.7-7.7,23.5v.2c.4,1.1-1.3,1.7-1.7.8v-.3A142.7,142.7,0,0,1,183.1,189a74.9,74.9,0,0,1-22.3,42.8l-.2.2c-.8.8-1.9-.2-1.5-1.2v-.2c4.5-10.8,4.2-22.4,2.8-33.8-1.4,5.4-3.9,10.5-6.4,15.4a92.9,92.9,0,0,1-16.8,23.9l-.3.2-.3.3v.2a76.4,76.4,0,0,1-16.4,11.7h-.2a1,1,0,0,1-1.2-1.5l.2-.2c20.1-23,12.9-57.7,10.3-85.3-1.1-11.4-1.7-23.3,3.5-33.8A66.6,66.6,0,0,1,145,113.1a98.3,98.3,0,0,1,12.7-12.3c16.7-12.7,42.3-11.1,59.4.1a35.8,35.8,0,0,1,16.2,25.2c1.6,11.9-1.6,23.8-.8,35.7S239.8,181.9,244.8,191.8Zm-.4,25.3a23.7,23.7,0,0,0,1.6-17.7c-1.6-5-4.4-9.6-7-14.2s-5.2-9-6.7-13.9-2-11.8-1.7-17.8c.5-11.1,3-22.8-.7-33.7s-13.5-18.7-24.3-22.4-21.6-4.9-32.1-2.2-19.5,10.9-27.2,19.3c-4,4.4-8,9.2-10.6,14.7a46,46,0,0,0-3.8,17.9c-.2,12,1.7,24.2,2.8,36.1,2,20.8,2.7,43.8-9.9,61.3a64.9,64.9,0,0,0,12.5-9.6v-.2A91.6,91.6,0,0,0,153,213.2c3.7-7,7.7-14.9,8.2-23-.2-1.6-.5-3.2-.7-4.8h0v-.2a.8.8,0,0,1,.4-.7c.2-1,1.7-1.3,1.9-.2a29.6,29.6,0,0,1,.3,5.9c1.7,12.8,3.1,25.3-.8,37.4a72.8,72.8,0,0,0,19.8-51.3,1,1,0,1,1,1.9,0,141.8,141.8,0,0,0,9.8,46.8c.5-5.6,3.8-10.9,7-15.6s4.2-7.4,6.7-10.7,5.4-5.7,7.5-9l.2-.2a.9.9,0,0,1,1.7.7c0,.1,0,.2-.1.2-.7,2.6-1.4,5.2-.8,7.9a36.2,36.2,0,0,0,1.7,5.6,129,129,0,0,0,5.6,11.9c3.2,6.2,6.3,12.5,7.6,19.3C234.7,227.3,241,223.4,244.4,217.1Z" transform="translate(-0.3 -0.2)"/><path class="j" d="M246,199.4a23.7,23.7,0,0,1-1.6,17.7c-3.4,6.3-9.7,10.2-13.5,16.1-1.3-6.8-4.4-13.1-7.6-19.3a129,129,0,0,1-5.6-11.9,36.2,36.2,0,0,1-1.7-5.6c-.6-2.7.1-5.3.8-7.9.1,0,.1-.1.1-.2a.9.9,0,0,0-1.7-.7l-.2.2c-2.1,3.3-5.1,5.8-7.5,9s-4.4,7.2-6.7,10.7-6.5,10-7,15.6a141.8,141.8,0,0,1-9.8-46.8,1,1,0,1,0-1.9,0,72.8,72.8,0,0,1-19.8,51.3c3.9-12.1,2.5-24.6.8-37.4a29.6,29.6,0,0,0-.3-5.9c-.2-1.1-1.7-.8-1.9.2a.8.8,0,0,0-.4.7v.2h0c.2,1.6.5,3.2.7,4.8-.5,8.1-4.5,16-8.2,23a91.6,91.6,0,0,1-15.6,21.5v.2a64.9,64.9,0,0,1-12.5,9.6c12.6-17.5,11.9-40.5,9.9-61.3-1.1-11.9-3-24.1-2.8-36.1a46,46,0,0,1,3.8-17.9c2.6-5.5,6.6-10.3,10.6-14.7,7.7-8.4,15.8-16.4,27.2-19.3s21.9-1.2,32.1,2.2,20.6,11.3,24.3,22.4,1.2,22.6.7,33.7c-.3,6-.1,12.1,1.7,17.8s4.1,9.5,6.7,13.9S244.4,194.4,246,199.4Z" transform="translate(-0.3 -0.2)"/><path class="j" d="M121,249a1.4,1.4,0,0,1-1-.5,1.2,1.2,0,0,1,.1-1.6h.2c17.5-20.1,14.2-48.9,11.3-74.4-.4-3.7-.8-7.2-1.2-10.7-1-10.8-1.7-23.2,3.6-34,3-5.9,7.3-10.9,10.7-14.7s8-8.7,12.8-12.4c8-6,18.5-9.2,29.8-8.9a57.7,57.7,0,0,1,30,9,35.9,35.9,0,0,1,16.3,25.5c.9,6.5.3,13.1-.2,19.5a97.2,97.2,0,0,0-.6,16.2c.6,8.8,4.6,15.8,8.7,23.2,1.2,2.2,2.5,4.4,3.6,6.7,4.9,9.5,5.3,18.2,1.2,26.5,0,.1,0,.1-.1.2a40.2,40.2,0,0,1-7.2,8.8c-2.7,2.7-5.5,5.6-7.3,9.1l-.2.4a1.3,1.3,0,0,1-1.2.7,1.8,1.8,0,0,1-1.2-1.3c-.9-7.8-4.5-14.8-8-21.6-.6-1.3-1.3-2.6-2-3.9a66.3,66.3,0,0,1-4.7-11.7,17.6,17.6,0,0,1-.7-5.9l-1.2,1.4L211,196a42.7,42.7,0,0,0-4.5,6.6c-.6,1.1-1.3,2.2-2,3.3l-1.5,2.2c-4.2,6.2-8.9,13.3-6.2,21v.2h0a1.1,1.1,0,0,1-.7,1.5,1.1,1.1,0,0,1-1.6-.5v-.2a143.5,143.5,0,0,1-11.3-38.9A76,76,0,0,1,161,232.1h-.2a1.1,1.1,0,0,1-1.5.2,1.3,1.3,0,0,1-.5-1.7h.1v-.2c4.4-10.5,4.1-21.5,3-32.1a92.2,92.2,0,0,1-6,14A96.2,96.2,0,0,1,139,236.3l-.2.2-.3.4h-.2a71.3,71.3,0,0,1-16.4,11.7H121ZM186.3,92.2c-10.5,0-20.6,3-28.4,8.8a114.5,114.5,0,0,0-12.7,12.3c-3.4,3.8-7.7,8.8-10.6,14.6-5.2,10.6-4.6,22.9-3.5,33.6.3,3.5.7,7,1.1,10.7,2.9,25.6,6.2,54.7-11.5,74.9h0a.1.1,0,0,0-.1.1.6.6,0,0,0-.1.8.7.7,0,0,0,.9.2h.1a74.5,74.5,0,0,0,16.4-11.7h.1l.3-.3h.3a97,97,0,0,0,16.7-23.8,74.6,74.6,0,0,0,6.4-15.4l.4-1.6.2,1.7c1.3,11,1.9,22.8-2.8,33.9,0,.1,0,.1-.1.2h0a.8.8,0,0,0,.2.9.8.8,0,0,0,.8-.1h.1A74.4,74.4,0,0,0,182.8,189l.4-2.2.3,2.2A138.8,138.8,0,0,0,195,229.8v.3c.2.4.7.2.7.2a.6.6,0,0,0,.4-.8h0v-.2c-2.8-8,2-15.2,6.3-21.6.5-.7,1-1.4,1.4-2.1l2.1-3.3a41.3,41.3,0,0,1,4.5-6.7L212,194c.6-.7,1.3-1.4,1.9-2.2l.7-.8-.2,1.1a16.7,16.7,0,0,0,.6,6.6,62.3,62.3,0,0,0,4.7,11.6l2,4c3.5,6.8,7.1,13.8,8,21.8a.7.7,0,0,0,.7.6c.2.1.4,0,.5-.3s.1-.3.2-.4c1.9-3.6,4.7-6.5,7.5-9.3s5.3-5.3,7.1-8.7h.1c3.9-8.1,3.5-16.6-1.3-26h0c-1.1-2.2-2.3-4.4-3.5-6.6-4.2-7.4-8.2-14.5-8.8-23.4a111.9,111.9,0,0,1,.5-16.4c.6-6.3,1.2-12.9.3-19.3a35,35,0,0,0-16.1-25A56,56,0,0,0,186.3,92.2Z" transform="translate(-0.3 -0.2)"/><path class="j" d="M123.6,245.6l.9-1.2c12.8-17.7,11.8-40.9,9.9-61.2-.3-3.2-.7-6.6-1-9.8-1-8.6-2-17.5-1.8-26.3a44.3,44.3,0,0,1,3.9-18,58,58,0,0,1,10.6-14.8c7.5-8.2,15.7-16.4,27.3-19.4,9.5-2.5,20.7-1.7,32.3,2.2s21.1,12.4,24.5,22.6c2.8,8.4,2,17.3,1.3,25.9-.2,2.6-.5,5.3-.6,8-.3,7.1.2,12.7,1.7,17.6s3.9,9.1,6.6,13.9l.8,1.3c2.4,4.1,4.9,8.3,6.3,12.9a23.8,23.8,0,0,1-1.6,17.9h0a41.8,41.8,0,0,1-7.3,8.9,48.5,48.5,0,0,0-6.3,7.2l-.4.7v-.8c-1.3-6.8-4.3-13-7.6-19.2l-.3-.7a104.6,104.6,0,0,1-5.3-11.2,55.3,55.3,0,0,1-1.7-5.7c-.6-2.9,0-5.4.8-8.1h.1a.7.7,0,0,0-.3-.7.8.8,0,0,0-.9.2.3.3,0,0,1-.1.2,36,36,0,0,1-4.3,5.2c-1.1,1.3-2.2,2.5-3.2,3.9a64.1,64.1,0,0,0-4,6.1,42.1,42.1,0,0,1-2.8,4.5c-3,4.6-6.3,9.9-6.9,15.5v1.3l-.5-1.2a142.4,142.4,0,0,1-9.8-46.9c0-.5-.4-.6-.7-.6a.5.5,0,0,0-.6.6,73.6,73.6,0,0,1-19.9,51.5l-.9,1,.4-1.3c3.8-11.9,2.6-23.9.8-37.2a22.8,22.8,0,0,0-.4-5.9.5.5,0,0,0-.4-.5h0a.9.9,0,0,0-.8.6v.2h-.1a.9.9,0,0,0-.3.5h0l.7,4.8c-.5,8.4-4.8,16.6-8.3,23.1a88.7,88.7,0,0,1-15.6,21.6v.2h0a67,67,0,0,1-12.6,9.7ZM184.9,94.1a44.3,44.3,0,0,0-11.3,1.4c-11.4,2.9-19.6,11.1-27,19.2A59.2,59.2,0,0,0,136,129.4a42.8,42.8,0,0,0-3.7,17.7c-.2,8.7.8,17.6,1.7,26.2.4,3.3.8,6.6,1.1,9.9,1.8,19.9,2.8,42.6-9.2,60.3a67.1,67.1,0,0,0,11.1-8.8l.2-.2A93.4,93.4,0,0,0,152.7,213c3.4-6.5,7.7-14.5,8.2-22.8l-.7-4.5h0v-.6a.9.9,0,0,1,.4-.8,1.4,1.4,0,0,1,1.4-1h0a1.2,1.2,0,0,1,1.1,1,28.8,28.8,0,0,1,.3,5.9c1.8,12.9,2.9,24.6-.4,36.1a73.2,73.2,0,0,0,18.8-50,1.3,1.3,0,1,1,2.5-.1,139.5,139.5,0,0,0,9.4,45.6c.8-5.3,3.9-10.3,6.8-14.5,1-1.5,1.9-3,2.8-4.6a58.1,58.1,0,0,1,4-6.1c1-1.4,2.2-2.6,3.3-3.9a51.7,51.7,0,0,0,4.2-5.1v-.2a1.4,1.4,0,0,1,1.7-.5,1.3,1.3,0,0,1,.6,1.5h-.1c-.7,2.6-1.4,5.1-.8,7.7a47.8,47.8,0,0,0,1.7,5.6,104.6,104.6,0,0,0,5.3,11.2l.3.7c3.1,6.1,6.1,12.1,7.4,18.6a62.8,62.8,0,0,1,5.9-6.7,37.5,37.5,0,0,0,7.2-8.7,23.8,23.8,0,0,0,1.6-17.5c-1.4-4.5-3.9-8.7-6.2-12.8l-.8-1.3a68.6,68.6,0,0,1-6.7-14c-1.5-4.9-2.1-10.6-1.7-17.9.1-2.6.3-5.3.6-7.9.7-8.6,1.5-17.4-1.3-25.7-3.4-10-12.2-18.1-24.1-22.2A66.7,66.7,0,0,0,184.9,94.1Z" transform="translate(-0.3 -0.2)"/><path d="M262.4,281.5v.4h0a1.1,1.1,0,0,1-1.1.9h-.1a1.4,1.4,0,0,1-1.3-.9h0v-.2h0a1.5,1.5,0,0,0-.1-.7h0c-1-15.2-8.2-29.3-15.1-42.9-1.4-2.8-2.9-5.6-4.2-8.4a1.2,1.2,0,0,1,.1-1.3.1.1,0,0,1,.1-.1,1.3,1.3,0,0,1,1.1-.5,1.1,1.1,0,0,1,.9.7l4.1,8.2c7,13.7,14.2,27.8,15.5,43v1.9Z" transform="translate(-0.3 -0.2)"/><path class="k" d="M244.7,238c6.9,13.6,14.1,27.7,15.1,42.9-4.1,0-8.3,0-12.4.2l-37.2.7a136.2,136.2,0,0,0-16.9.2l-5.2.2-50.9,1v-.8h.2l.2-.2v-.2a193.8,193.8,0,0,1,.1-25.3c.5-6.9,1.5-14.6,6.7-20.1a1.3,1.3,0,0,0-.1-1.8,1.2,1.2,0,0,0-1.7.1,1.2,1.2,0,0,0-.5.5h0a99.2,99.2,0,0,0,13.9-20.8,86.9,86.9,0,0,0,6-13.9c1.1,10.5,1.4,21.6-3,32.1h-.1a1.2,1.2,0,0,0,.5,1.6,1.1,1.1,0,0,0,1.5-.1h.2a75.6,75.6,0,0,0,22.1-40.9,143.5,143.5,0,0,0,11.3,38.9v.3a1.3,1.3,0,0,0,1.6.5,1.1,1.1,0,0,0,.7-1.5h0c-2.7-7.8,2-14.8,6.2-21.1l1.5-2.1,2-3.3a38.4,38.4,0,0,1,4.5-6.6l1.5-1.6,1.2-1.4a17.6,17.6,0,0,0,.7,5.9,62.3,62.3,0,0,0,4.7,11.6l2,4c3.5,6.8,7.1,13.8,8,21.6a1.5,1.5,0,0,0,1.2,1.2,1.1,1.1,0,0,0,1.2-.6c0-.2.1-.3.2-.5,1.8-3.5,4.6-6.3,7.3-9.1l1.4-1.4.3.3a.1.1,0,0,0-.1.1,1.2,1.2,0,0,0-.1,1.3C241.8,232.4,243.3,235.2,244.7,238Z" transform="translate(-0.3 -0.2)"/><path d="M144.2,234.7a1.3,1.3,0,0,1,.1,1.8c-5.2,5.5-6.2,13.2-6.7,20.1a193.8,193.8,0,0,0-.1,25.3v.2l-.2.2h-.2v-.2c-.1,0-.1-.1-.1-.2h-.1v-.2c-.7-3-2.2-21.1-1.5-28.3.6-5.7,1.9-12.8,6.7-18.2a1.2,1.2,0,0,1,.5-.5A1.2,1.2,0,0,1,144.2,234.7Z" transform="translate(-0.3 -0.2)"/><path class="l" d="M259.8,280.9a1.5,1.5,0,0,1,.1.7h0v.2h0a1.4,1.4,0,0,0,1.3.9h.1a1.1,1.1,0,0,0,1.1-.9h0v-2.3c-1.3-15.2-8.5-29.3-15.5-43l-4.1-8.2a1.1,1.1,0,0,0-.9-.7,1.3,1.3,0,0,0-1.1.5.1.1,0,0,0-.1.1,1.2,1.2,0,0,0-.1,1.3c1.3,2.8,2.8,5.6,4.2,8.4,6.9,13.6,14.1,27.7,15.1,42.9" transform="translate(-0.3 -0.2)"/><path class="l" d="M142,235.3c-4.8,5.4-6.1,12.5-6.7,18.2-.7,7.2.8,25.3,1.5,28.3v.2h.1c0,.1,0,.2.1.2v.2h.2l.2-.2v-.2a193.8,193.8,0,0,1,.1-25.3c.5-6.9,1.5-14.6,6.7-20.1a1.3,1.3,0,0,0-.1-1.8,1.2,1.2,0,0,0-1.7.1A1.2,1.2,0,0,0,142,235.3Z" transform="translate(-0.3 -0.2)"/><path class="l" d="M240.4,227.9a32.2,32.2,0,0,0,5.8-7.4h.1c4.1-8.4,3.7-17.1-1.2-26.6-1.1-2.2-2.4-4.5-3.6-6.6-4.1-7.4-8-14.4-8.7-23.2a98.8,98.8,0,0,1,.6-16.3c.5-6.4,1.1-13,.2-19.5a35.7,35.7,0,0,0-16.3-25.4,56.9,56.9,0,0,0-30-9.1c-11.3-.2-21.8,3-29.7,9-4.8,3.6-9.1,8.3-12.9,12.4A68.1,68.1,0,0,0,134,129.8c-5.3,10.7-4.6,23.1-3.6,34,.4,3.4.8,6.9,1.2,10.6,2.9,25.5,6.2,54.4-11.3,74.5h-.2a1.4,1.4,0,0,0-.1,1.7,1.4,1.4,0,0,0,1,.5l.7-.2h.2a71.8,71.8,0,0,0,16.4-11.8h.2l.3-.3.2-.2,3-3.2a99.2,99.2,0,0,0,13.9-20.8,86.9,86.9,0,0,0,6-13.9c1.1,10.5,1.4,21.6-3,32.1h-.1a1.2,1.2,0,0,0,.5,1.6,1.1,1.1,0,0,0,1.5-.1h.2a75.6,75.6,0,0,0,22.1-40.9,143.5,143.5,0,0,0,11.3,38.9v.3a1.3,1.3,0,0,0,1.6.5,1.1,1.1,0,0,0,.7-1.5h0c-2.7-7.8,2-14.8,6.2-21.1l1.5-2.1,2-3.3a38.4,38.4,0,0,1,4.5-6.6l1.5-1.6,1.2-1.4a17.6,17.6,0,0,0,.7,5.9,62.3,62.3,0,0,0,4.7,11.6l2,4c3.5,6.8,7.1,13.8,8,21.6a1.5,1.5,0,0,0,1.2,1.2,1.1,1.1,0,0,0,1.2-.6c0-.2.1-.3.2-.5,1.8-3.5,4.6-6.3,7.3-9.1Z" transform="translate(-0.3 -0.2)"/><path class="l" d="M210.2,281.8a136.2,136.2,0,0,0-16.9.2l-5.2.2Z" transform="translate(-0.3 -0.2)"/><path class="l" d="M188.1,282.2l-50.9,1h-.9C153.6,283.4,170.9,283,188.1,282.2Z" transform="translate(-0.3 -0.2)"/><path class="l" d="M259.8,280.9c-4.1,0-8.3,0-12.4.2l12.4-.2" transform="translate(-0.3 -0.2)"/><path class="l" d="M259.8,280.9Z" transform="translate(-0.3 -0.2)"/><path class="l" d="M210.2,281.8l1.9.2c3.4.4,6.7,1.1,10.1,1.2a79.7,79.7,0,0,0,11.8-1.1c4.4-.5,8.9-.8,13.4-1Z" transform="translate(-0.3 -0.2)"/><path class="m" d="M108.6,127.7c2.8-9.4-.7-22.8,6.7-30.4,5-5.2,11.6-3.6,14.8,2.6s5.1,11,7.7,16.6c.8,1.7,3.4.2,2.6-1.6-4.1-8.8-9-28.5-22.6-22.8S109,116,105.7,126.9c-.6,1.8,2.3,2.6,2.9.8Z" transform="translate(-0.3 -0.2)"/><path class="m" d="M113.2,126.2a76.1,76.1,0,0,0-11.6,21.3c-.7,1.8,2.2,2.6,2.9.8a71.4,71.4,0,0,1,11.3-20.6c1.1-1.5-1.5-3-2.6-1.5Z" transform="translate(-0.3 -0.2)"/></svg>