<svg xmlns="http://www.w3.org/2000/svg" viewBox="0 0 353.3 78"><defs><style>.a{fill:#040046;}.b{fill:#fff;stroke:#333;stroke-miterlimit:10;stroke-width:2px;}</style></defs><title>Selfie_the_Game_logo_klein</title><path class="a" d="M37,12.1l-3.8,19c-2.6-5.9-5.5-8.8-8.8-8.8-1.8,0-2.7,1.2-2.7,3.5a3.7,3.7,0,0,0,.9,2.3,21.8,21.8,0,0,0,4.5,3.6,40.6,40.6,0,0,1,6.2,4.9,14.4,14.4,0,0,1,3.2,5.7,24.8,24.8,0,0,1,1.1,8.1c0,6.5-1.4,11.4-4.3,14.8s-7,5-12.5,5A28.2,28.2,0,0,1,4.7,65.7L8.5,45.6a21.2,21.2,0,0,0,4.1,7c1.6,1.7,3.2,2.6,4.7,2.6a2.3,2.3,0,0,0,1.9-1,3.8,3.8,0,0,0,.7-2.4,5.1,5.1,0,0,0-.7-2.6,17.2,17.2,0,0,0-3.8-3.4,27.5,27.5,0,0,1-4.7-3.7,15.5,15.5,0,0,1-3.2-5.3,22.9,22.9,0,0,1-1.4-8.5c0-6.7,1.5-11.7,4.3-15.1s7-5.1,12.6-5.1A25.9,25.9,0,0,1,37,12.1Z"/><path class="a" d="M69.6,51.1v8.4C66.5,66.5,62,70,56.2,70s-8.7-2.3-11.6-6.9-4.4-10.7-4.4-18.2,1.3-12.9,4-17.4,6.2-6.8,10.5-6.8a11.2,11.2,0,0,1,6.1,1.9,16.9,16.9,0,0,1,4.9,5.6,32.6,32.6,0,0,1,3,8.5,67.1,67.1,0,0,1,.9,11.9H55.1a11.7,11.7,0,0,0,2.6,5.6,5.7,5.7,0,0,0,4.2,2.1C65.1,56.3,67.7,54.6,69.6,51.1ZM54.3,40.2H61a13.3,13.3,0,0,0-1.1-5.5c-.6-1.3-1.4-2-2.4-2s-1.6.6-2.3,1.9A13.9,13.9,0,0,0,54.3,40.2Z"/><path class="a" d="M88.3,69.2H74.1V9H88.3Z"/><path class="a" d="M117.4,36.1v10h-8.1V69.2H95.1V46.1H92v-10h3.1c0-8.8,1.3-15.7,4-20.6s6.5-7.4,11.2-7.4a18.5,18.5,0,0,1,7.1,1.8V33.8c-1.4-2.9-2.9-4.3-4.5-4.3a2.9,2.9,0,0,0-2.6,1.8,9.5,9.5,0,0,0-1,4.8Z"/><path class="a" d="M134.5,21.7V69.2H120.3V21.7a10.2,10.2,0,0,0,7.3,2.8A9.4,9.4,0,0,0,134.5,21.7Zm-4.1.2c-1.1,0-2-.7-2.8-2.1a9.4,9.4,0,0,1-1.2-4.9,9.2,9.2,0,0,1,1.2-4.8c.8-1.4,1.7-2,2.8-2a3.3,3.3,0,0,1,2.9,2,10.3,10.3,0,0,1,1.1,4.8,10.4,10.4,0,0,1-1.1,4.9A3.5,3.5,0,0,1,130.4,21.9Z"/><path class="a" d="M168.4,51.1v8.4Q163.8,70,154.9,70c-4.8,0-8.7-2.3-11.6-6.9s-4.4-10.7-4.4-18.2S140.3,32,143,27.5s6.1-6.8,10.4-6.8a11,11,0,0,1,6.1,1.9,16.9,16.9,0,0,1,4.9,5.6,26.7,26.7,0,0,1,3,8.5,66.1,66.1,0,0,1,1,11.9H153.8a11.8,11.8,0,0,0,2.7,5.6,5.4,5.4,0,0,0,4.2,2.1C163.9,56.3,166.4,54.6,168.4,51.1ZM153,40.2h6.7a15.4,15.4,0,0,0-1-5.5c-.7-1.3-1.5-2-2.5-2s-1.6.6-2.2,1.9A12.2,12.2,0,0,0,153,40.2Z"/><path class="b" d="M33.4,13.2l-3.8,19c-2.6-5.9-5.5-8.8-8.8-8.8-1.8,0-2.7,1.2-2.7,3.5a3.7,3.7,0,0,0,.9,2.3c.5.8,2.1,2,4.5,3.6a40.6,40.6,0,0,1,6.2,4.9A15.9,15.9,0,0,1,33,43.4a28.5,28.5,0,0,1,1,8.1c0,6.5-1.4,11.4-4.2,14.8s-7.1,5-12.6,5A28.4,28.4,0,0,1,1.1,66.8L4.9,46.7a21.2,21.2,0,0,0,4.1,7c1.6,1.7,3.2,2.6,4.7,2.6a2.2,2.2,0,0,0,1.9-1,3.6,3.6,0,0,0,.7-2.4,5.1,5.1,0,0,0-.7-2.6,17.2,17.2,0,0,0-3.8-3.4,27.5,27.5,0,0,1-4.7-3.7A16,16,0,0,1,3.9,38a24,24,0,0,1-1.3-8.6c0-6.7,1.4-11.7,4.2-15.1s7-5.1,12.6-5.1A25.9,25.9,0,0,1,33.4,13.2Z"/><path class="b" d="M66,52.2v8.4c-3.1,7-7.6,10.5-13.4,10.5S43.9,68.8,41,64.2,36.6,53.5,36.6,46s1.3-12.9,4-17.4,6.2-6.7,10.5-6.7a11.1,11.1,0,0,1,6.1,1.8,16.9,16.9,0,0,1,4.9,5.6,34,34,0,0,1,3,8.5A67.1,67.1,0,0,1,66,49.7H51.5a12.6,12.6,0,0,0,2.6,5.7,6,6,0,0,0,4.3,2C61.5,57.4,64.1,55.7,66,52.2ZM50.7,41.3h6.7a13.3,13.3,0,0,0-1.1-5.5c-.6-1.3-1.4-2-2.4-2s-1.6.6-2.3,1.9A13.9,13.9,0,0,0,50.7,41.3Z"/><path class="b" d="M84.7,70.3H70.5V10.1H84.7Z"/><path class="b" d="M113.8,37.2v10h-8.1V70.3H91.5V47.2H88.4v-10h3.1c0-8.8,1.3-15.7,4-20.6s6.5-7.4,11.2-7.4a18.1,18.1,0,0,1,7.1,1.8V34.9c-1.4-2.9-2.9-4.3-4.5-4.3a2.9,2.9,0,0,0-2.6,1.8,9.5,9.5,0,0,0-1,4.8Z"/><path class="b" d="M139.2,22.8V70.3H116.7V22.8c10.2,1.9,12.6,2.8,15.6,2.8A9,9,0,0,0,139.2,22.8Zm-4.1.2c-1.1,0-2-.7-2.8-2.1a9.2,9.2,0,0,1-1.2-4.8,9.4,9.4,0,0,1,1.2-4.9c.8-1.3,1.7-2,2.8-2a3.5,3.5,0,0,1,2.9,2,10.4,10.4,0,0,1,1.1,4.9,10.3,10.3,0,0,1-1.1,4.8A3.5,3.5,0,0,1,135.1,23Z"/><path class="b" d="M164.8,52.2v8.4q-4.7,10.5-13.5,10.5c-4.8,0-8.7-2.3-11.6-6.9s-4.4-10.7-4.4-18.2,1.4-12.9,4.1-17.4,6.1-6.7,10.4-6.7a10.9,10.9,0,0,1,6.1,1.8,16.9,16.9,0,0,1,4.9,5.6,27.6,27.6,0,0,1,3,8.5,58.1,58.1,0,0,1,1,11.9H150.3a11.6,11.6,0,0,0,2.6,5.7,5.6,5.6,0,0,0,4.2,2C160.3,57.4,162.8,55.7,164.8,52.2ZM149.4,41.3h6.7a15.4,15.4,0,0,0-1-5.5,2.9,2.9,0,0,0-2.5-2c-.8,0-1.6.6-2.2,1.9A12.2,12.2,0,0,0,149.4,41.3Z"/><path class="a" d="M224.1,15.2V52.4c0,8.2-1.2,14.1-3.6,17.9s-6.2,5.6-11.2,5.6c-6.6,0-12.1-2.2-16.4-6.8V47.5c3.3,5.6,7.1,8.5,11.3,8.5s5.7-2.1,5.7-6.1V48.6a7.9,7.9,0,0,1-5.9,2.6,9.2,9.2,0,0,1-8.2-4.9c-2-3.3-3-7.6-3-13.1a28.6,28.6,0,0,1,1.3-9.3,12.7,12.7,0,0,1,3-5.6,9.7,9.7,0,0,1,3.9-2.5,29.2,29.2,0,0,1,7.1-.6ZM209.9,28.5h-.4c-3.1,0-4.7,2-4.7,6a8.7,8.7,0,0,0,.8,3.9,2.7,2.7,0,0,0,2.3,1.4,2.3,2.3,0,0,0,2-1Z"/><path class="a" d="M229.5,34.6V20.3a19.7,19.7,0,0,1,13.7-5.6c4.8,0,8.4,1.8,10.7,5.3s3.5,9,3.5,16.3V62.6H243.1V59.1Q240,63,236.2,63c-2.1,0-3.9-1.2-5.3-3.5a17.5,17.5,0,0,1-2.1-8.9,17.9,17.9,0,0,1,2.6-10,8,8,0,0,1,6.9-3.8,10.2,10.2,0,0,1,4.8,1.1,8.7,8.7,0,0,0-1.4-5.2,5.2,5.2,0,0,0-4.2-1.9C234.9,30.8,232.2,32.1,229.5,34.6Zm13.6,17.5V45.5a4.6,4.6,0,0,0-2.3-.8,2.6,2.6,0,0,0-2.1,1.2,5.1,5.1,0,0,0-.7,3,5.5,5.5,0,0,0,.8,3.2,2.5,2.5,0,0,0,2.1,1.3A2.5,2.5,0,0,0,243.1,52.1Z"/><path class="a" d="M276.7,15.1v6c2.3-4.3,5.2-6.4,8.6-6.4s7,2.7,8.9,8.2a22.2,22.2,0,0,1,4.8-6.2,8.1,8.1,0,0,1,5.3-2c3,0,5.4,1.6,7.1,4.7s2.7,7.6,2.7,13.4V62.6H300.6V34.2a8.2,8.2,0,0,0-.7-3.9,2.2,2.2,0,0,0-1.9-1.4,3.4,3.4,0,0,0-2.6,1.5V62.6H282V34.2a8.7,8.7,0,0,0-.8-3.9,2.1,2.1,0,0,0-1.9-1.4,3.6,3.6,0,0,0-2.6,1.6V62.6H262.5V15.1Z"/><path class="a" d="M347.6,44.5v8.3Q343,63.3,334.1,63.3c-4.8,0-8.7-2.3-11.6-6.9s-4.4-10.6-4.4-18.1,1.4-12.9,4.1-17.4,6.1-6.8,10.4-6.8a10.3,10.3,0,0,1,6.1,1.9,16,16,0,0,1,4.9,5.6,26.7,26.7,0,0,1,3,8.5,57.1,57.1,0,0,1,1,11.8H333.1a12.6,12.6,0,0,0,2.6,5.7,5.4,5.4,0,0,0,4.2,2.1C343.1,49.7,345.6,47.9,347.6,44.5ZM332.2,33.6h6.7a15,15,0,0,0-1-5.5,2.8,2.8,0,0,0-2.5-2c-.8,0-1.6.6-2.2,1.9A11.9,11.9,0,0,0,332.2,33.6Z"/><path class="b" d="M228.8,16.3V53.5c0,8.2-1.2,14.1-3.6,17.9S219,77,214,77c-6.6,0-12.1-2.2-16.4-6.8V48.6c3.3,5.7,7.1,8.5,11.3,8.5s5.7-2,5.7-6.1V49.7a7.5,7.5,0,0,1-5.9,2.6,9.2,9.2,0,0,1-8.2-4.9c-2-3.2-3-7.6-3-13.1a28.6,28.6,0,0,1,1.3-9.3,12.7,12.7,0,0,1,3-5.6,9.7,9.7,0,0,1,3.9-2.5,29.2,29.2,0,0,1,7.1-.6ZM214.6,29.6h-.4c-3.1,0-4.7,2-4.7,6a8.7,8.7,0,0,0,.8,3.9,2.7,2.7,0,0,0,2.3,1.4,2.3,2.3,0,0,0,2-1Z"/><path class="b" d="M234.2,35.7V21.4a19.7,19.7,0,0,1,13.7-5.6c4.8,0,8.4,1.8,10.7,5.3s3.5,9,3.5,16.3V63.7H247.8V60.2q-3.2,3.9-6.9,3.9c-2.1,0-3.9-1.2-5.3-3.5a17.2,17.2,0,0,1-2.1-8.9,17.9,17.9,0,0,1,2.6-10,8,8,0,0,1,6.9-3.8,10.2,10.2,0,0,1,4.8,1.1,8.7,8.7,0,0,0-1.4-5.2,5.2,5.2,0,0,0-4.2-1.9C239.6,31.9,236.9,33.2,234.2,35.7Zm13.6,17.5V46.6a4.6,4.6,0,0,0-2.3-.8,2.6,2.6,0,0,0-2.1,1.2,5.1,5.1,0,0,0-.7,3,5.5,5.5,0,0,0,.8,3.2,2.5,2.5,0,0,0,2.1,1.3A2.5,2.5,0,0,0,247.8,53.2Z"/><path class="b" d="M281.4,16.2v6c2.3-4.3,5.2-6.4,8.6-6.4s7,2.7,8.9,8.2a22.2,22.2,0,0,1,4.8-6.2,8.1,8.1,0,0,1,5.3-2c3,0,5.4,1.6,7.2,4.7s2.6,7.6,2.6,13.4V63.7H305.3V35.3a8.5,8.5,0,0,0-.7-3.9,2.2,2.2,0,0,0-1.9-1.4,3.3,3.3,0,0,0-2.6,1.6V63.7H286.7V35.3a10.5,10.5,0,0,0-.7-3.9,2.3,2.3,0,0,0-2-1.4,4,4,0,0,0-2.6,1.6V63.7H267.2V16.2Z"/><path class="b" d="M352.3,45.6v8.3q-4.7,10.5-13.5,10.5c-4.8,0-8.7-2.3-11.6-6.9s-4.4-10.6-4.4-18.1,1.4-12.9,4.1-17.4,6.1-6.8,10.4-6.8a10.3,10.3,0,0,1,6.1,1.9,16,16,0,0,1,4.9,5.6,26.7,26.7,0,0,1,3,8.5,57.1,57.1,0,0,1,1,11.8H337.8a12.1,12.1,0,0,0,2.6,5.7,5.4,5.4,0,0,0,4.2,2.1C347.8,50.8,350.3,49,352.3,45.6ZM336.9,34.7h6.7a15,15,0,0,0-1-5.5c-.6-1.4-1.5-2-2.4-2s-1.7.6-2.3,1.9A11.9,11.9,0,0,0,336.9,34.7Z"/><path class="a" d="M178.9,22.1l-2.1-6.9,13.8-4.3,2.1,6.9-3.5,1.1,2.7,8.6-6.8,2.2L182.4,21Z"/><path class="a" d="M204.1,23.7l-6.9,2.2-4.8-15.5,6.9-2.2,1.7,5.7,3.6-1.1-1.8-5.7L209.7,5l4.8,15.5-6.9,2.2-1.8-5.8L202.3,18Z"/><path class="a" d="M229.2,11.6l1.2,3.9-12.9,4.1L212.7,4l12.9-4,1.2,3.9-6,1.9.6,1.9,4.2-1.3,1.2,3.9-4.2,1.3.6,1.9Z"/></svg>