<svg xmlns="http://www.w3.org/2000/svg" viewBox="0 0 473.1 460"><defs><style>.a{fill:#86ffcb;}.b,.h{fill:#fff;}.c{fill:#b3b3b3;}.d{fill:#666;}.e{fill:#fff671;}.f,.g,.i,.l{fill:none;}.f,.g,.h,.j,.l{stroke:#000;}.f,.g,.h,.i,.j{stroke-miterlimit:10;}.g{stroke-width:1.5px;}.h{stroke-width:0.92px;}.i{stroke:#fff;}.j{fill:#ead9be;}.k{fill:#160078;}.l{stroke-linecap:round;stroke-linejoin:round;stroke-width:0;}.m{fill:#ccc;}</style></defs><title>selfie_tekening</title><path d="M470.4,135.1V131a4.1,4.1,0,0,1,3,4.1h0a4.1,4.1,0,0,1-3.2,4.1c.1-1.4.1-2.7.2-4.1Z" transform="translate(-0.3 -0.2)"/><path d="M470.4,135.1a4,4,0,0,0-1.5-3.3v-1l1.5.2Z" transform="translate(-0.3 -0.2)"/><path d="M470.4,135.2a4.8,4.8,0,0,1-1.6,3.4c0-1.2,0-2.3.1-3.4v-3.4a4,4,0,0,1,1.5,3.3Z" transform="translate(-0.3 -0.2)"/><path d="M470.4,135.2c-.1,1.4-.1,2.7-.2,4.1a3.9,3.9,0,0,1-1.5.2c0-.3.1-.6.1-.9A4.8,4.8,0,0,0,470.4,135.2Z" transform="translate(-0.3 -0.2)"/><path d="M468.9,130.8v1a3.7,3.7,0,0,0-1.4-.7A5.8,5.8,0,0,1,468.9,130.8Z" transform="translate(-0.3 -0.2)"/><path d="M465.9,135.2v-3.3a3.5,3.5,0,0,1,1.6-.8,3.7,3.7,0,0,1,1.4.7v3.4c-.1,1.1-.1,2.2-.1,3.4l-1.5.7a3.6,3.6,0,0,1-1.5-.8C465.8,137.4,465.8,136.3,465.9,135.2Z" transform="translate(-0.3 -0.2)"/><path d="M468.8,138.6c0,.3-.1.6-.1.9l-1.4-.2Z" transform="translate(-0.3 -0.2)"/><path d="M467.8,268.5c0-1.3-.1-2.6-.2-3.9l.3-.2C467.9,265.8,467.8,267.1,467.8,268.5Z" transform="translate(-0.3 -0.2)"/><path d="M467.8,268.5a3.7,3.7,0,0,1-.1,1.1c-.1-.4-.3-.8-.4-1.1Z" transform="translate(-0.3 -0.2)"/><path d="M466.9,267.9v-2.8a1.8,1.8,0,0,0,.7-.5c.1,1.3.2,2.6.2,3.9h-.5A2.1,2.1,0,0,0,466.9,267.9Z" transform="translate(-0.3 -0.2)"/><path d="M467.1,259.1a4.1,4.1,0,0,1,.8,2.5v2.8l-.3.2C467.5,262.8,467.3,260.9,467.1,259.1Z" transform="translate(-0.3 -0.2)"/><path d="M467.3,268.5h-.4v-.6A2.1,2.1,0,0,1,467.3,268.5Z" transform="translate(-0.3 -0.2)"/><path d="M467.7,269.6a4.6,4.6,0,0,1-.9,1.7,26.2,26.2,0,0,0,.1-2.8h.4C467.4,268.8,467.6,269.2,467.7,269.6Z" transform="translate(-0.3 -0.2)"/><path d="M466.9,265.1c.1-2,.1-4.1,0-6.2.1.1.2.1.2.2.2,1.8.4,3.7.5,5.5A1.8,1.8,0,0,1,466.9,265.1Z" transform="translate(-0.3 -0.2)"/><path d="M467.1,259.1c0-.1-.1-.1-.2-.2v-1.6C467,257.9,467,258.5,467.1,259.1Z" transform="translate(-0.3 -0.2)"/><path d="M466,243h1a44.3,44.3,0,0,0-.6,5.1C466.3,246.4,466.2,244.7,466,243Z" transform="translate(-0.3 -0.2)"/><path d="M465.7,265.7c-.1-1.3-.7-3.5-.9-4.6a1.4,1.4,0,0,0,.3-1.3l-.3-2.3a3.8,3.8,0,0,1,2.1,1.4c.1,2.1.1,4.2,0,6.2A3.4,3.4,0,0,1,465.7,265.7Z" transform="translate(-0.3 -0.2)"/><path d="M465.4,238.1a3.7,3.7,0,0,1,1.6,2.5l1.8,13.2c.5,3.5,1.5,8.1-.9,10.6v-2.8a4.1,4.1,0,0,0-.8-2.5c-.1-.6-.1-1.2-.2-1.8-.1-3.1-.2-6.2-.5-9.2a44.3,44.3,0,0,1,.6-5.1h-1C465.8,241.4,465.7,239.8,465.4,238.1Z" transform="translate(-0.3 -0.2)"/><path d="M466.9,257.3a71.9,71.9,0,0,1-.5-9.2C466.7,251.1,466.8,254.2,466.9,257.3Z" transform="translate(-0.3 -0.2)"/><path d="M467.3,139.3a4.1,4.1,0,0,1-1.6.2c0-.3.1-.7.1-1A3.6,3.6,0,0,0,467.3,139.3Z" transform="translate(-0.3 -0.2)"/><path d="M467.5,131.1a3.5,3.5,0,0,0-1.6.8v-1.1A4.5,4.5,0,0,1,467.5,131.1Z" transform="translate(-0.3 -0.2)"/><path d="M463.4,247.4a31.1,31.1,0,0,1,.6-4.4h2c.2,1.7.3,3.4.4,5.1a71.9,71.9,0,0,0,.5,9.2v1.6a3.8,3.8,0,0,0-2.1-1.4Z" transform="translate(-0.3 -0.2)"/><path d="M464,243c.3-1.7.7-3.4,1.1-5.1l.3.2c.3,1.7.4,3.3.6,4.9Z" transform="translate(-0.3 -0.2)"/><path d="M465.6,266.7c.2.1.2-.3.1-1a3.4,3.4,0,0,0,1.2-.6v2.8A3.7,3.7,0,0,0,465.6,266.7Z" transform="translate(-0.3 -0.2)"/><path d="M464.4,135.2a4,4,0,0,1,1.5-3.3v3.3c-.1,1.1-.1,2.2-.1,3.3a3.9,3.9,0,0,1-1.4-3.2Z" transform="translate(-0.3 -0.2)"/><path d="M465.3,237l-.6-3.8a88.9,88.9,0,0,0,3.1-21.8c.1-12.6-1.6-25.1-1.3-37.7s1.7-22.8,2.2-34.2a3.9,3.9,0,0,0,1.5-.2c-.5,10.8-1.7,21.6-2.1,32.4s.8,22.7,1.1,34-1.4,20.9-3.9,31.3Z" transform="translate(-0.3 -0.2)"/><path d="M465.3,237a4.5,4.5,0,0,1,.1,1.1l-.3-.2Z" transform="translate(-0.3 -0.2)"/><path d="M464.2,139.3c.1-1.4.1-2.7.2-4a3.9,3.9,0,0,0,1.4,3.2c0,.3-.1.7-.1,1Z" transform="translate(-0.3 -0.2)"/><path d="M461,235.8l.2-.9c2-8.5,3.6-16.4,3.6-25.3-.1-12.3-1.7-24.5-1.2-36.9s1.6-22.1,2.1-33.2a4.1,4.1,0,0,0,1.6-.2l1.4.2c-.5,11.4-1.8,22.8-2.2,34.2s1.4,25.1,1.3,37.7a88.9,88.9,0,0,1-3.1,21.8l.6,3.8-.2.9a5.2,5.2,0,0,0-4.4-.1.6.6,0,0,1-.1-.4,1.9,1.9,0,0,1,.2-.7A.9.9,0,0,1,461,235.8Z" transform="translate(-0.3 -0.2)"/><path d="M464.4,135.2v-4.1l1.5-.3v1.1A4,4,0,0,0,464.4,135.2Z" transform="translate(-0.3 -0.2)"/><path d="M464.7,260.6c-.3-1.1-.5-2.2-.7-3.3l.8.2.3,2.3a1.4,1.4,0,0,1-.3,1.3A1.1,1.1,0,0,1,464.7,260.6Z" transform="translate(-0.3 -0.2)"/><path d="M461.4,135.2a4.2,4.2,0,0,1,3-4.1v4.1h0c-.1,1.3-.1,2.6-.2,4a4,4,0,0,1-2.8-4Z" transform="translate(-0.3 -0.2)"/><path d="M463.3,268.5c0-.8.1-1.7.1-2.5a2.4,2.4,0,0,0,1.2,0l1.1-.3c.1.7.1,1.1-.1,1a3.7,3.7,0,0,1,1.3,1.2v.6Z" transform="translate(-0.3 -0.2)"/><path d="M464,257.3c-.3-1.7-.5-3.4-.7-5.1a38.5,38.5,0,0,1,.1-4.8l1.4,10.1Z" transform="translate(-0.3 -0.2)"/><path d="M463.4,266v-4.4a1.6,1.6,0,0,0,1.4-.5c.2,1.1.8,3.3.9,4.6l-1.1.3A2.4,2.4,0,0,1,463.4,266Z" transform="translate(-0.3 -0.2)"/><path d="M463.4,247.4l-.6-4.4H464A31.1,31.1,0,0,0,463.4,247.4Z" transform="translate(-0.3 -0.2)"/><path d="M463.4,266c0,.8-.1,1.7-.1,2.5V266Z" transform="translate(-0.3 -0.2)"/><path d="M463.3,266c-.1-1.8-.1-3.6-.2-5.5l-.6-3.1H464c.2,1.1.4,2.2.7,3.3a1.1,1.1,0,0,0,.1.5,1.6,1.6,0,0,1-1.4.5V266Z" transform="translate(-0.3 -0.2)"/><path d="M462.4,270v-1.5h4.5a26.2,26.2,0,0,1-.1,2.8,4.1,4.1,0,0,1-3.6,1.5,15.5,15.5,0,0,0,.1-2.2A1,1,0,0,1,462.4,270Z" transform="translate(-0.3 -0.2)"/><path d="M462.4,268.5v-2.6h.9v2.5Z" transform="translate(-0.3 -0.2)"/><path d="M462.4,256.9c-.1-3.3-.3-6.5-.5-9.8a4.1,4.1,0,0,1,.1-1.1c.1-1,.2-2,.4-3h.4l.6,4.4a38.5,38.5,0,0,0-.1,4.8c.2,1.7.4,3.4.7,5.1h-1.5A1.1,1.1,0,0,1,462.4,256.9Z" transform="translate(-0.3 -0.2)"/><path d="M462.6,241.8l.2,1.2h-.4A5,5,0,0,0,462.6,241.8Z" transform="translate(-0.3 -0.2)"/><path d="M460.7,237.8a5.2,5.2,0,0,1,4.4.1c-.4,1.7-.8,3.4-1.1,5.1h-1.2l-.2-1.2a5,5,0,0,1-.2,1.2h-.9C461.3,241.2,460.9,239.5,460.7,237.8Z" transform="translate(-0.3 -0.2)"/><path d="M462.4,265.6c.1-2.8.1-5.5,0-8.2h.1l.6,3.1c.1,1.9.1,3.7.2,5.5h-.9Z" transform="translate(-0.3 -0.2)"/><path d="M462.4,256.9a1.1,1.1,0,0,0,.1.5h-.1Z" transform="translate(-0.3 -0.2)"/><path d="M461.9,268.5c-.2-1.1-.5-2.2-.7-3.2a4.5,4.5,0,0,0,1.2.6v2.6Z" transform="translate(-0.3 -0.2)"/><path d="M461.2,265.3c-.6-2.1-1.1-4.2-1.5-6.4a3.1,3.1,0,0,1,.9-.7,21.7,21.7,0,0,1-.1,2.6l1.3-3.1.2-.2h.4c.1,2.7.1,5.4,0,8.2v.3A4.5,4.5,0,0,1,461.2,265.3Z" transform="translate(-0.3 -0.2)"/><path d="M462.4,268.5V270l-.2-.4-.3-1.1Z" transform="translate(-0.3 -0.2)"/><path d="M463.3,270.6a15.5,15.5,0,0,1-.1,2.2h-.9a24.4,24.4,0,0,1,.1-2.7A1,1,0,0,0,463.3,270.6Z" transform="translate(-0.3 -0.2)"/><path d="M461.9,247.1c-.1-1.4-.3-2.7-.4-4.1h.9c-.2,1-.3,2-.4,3A4.1,4.1,0,0,0,461.9,247.1Z" transform="translate(-0.3 -0.2)"/><path d="M462.4,256.9a37,37,0,0,1-.6-7.4,19.3,19.3,0,0,1,.1-2.4C462.1,250.4,462.3,253.6,462.4,256.9Z" transform="translate(-0.3 -0.2)"/><path d="M458.8,268.5h3.1l.3,1.1.2.4a24.4,24.4,0,0,0-.1,2.7,4.4,4.4,0,0,1-2.9-1.9A5.2,5.2,0,0,1,458.8,268.5Z" transform="translate(-0.3 -0.2)"/><path d="M460.5,257.9a77.4,77.4,0,0,0-1.6-11.2c.1-1.2.3-2.5.5-3.7h2.1c.1,1.4.3,2.7.4,4.1a19.3,19.3,0,0,0-.1,2.4,37,37,0,0,0,.6,7.4v.5H462c0-.1.1-.1.2-.2A4.3,4.3,0,0,0,460.5,257.9Z" transform="translate(-0.3 -0.2)"/><path d="M461.5,242.9h-2.1c.3-1.7.7-3.4,1.1-5.1h.2C460.9,239.5,461.3,241.2,461.5,242.9Z" transform="translate(-0.3 -0.2)"/><path d="M462,257.5a2.7,2.7,0,0,0-1.4.7.4.4,0,0,0-.1-.3,4.3,4.3,0,0,1,1.7-.6C462.1,257.4,462,257.4,462,257.5Z" transform="translate(-0.3 -0.2)"/><path d="M460.6,237.4a31.3,31.3,0,0,1-.4-4.2c.1-3.4,1.6-6.9,2.1-10.2,2.4-14.4-.1-29.1-.3-43.6s1.6-26.8,2.2-40.1l1.5.2c-.5,11.1-1.8,22.1-2.1,33.2s1.1,24.6,1.2,36.9c0,8.9-1.6,16.8-3.6,25.3l-.2.9a.9.9,0,0,0-.2.9A1.9,1.9,0,0,0,460.6,237.4Z" transform="translate(-0.3 -0.2)"/><path d="M460.6,237.4a.6.6,0,0,0,.1.4h-.2Z" transform="translate(-0.3 -0.2)"/><path d="M460.5,257.9a.4.4,0,0,1,.1.3,3.1,3.1,0,0,0-.9.7v-.2A3,3,0,0,1,460.5,257.9Z" transform="translate(-0.3 -0.2)"/><path d="M460.5,260.8a21.7,21.7,0,0,0,.1-2.6,2.7,2.7,0,0,1,1.4-.7l-.2.2Z" transform="translate(-0.3 -0.2)"/><path d="M461,274.5a5.5,5.5,0,0,1-2.3-2,11.5,11.5,0,0,0,.1-1.9c.1.2.1.3.2.4S460.4,273.3,461,274.5Z" transform="translate(-0.3 -0.2)"/><path d="M458.9,260.9a4.4,4.4,0,0,1,.8-2c.4,2.2.9,4.3,1.5,6.4a5.2,5.2,0,0,1-2.3-4.3Z" transform="translate(-0.3 -0.2)"/><path d="M458.8,250.4a23.2,23.2,0,0,1,.1-3.7,77.4,77.4,0,0,1,1.6,11.2,3,3,0,0,0-.8.8A46.8,46.8,0,0,1,458.8,250.4Z" transform="translate(-0.3 -0.2)"/><path d="M458.9,246.7l-.6-3.7h1.1C459.2,244.2,459,245.5,458.9,246.7Z" transform="translate(-0.3 -0.2)"/><path d="M458.9,260.9a3.5,3.5,0,0,1,.8-2.2v.2A4.4,4.4,0,0,0,458.9,260.9Z" transform="translate(-0.3 -0.2)"/><path d="M458.8,268.5c.1-2.3.1-4.6.1-6.9V261a5.2,5.2,0,0,0,2.3,4.3c.2,1,.5,2.1.7,3.2Z" transform="translate(-0.3 -0.2)"/><path d="M458.8,268.5c-.1-9.6-2.3-18.4-.5-27.9a3.6,3.6,0,0,1,2.2-2.7c-.4,1.7-.8,3.4-1.1,5.1h-1.1l.6,3.7a23.2,23.2,0,0,0-.1,3.7,46.8,46.8,0,0,0,.9,8.3,3.5,3.5,0,0,0-.8,2.2h0v.6C458.9,263.9,458.9,266.2,458.8,268.5Z" transform="translate(-0.3 -0.2)"/><path d="M458.7,272.5c-1.9-2.8-2.3-7.4-2.9-10.3a51.2,51.2,0,0,1-1.2-17c1.3-11,5.3-21.5,5.6-32.8s-1.4-25.1-1.2-37.7,2-26.3,2.4-39.4a4,4,0,0,0,2.8,4c-.6,13.3-2.4,26.7-2.2,40.1s2.7,29.2.3,43.6c-.5,3.3-2,6.8-2.1,10.2a31.3,31.3,0,0,0,.4,4.2v.5a3.6,3.6,0,0,0-2.2,2.7c-1.8,9.5.4,18.3.5,27.9a5.2,5.2,0,0,0,.6,2.3l-.4.2c-.1-.1-.1-.2-.2-.4A11.5,11.5,0,0,1,458.7,272.5Z" transform="translate(-0.3 -0.2)"/><path d="M459.5,447.6c-8.2,7.2-23.1,4.2-32.9,4.1-14.3,0-28.8,1-43.1.4l-9.7-.7c5-.3,10.1-.5,15.1-.6,13.2-.4,26.5-.6,39.7-.6,8.5.1,19.9,2.1,27.8-2.1s6.8-16.9,7.3-25.1c.8-12.7,1.5-25.5,1.7-38.3.4-25-4-49.9-1.6-74.9,1.3-13,2.6-25.6,3-38.5a4.6,4.6,0,0,0,.9-1.7,3.8,3.8,0,0,1,.1,1c-.4,16-2.2,31.8-3.1,47.7s1.4,30.6,2,45.9a472,472,0,0,1-.8,47.6c-.4,6.9-.4,13.9-.9,20.8C464.7,438,463.9,443.9,459.5,447.6Z" transform="translate(-0.3 -0.2)"/><path d="M445.9,447.4c-5.8.2-11.6-.1-17.3-.2-11.9,0-23.8.1-35.7.5a158.4,158.4,0,0,1-20.8-1,615.9,615.9,0,0,1,63.7-.7c5.8.3,13.1,1.2,18.3-1.8s4.6-7.4,4.8-11.7c.7-12,1.3-24.2,1.7-36.3,1.1-29.4-3.9-58.9-1.1-88.3,1.1-11.7,2.3-23.4,2.8-35.2h.9c-.2,8.8-.8,17.5-1.5,26.2-.9,11.6-2.3,23.2-1.6,34.9s2,22.7,2.2,34.1,0,24.3-.5,36.4c-.3,5.6-.6,11.1-1,16.7s.4,13.7-1.6,19.4S451.1,447.1,445.9,447.4Z" transform="translate(-0.3 -0.2)"/><path d="M449,6.5c-5.9-2-12.1-1.4-18.1-.5a213.2,213.2,0,0,1-22.7,2.8,155.3,155.3,0,0,1-34.7-2.1,3.6,3.6,0,0,0-2.7-2h-.4c7.4.5,14.6,2.3,22.1,2.7a161.1,161.1,0,0,0,30.2-1.7c8.5-1.1,17.6-3.3,26.1-.7s13.5,8.4,16.9,15.5c8.2,17,2.5,36.4,2.4,54.4s2.2,37.5,2.3,56.2l-1.5-.2c0-11.6-1.1-23.3-1.8-34.9a246.9,246.9,0,0,1,.6-39.4C469.4,39.1,469.5,13.4,449,6.5Z" transform="translate(-0.3 -0.2)"/><path d="M430.9,6c6-.9,12.2-1.5,18.1.5,20.5,6.9,20.4,32.6,18.7,50a246.9,246.9,0,0,0-.6,39.4c.7,11.6,1.8,23.3,1.8,34.9a5.8,5.8,0,0,0-1.4.3,4.5,4.5,0,0,0-1.6-.3c0-23.5-3.9-46.9-1.6-70.4,1.1-11.6,2.9-23.8-1.3-35-2.1-5.6-5.6-10.8-10.8-14s-12.9-3.6-19.6-2.6c-11.2,1.5-22.2,3.3-33.7,3.2a160.2,160.2,0,0,1-25-2.2,4.7,4.7,0,0,0-.4-3.1,155.3,155.3,0,0,0,34.7,2.1A213.2,213.2,0,0,0,430.9,6Z" transform="translate(-0.3 -0.2)"/><path d="M452.3,13c-6.8-4.3-14.6-3.5-22.1-2.4s-15.9,2.5-23.9,2.8a161,161,0,0,1-25-1.1l-8-1.1a4.2,4.2,0,0,0,.6-1.4,160.2,160.2,0,0,0,25,2.2c11.5.1,22.5-1.7,33.7-3.2,6.7-1,13.7-1.1,19.6,2.6s8.7,8.4,10.8,14c4.2,11.2,2.4,23.4,1.3,35-2.3,23.5,1.6,46.9,1.6,70.4l-1.5.3c-.1-18-2.5-35.9-2.3-53.9.1-12.8,2.3-25.6,1.6-38.5C463.2,29.3,460.8,18.4,452.3,13Z" transform="translate(-0.3 -0.2)"/><path d="M373.9,9.8a4.2,4.2,0,0,1-.6,1.4l-4.5-.8V9h.8Z" transform="translate(-0.3 -0.2)"/><path d="M369.6,4.5h1.2a3.6,3.6,0,0,1,2.7,2l-4.1-.8a6.8,6.8,0,0,1,.2-1.4Z" transform="translate(-0.3 -0.2)"/><path d="M366.2,3.7c.6-.3,3.1.6,4.2.9h-4.3A1.7,1.7,0,0,1,366.2,3.7Z" transform="translate(-0.3 -0.2)"/><path d="M450,15.2c-4.8-2.9-10.4-2.8-15.7-2.1-11.8,1.3-23.4,3.5-35.4,3.4-10-.1-19.5-2.1-29.3-3h0a4.2,4.2,0,0,0,3.7-2.3l8,1.1a161,161,0,0,0,25,1.1c8-.3,16-1.6,23.9-2.8s15.3-1.9,22.1,2.4c8.5,5.4,10.9,16.3,11.4,25.7.7,12.9-1.5,25.7-1.6,38.5-.2,18,2.2,35.9,2.3,53.9a4.2,4.2,0,0,0-3,4.1c.1-12.2-.7-24.3-1.5-36.4s-1.3-24.4-.3-36.5,3.2-23-.3-34C457.6,23.3,454.6,18.1,450,15.2Z" transform="translate(-0.3 -0.2)"/><path d="M373.3,11.2a4.2,4.2,0,0,1-3.7,2.3h-1.2v-.2a28.9,28.9,0,0,1,.4-2.9Z" transform="translate(-0.3 -0.2)"/><path d="M369.4,5.9l4.1.8a4.7,4.7,0,0,1,.4,3.1L369.7,9H369C369.1,7.9,369.2,6.9,369.4,5.9Z" transform="translate(-0.3 -0.2)"/><path d="M369.6,4.5Z" transform="translate(-0.3 -0.2)"/><path d="M369.6,9h0Z" transform="translate(-0.3 -0.2)"/><path d="M463.2,448.2c-7.6,9-21.4,7-31.8,6.6-30.7-1.1-61.9.8-92.6,3.2a7.4,7.4,0,0,0,1.7-4.3v-.3c11.1-.9,22.2-1.5,33.3-2l9.7.7c14.3.6,28.8-.4,43.1-.4,9.8.1,24.7,3.1,32.9-4.1,4.4-3.7,5.2-9.6,5.5-15,.5-6.9.5-13.9.9-20.8a472,472,0,0,0,.8-47.6c-.6-15.3-2.8-30.5-2-45.9s2.7-31.7,3.1-47.7a5.6,5.6,0,0,1,0-2.1c0-1.4.1-2.7.1-4.1,2.4-2.5,1.4-7.1.9-10.6L467,240.6a3.7,3.7,0,0,0-1.6-2.5,4.5,4.5,0,0,0-.1-1.1h0c2.5-10.4,4.2-20.6,3.9-31.3s-1.5-22.6-1.1-34,1.6-21.6,2.1-32.4a4.1,4.1,0,0,0,3.2-4.1c-.5,17.9-3,35.6-2.1,53.6.5,8.2,1.2,16.3.9,24.5a81.3,81.3,0,0,1-1.2,12.1c-.7,4.1-1.8,7.5-1.2,11.7a226.6,226.6,0,0,1,1,45.1c-1,14.9-3.3,29.8-3.2,44.9s1.7,30.7,2.2,46.1-.4,30.7-1.4,46C467.9,428.5,469.6,440.5,463.2,448.2Z" transform="translate(-0.3 -0.2)"/><path d="M369,8.9h-4.4a1.8,1.8,0,0,1,.2-.9Z" transform="translate(-0.3 -0.2)"/><path d="M368.9,9Z" transform="translate(-0.3 -0.2)"/><path d="M369,8.9,364.8,8a6.6,6.6,0,0,1,.8-1.3l.3-1.5,3.5.7C369.2,6.9,369.1,7.9,369,8.9Z" transform="translate(-0.3 -0.2)"/><path d="M366.1,4.4h0Z" transform="translate(-0.3 -0.2)"/><path d="M365.9,9.8c-.8,0-1.2-.3-1.3-.8h4.3v1.4h-.1C368.1,10.2,366.4,10.2,365.9,9.8Z" transform="translate(-0.3 -0.2)"/><path d="M365.9,5.2c0-.3.1-.5.1-.7h3.6a6.8,6.8,0,0,0-.2,1.4Z" transform="translate(-0.3 -0.2)"/><path d="M366.1,4.4h0Z" transform="translate(-0.3 -0.2)"/><path d="M364.3,4.8l1.6.4-.3,1.5a6.6,6.6,0,0,0-.8,1.3l-1.3-.3C361.6,7.3,362.4,4.4,364.3,4.8Z" transform="translate(-0.3 -0.2)"/><path d="M423.1,2.7c9.1-1.4,18.7-3.5,27.7-.3,12.1,4.3,18.8,15.2,20.9,27.4,2.6,14.5-.2,28.9-.6,43.4-.5,20.7,2.5,41.2,2.3,61.9a4.1,4.1,0,0,0-3-4.1c-.1-18.7-2.5-37.4-2.3-56.2s5.8-37.4-2.4-54.4c-3.4-7.1-9.2-13.1-16.9-15.5s-17.6-.4-26.1.7a161.1,161.1,0,0,1-30.2,1.7c-7.5-.4-14.7-2.2-22.1-2.7h0c-1.1-.3-3.6-1.2-4.2-.9a1.7,1.7,0,0,0-.1.7h-7.8A6.1,6.1,0,0,1,361.2,1c3.8-2,9.8.7,13.7,1.4a153,153,0,0,0,17.9,1.9A153.2,153.2,0,0,0,423.1,2.7Z" transform="translate(-0.3 -0.2)"/><path d="M365.9,9.8c.5.4,2.2.4,2.8.6h.1a28.9,28.9,0,0,0-.4,2.9c-3.4-.6-8-.9-9.8-4.2h6C364.7,9.5,365.1,9.8,365.9,9.8Z" transform="translate(-0.3 -0.2)"/><path d="M364.6,8.9h-6V8.9Z" transform="translate(-0.3 -0.2)"/><path d="M445.9,447.4c5.2-.3,11.4-1.3,13.3-6.9s1.2-13.4,1.6-19.4.7-11.1,1-16.7c.5-12.1.8-24.3.5-36.4s-1.5-22.7-2.2-34.1.7-23.3,1.6-34.9c.7-8.7,1.3-17.4,1.5-26.2a4.1,4.1,0,0,0,3.6-1.5c-.4,12.9-1.7,25.5-3,38.5-2.4,25,2,49.9,1.6,74.9-.2,12.8-.9,25.6-1.7,38.3-.5,8.2,1.2,20.5-7.3,25.1s-19.3,2.2-27.8,2.1c-13.2,0-26.5.2-39.7.6-5,.1-10.1.3-15.1.6-9.9-.9-19.7-2.4-29.6-2.7h-.9c9.6-.8,19.2-1.5,28.8-2a158.4,158.4,0,0,0,20.8,1c11.9-.4,23.8-.5,35.7-.5C434.3,447.3,440.1,447.6,445.9,447.4Z" transform="translate(-0.3 -0.2)"/><path d="M358.3,4.4h0Z" transform="translate(-0.3 -0.2)"/><path d="M364.3,4.8c-1.9-.4-2.7,2.5-.8,2.9l1.3.3a1.8,1.8,0,0,0-.2.9h-6.1l-.2-.5a6.5,6.5,0,0,1,0-3.9H366c0,.2-.1.4-.1.7Z" transform="translate(-0.3 -0.2)"/><path d="M336,458.2l4.5-4.5a7.4,7.4,0,0,1-1.7,4.3Z" transform="translate(-0.3 -0.2)"/><path d="M331.4,454.7c.4-1.1.9-2.2,1.3-3.2s.4-.8.2-.9a4.5,4.5,0,0,1,3.1-1.4l7.3-.5h.9c9.9.3,19.7,1.8,29.6,2.7-11.1.5-22.2,1.1-33.3,2l-4.5.3a1.6,1.6,0,0,1-1.8,1.9l-2.9-.5Z" transform="translate(-0.3 -0.2)"/><path d="M332.7,451.5c-.4,1-.9,2.1-1.3,3.2s.1-.7.1-1a4.7,4.7,0,0,1,1.4-3.1C333.1,450.7,333.2,451,332.7,451.5Z" transform="translate(-0.3 -0.2)"/><path d="M326.9,454.5l-10.9,1a4.5,4.5,0,0,0,.5-4.6h1.8l5.7-.6a23.3,23.3,0,0,1,5.9.2c.9.1,2.4-.1,3,.2a4.7,4.7,0,0,0-1.4,3.1c0,.3-.1.7-.1,1v.4Z" transform="translate(-0.3 -0.2)"/><path d="M316.5,450.9h-1c-1.4-.1-2.4.2-2.9,1v-3.7A4.6,4.6,0,0,1,316.5,450.9Z" transform="translate(-0.3 -0.2)"/><path d="M318.3,450.8h-1.8a4.6,4.6,0,0,0-3.9-2.6l-3.2-.3h5.1a116.4,116.4,0,0,1,11.8.5c5.6.6,11.3.1,17,.3l-7.3.5a4.5,4.5,0,0,0-3.1,1.4c-.6-.3-2.1-.1-3-.2a23.3,23.3,0,0,0-5.9-.2Z" transform="translate(-0.3 -0.2)"/><path d="M316,455.5a4.9,4.9,0,0,1-3.4,1.8v-1.5Z" transform="translate(-0.3 -0.2)"/><path d="M316.5,450.9a4.5,4.5,0,0,1-.5,4.6l-3.4.3V452c.5-.8,1.5-1.1,2.9-1Z" transform="translate(-0.3 -0.2)"/><path d="M312.6,455.8v1.5a8.3,8.3,0,0,1-.4-1.5Z" transform="translate(-0.3 -0.2)"/><path d="M312.6,452.8v3h-.4a7.5,7.5,0,0,1,0-3Z" transform="translate(-0.3 -0.2)"/><path d="M312.6,452v.8h-.4A2,2,0,0,1,312.6,452Z" transform="translate(-0.3 -0.2)"/><path d="M312.6,448.3V452a2,2,0,0,0-.4.8l-5.7-.5C307.3,450.3,309.3,448.6,312.6,448.3Z" transform="translate(-0.3 -0.2)"/><path d="M313.6,460.2c-3.6.3-6-1.3-6.9-3.4l5.9.5a4.9,4.9,0,0,0,3.4-1.8l10.9-1,4.4.6,2.9.5a1.6,1.6,0,0,0,1.8-1.9l4.5-.3v.3l-4.5,4.5,2.8-.2c-1.4,1.7-3.8,2.2-6.7,1.8C325.8,458.8,319.9,459.8,313.6,460.2Z" transform="translate(-0.3 -0.2)"/><path d="M312.6,452.8h0Z" transform="translate(-0.3 -0.2)"/><path d="M312.6,457.3l-5.9-.5a5.5,5.5,0,0,1-.2-4.5l5.7.5h-.5c-1.9.2-1.9,3.2,0,3h.5A8.3,8.3,0,0,0,312.6,457.3Z" transform="translate(-0.3 -0.2)"/><path d="M312.2,452.8a7.5,7.5,0,0,0,0,3h-.5c-1.9.2-1.9-2.8,0-3Z" transform="translate(-0.3 -0.2)"/><path d="M268.4,446.3c23.4-1.9,48-4.2,61.8-1.8,14.5-1.3,28.1.9,41.9,2.2-9.6.5-19.2,1.2-28.8,2-5.7-.2-11.4.3-17-.3a116.4,116.4,0,0,0-11.8-.5h-5.1C295.8,446.9,282.1,446.4,268.4,446.3Z" transform="translate(-0.3 -0.2)"/><path d="M312.6,448.3c-3.3.3-5.3,2-6.1,4q-19-1.5-38.1-1.5c13.7-1.2,27.3-2.5,41-2.8Z" transform="translate(-0.3 -0.2)"/><path d="M27.4,5.7,25.8,4.2C50.4,1.6,75.2,2.1,99.9,2.3L358.3,4.4h-42l-114.7.5L84.1,5.7l-40.8.2c-5.2,0-10.6-.3-15.9-.1Z" transform="translate(-0.3 -0.2)"/><path d="M25.8,4.2l1.6,1.5L24.2,4.4Z" transform="translate(-0.3 -0.2)"/><path d="M22.5,6.2l1.5.2-3.5.5Z" transform="translate(-0.3 -0.2)"/><path d="M24.2,8.9a1.4,1.4,0,0,0-.8-.9,12.5,12.5,0,0,0-2.9-1h0L24,6.4l-1.5-.2,1.6-.3h3.3c5.3-.2,10.7.1,15.9.1l40.8-.2,117.5-.5,114.7-.5h42a6.5,6.5,0,0,0,0,3.9l.2.5L89,6.7C67.4,6.6,45.6,6.4,24.2,8.9Z" transform="translate(-0.3 -0.2)"/><path d="M20.1,14.9c-1-.1,2.5-.3,0,0Z" transform="translate(-0.3 -0.2)"/><path class="a" d="M17.9,15h3.3a13.1,13.1,0,0,0,2.8.1c1.1-.1,1.7,0-.1-.1,6.9.3,13.8-.1,20.7-.1l52.5-.3L243,14l113.7-.4c3.7,0,7.4-.2,11.1-.1h1.8c9.8.9,19.3,2.9,29.3,3,12,.1,23.6-2.1,35.4-3.4,5.3-.7,10.9-.8,15.7,2.1s7.6,8.1,9.3,13.1c3.5,11,1.2,22.8.3,34s-.4,24.3.3,36.5,1.6,24.2,1.5,36.4h0c-.4,13.1-2.2,26.2-2.4,39.4s1.6,25.1,1.2,37.7-4.3,21.8-5.6,32.8a51.2,51.2,0,0,0,1.2,17c.6,2.9,1,7.5,2.9,10.3-.3,12.7-1.4,25.4-2.4,38.1s-.5,26.2.5,39.4c2,26-.2,51.5-.6,77.5-.1,4.5.7,12.1-4.2,14.3s-10.9,1.2-15.7,1.1c-13.8-.3-27.6-.1-41.4.2s-25.8-1.3-38.7-2.6c-10.8-1-21.4-.5-32.1-1.3-19.8-1.4-40,1.4-59.8,2.9-24.4,1.9-48.8,1.8-73.2,2.2l-81.5,1.4-40.8.7c-13,.2-26.3,1.2-39.3.5-5.5-.3-11.8-1.3-13.4-7.5s-.4-13.5-.4-19.7c.2-15.1.6-30.3.8-45.4l1.2-92.4a4.8,4.8,0,0,0-1.6-3.5c1.8-24.3-2-48.5-2.8-72.7s2.4-49.5,2.9-74.3-3-50.5-3.6-75.8c-.3-11.3-1-24.4,2.3-35.4a13,13,0,0,1,2.6-5.1C17.4,15.3,15.7,15.1,17.9,15Z" transform="translate(-0.3 -0.2)"/><path d="M14.4,277.5a5.6,5.6,0,0,1,1.7.9l-.3,3c-.9-1.1-1.8-2.3-2.6-3.5v-.6Z" transform="translate(-0.3 -0.2)"/><path d="M436.3,442.9c4.8.1,11.1.9,15.7-1.1s4.1-9.8,4.2-14.3c.4-26,2.6-51.5.6-77.5-1-13.2-1.6-26.1-.5-39.4s2.1-25.4,2.4-38.1a5.5,5.5,0,0,0,2.3,2c-.6-1.2-1.3-2.3-2-3.5l.4-.2a4.4,4.4,0,0,0,2.9,1.9c-.5,11.8-1.7,23.5-2.8,35.2-2.8,29.4,2.2,58.9,1.1,88.3-.4,12.1-1,24.3-1.7,36.3-.2,4.3-.7,9.3-4.8,11.7s-12.5,2.1-18.3,1.8a615.9,615.9,0,0,0-63.7.7c-13.8-1.3-27.4-3.5-41.9-2.2-13.8-2.4-38.4-.1-61.8,1.8-15.2-.1-30.3.2-45.5.5l-88.6,1.5-88.6,1.4c-6.9.1-14.2.9-21-.3s-11.9-5.6-12.1-13.7c-.3-14.2.5-28.6.7-42.9.4-33.7.9-67.3,1.3-100.9a4.9,4.9,0,0,0-1.5-3.4v-6.6h-.4c.1-1.3.3-2.6.4-3.9.8,1.2,1.7,2.4,2.6,3.5l.3-3a4.8,4.8,0,0,1,1.6,3.5l-1.2,92.4c-.2,15.1-.6,30.3-.8,45.4,0,6.2-1.1,13.7.4,19.7s7.9,7.2,13.4,7.5c13,.7,26.3-.3,39.3-.5l40.8-.7,81.5-1.4c24.4-.4,48.8-.3,73.2-2.2,19.8-1.5,40-4.3,59.8-2.9,10.7.8,21.3.3,32.1,1.3,12.9,1.3,25.6,2.9,38.7,2.6S422.5,442.6,436.3,442.9Z" transform="translate(-0.3 -0.2)"/><path d="M13.2,277.3v.6l-.7-.8Z" transform="translate(-0.3 -0.2)"/><path d="M13.1,288.5a4.1,4.1,0,0,0-1.1-.7,7.7,7.7,0,0,0,.2-1.5c.1-.4.1-.7.2-1s.3-2.4.4-3.5h.4Z" transform="translate(-0.3 -0.2)"/><path d="M11.9,386.1l1.2-97.6a4.9,4.9,0,0,1,1.5,3.4c-.4,33.6-.9,67.2-1.3,100.9-.2,14.3-1,28.7-.7,42.9.2,8.1,4.1,12.3,12.1,13.7s14.1.4,21,.3l88.6-1.4,88.6-1.5c15.2-.3,30.3-.6,45.5-.5-10.5.8-20.7,1.5-29.6,1.7l-97.4,1.7L42,451.3c-6.4.1-13.2.7-19.5-.8-8.1-2-11.2-7.1-11.3-15C11,419,11.6,402.6,11.9,386.1Z" transform="translate(-0.3 -0.2)"/><path d="M11.9,93.6c-1.5-20.1-3.4-40.3-1.8-60.5.4-5.5,1.6-25.5,10.9-21,4.1,2,8.4.7,13,.3s11.1-.7,16.6-.9c11.2-.4,22.3-.4,33.5-.3l134.2,1.1,150.1,1.2h-.6c-3.7-.1-7.4.1-11.1.1L243,14l-145.9.6-52.5.3c-6.9,0-13.8.4-20.7.1,1.8.1,1.2,0,.1.1a13.1,13.1,0,0,1-2.8-.1H20.1c2.5-.3-1-.1,0,0H17.9c-2.2.1-.5.3-.4.1a13,13,0,0,0-2.6,5.1c-3.3,11-2.6,24.1-2.3,35.4.6,25.3,4.2,50.5,3.6,75.8s-3.7,49.5-2.9,74.3,4.6,48.4,2.8,72.7a5.6,5.6,0,0,0-1.7-.9l-1.2-.2c.4-5.8.5-11.6.4-17.4-.2-11.1-1.3-22.2-2.2-33.2-1.8-22.1-1.2-44,.3-66A484.7,484.7,0,0,0,11.9,93.6Z" transform="translate(-0.3 -0.2)"/><path d="M12,287.8c0,.2-.1.4-.1.6s-.1.3-.1.5-.1-1.3-.5-1.4Z" transform="translate(-0.3 -0.2)"/><path d="M11.8,288.9c0,1-.4,1.9,0,0Z" transform="translate(-0.3 -0.2)"/><path d="M8.3,428c.2-17,.4-33.9.7-50.8q.5-42.7,1.1-85.3l-1.5-.4c0-2.1.1-4.3.1-6.4l1.4.7,1.9.4h.2a7.7,7.7,0,0,1-.2,1.5l-.7-.3c.4.1.5.8.5,1.4s0,1,0,0,.1-.3.1-.5.1-.4.1-.6a4.1,4.1,0,0,1,1.1.7l-1.2,97.6c-.3,16.5-.9,32.9-.7,49.4.1,7.9,3.2,13,11.3,15,6.3,1.5,13.1.9,19.5.8l99.4-1.6,97.4-1.7c8.9-.2,19.1-.9,29.6-1.7,13.7.1,27.4.6,41,1.7-13.7.3-27.3,1.6-41,2.8-16.5-.2-33,.2-49.4.5l-102.4,1.8-51.7.8-24.9.4c-6.1.1-12.3.5-18.3-.9-4.4-1.1-8.7-3.2-11.2-7.2S8.2,433.9,8.3,428Z" transform="translate(-0.3 -0.2)"/><path d="M8.7,285.1v-3.2l3.3,4.3-1.9-.4Z" transform="translate(-0.3 -0.2)"/><path d="M8.7,69.5a259.6,259.6,0,0,1-.4-31.8A128.7,128.7,0,0,1,10,21.4c.6-3.7,2.7-9.1,6.3-10.9h5.2l.4.2a1.3,1.3,0,0,0,1.6-.2L358.6,9.1c1.8,3.3,6.4,3.6,9.8,4.2v.2L218.3,12.3,84.1,11.2c-11.2-.1-22.3-.1-33.5.3-5.5.2-11.1.5-16.6.9s-8.9,1.7-13-.3c-9.3-4.5-10.5,15.5-10.9,21-1.6,20.2.3,40.4,1.8,60.5a484.7,484.7,0,0,1-.2,67.1c-1.5,22-2.1,43.9-.3,66,.9,11,2,22.1,2.2,33.2.1,5.8,0,11.6-.4,17.4l-.7-.2.7.8c-.1,1.3-.3,2.6-.4,3.9l-1.5-.4c1.6-15,.7-30.1-.6-45.1C9.2,217.8,8,199.6,8.9,181s2.9-37.5,2.9-56.4S9.8,87.9,8.7,69.5Z" transform="translate(-0.3 -0.2)"/><path d="M8.5,295.7l.4.5H8.5Z" transform="translate(-0.3 -0.2)"/><path d="M7.3,289.1c.2-1.5.5-3.1.7-4.7a2.3,2.3,0,0,0,.7.7c0,2.1-.1,4.3-.1,6.4H8.2a1.4,1.4,0,0,1-1-1,2.1,2.1,0,0,1,0-.8A.9.9,0,0,1,7.3,289.1Z" transform="translate(-0.3 -0.2)"/><path d="M5.6,291.9c1,1.2,2,2.5,2.9,3.8v.4a9.7,9.7,0,0,1-2.9-1.2Z" transform="translate(-0.3 -0.2)"/><path d="M9.4,446.6c-2.7-4.6-2.7-9.9-2.7-15.1s0-13.1.2-19.7c.2-14.5.5-28.9.7-43.4l.9-72.3h.4l-.4-.5c.1-1.4.1-2.8.1-4.2l1.5.4Q9.5,334.5,9,377.2c-.3,16.9-.5,33.8-.7,50.8-.1,5.9-1,12.9,2.2,18.2s6.8,6.1,11.2,7.2c6,1.4,12.2,1,18.3.9l24.9-.4,51.7-.8L219,451.3c16.4-.3,32.9-.7,49.4-.5-6.6.5-13.3,1-19.9,1.3-27,1.4-54.2,1.1-81.2,1.6l-87.5,1.5-43.1.7C27.1,456.1,14.9,455.9,9.4,446.6Z" transform="translate(-0.3 -0.2)"/><path d="M6.3,218.9c-1.5-20.5-.3-40.8,1.1-61.2a429.7,429.7,0,0,0,.2-61.1C6.2,76.3,4.1,56,5.4,35.8,5.9,27.4,7.4,4,20.5,7a12.5,12.5,0,0,1,2.9,1,1.4,1.4,0,0,1,.8.9C45.6,6.4,67.4,6.6,89,6.7L358.5,8.9v.2L23.5,10.4a1.3,1.3,0,0,1-1.6.2l-.4-.2H16.3c-3.6,1.8-5.7,7.2-6.3,10.9A128.7,128.7,0,0,0,8.3,37.7a259.6,259.6,0,0,0,.4,31.8c1.1,18.4,3.1,36.7,3.1,55.1s-2,37.6-2.9,56.4.3,36.8,1.8,55.3c1.3,15,2.2,30.1.6,45.1l1.5.4c-.1,1.1-.3,2.3-.4,3.5s-.1.6-.2,1H12l-3.3-4.3v3.2a2.3,2.3,0,0,1-.7-.7c0-.3.1-.7.1-1.1C10.7,261.9,7.9,240.3,6.3,218.9Z" transform="translate(-0.3 -0.2)"/><path d="M3.7,432.5c.3-15.1.4-30.4.6-45.6.5-30.7.8-61.4,1.3-92a9.7,9.7,0,0,0,2.9,1.2l-.9,72.3c-.2,14.5-.5,28.9-.7,43.4-.2,6.6-.2,13.1-.2,19.7s0,10.5,2.7,15.1c5.5,9.3,17.7,9.5,27.3,9.3l43.1-.7,87.5-1.5c27-.5,54.2-.2,81.2-1.6,6.6-.3,13.3-.8,19.9-1.3q19.1,0,38.1,1.5a5.5,5.5,0,0,0,.2,4.5c-33.1-2.6-66.4-1.4-99.5-.8l-94.6,1.6-45.7.8-25,.4c-6.5.1-13.1.5-19.6-.7S10,454,6.6,448.5,3.5,438,3.7,432.5Z" transform="translate(-0.3 -0.2)"/><path d="M5.6,90.1c-1.5-20.4-3.3-41-1.2-61.5.8-7,1.7-15.2,7.2-20.2,3.1-2.9,7.1-2.7,10.9-2.2l-2,.7h0C7.4,4,5.9,27.4,5.4,35.8,4.1,56,6.2,76.3,7.6,96.6a429.7,429.7,0,0,1-.2,61.1C6,178.1,4.8,198.4,6.3,218.9s4.4,43,1.8,64.4c0,.4-.1.8-.1,1.1a3.9,3.9,0,0,1-1.2-3c2.3-23.3-1.1-46.5-2.3-69.8-.9-20.3.6-40.4,1.8-60.7A425.5,425.5,0,0,0,5.6,90.1Z" transform="translate(-0.3 -0.2)"/><path d="M2.9,287.9c.8-7.4,1.7-14.6,1.8-22.1.1-13.7-1.3-27.4-2.4-41.1C.2,199.6,2,174.9,3.4,149.8S3.2,100,1.5,75C.3,57-1.1,37.9,2.8,20.1,4,14.7,6,8.6,10.6,5s10.8-3.9,15.2-.8l-1.6.2,3.2,1.3H24.1l-1.6.3c-3.8-.5-7.8-.7-10.9,2.2-5.5,5-6.4,13.2-7.2,20.2C2.3,49.1,4.1,69.7,5.6,90.1a425.5,425.5,0,0,1,.7,60.8c-1.2,20.3-2.7,40.4-1.8,60.7,1.2,23.3,4.6,46.5,2.3,69.8a3.9,3.9,0,0,0,1.2,3c-.2,1.6-.5,3.2-.7,4.7a.9.9,0,0,0-.1.5,2.1,2.1,0,0,0,0,.8,1.4,1.4,0,0,0,1,1h.4c0,1.4,0,2.8-.1,4.2-.9-1.3-1.9-2.6-2.9-3.8v3C3.4,293.5,2.6,291.3,2.9,287.9Z" transform="translate(-0.3 -0.2)"/><path class="b" d="M126.7,125c1.5,30.5,3.7,61.1,6.9,91.5.8,7.9,2,16.5,7.7,22.1,4,3.9,9.7,5.6,15.1,6.7,12.1,2.6,24.6,3,36.9,3.4,10.4.4,21.2.7,31-2.8a13.1,13.1,0,0,0,5.8-3.4c2.2-2.5,2.7-6,3.1-9.3a436.1,436.1,0,0,0-4-121.8c-.4-2.3-1-4.9-2.9-6.3a9.6,9.6,0,0,0-3.8-1.4c-20.3-3.9-41.3-3.8-62-2.3-8.2.6-16.8,1.5-23.9,5.8s-12.3,12.7-10.1,20.7" transform="translate(-0.3 -0.2)"/><path d="M125.4,125c.8,17.9,1.9,35.7,3.3,53.6l2.4,27.2c.7,7.1,1,14.6,2.8,21.5,3.7,14.7,15.8,18.7,29.5,20.7a228.2,228.2,0,0,0,23.4,1.9c8.6.3,17.3.9,25.9-.1,5.6-.6,12.9-1.5,17.4-5.4s4.5-11.4,5.1-17a451.3,451.3,0,0,0,1.7-53.3,445.3,445.3,0,0,0-4.5-51.6c-.8-5.2-.5-15.1-5.4-18.6-2.4-1.7-6-1.9-8.9-2.4s-7.9-1.1-11.9-1.5c-18.5-1.8-38.5-2-56.8,1.3-13,2.3-27.5,11.8-24.2,26.9.3,1.8,3,1,2.6-.7-3.7-17.2,16.5-23.3,29.4-24.5a271.7,271.7,0,0,1,44.2-.6q4.8.3,9.6.9c3.4.4,9.5.4,12.5,2.1s4.3,6.1,5,10.2,1.2,7.6,1.8,11.5a415.4,415.4,0,0,1,3.8,46,414.4,414.4,0,0,1-.9,44.6c-.5,6.6-.1,14.5-2.4,20.8s-14.2,8.3-20.9,8.8c-13.9,1.1-28.7.1-42.5-1.6-6.7-.8-14.3-1.7-20.5-4.9s-9.7-9.9-11-17.2c-2.9-15.6-3.4-32.1-4.6-47.9s-2.4-33.8-3.2-50.7c-.1-1.8-2.8-1.8-2.7,0Z" transform="translate(-0.3 -0.2)"/><path class="c" d="M133,128.3c1.3,28.3,3.3,56.5,6.2,84.6.7,7.4,1.8,15.3,6.9,20.4,3.7,3.6,8.7,5.2,13.7,6.3,10.9,2.3,22.1,2.7,33.2,3.1,9.4.4,19,.6,27.9-2.6a12.5,12.5,0,0,0,5.2-3.1c2.1-2.3,2.5-5.6,2.8-8.7a407.8,407.8,0,0,0-3.6-112.5c-.3-2.2-.8-4.5-2.6-5.8a6.7,6.7,0,0,0-3.4-1.3c-18.3-3.7-37.2-3.6-55.8-2.2-7.5.6-15.2,1.4-21.6,5.4s-11.1,11.8-9.1,19.1" transform="translate(-0.3 -0.2)"/><path d="M131.6,128.3c.8,16.8,1.8,33.5,3.1,50.2l2.1,24.6c.7,6.8.9,13.9,2.7,20.5,3.4,13,14.1,16.6,26.3,18.5,14.4,2.2,30.4,3.4,44.8,1.7,5.3-.6,12-1.5,16-5.3s3.8-10.8,4.3-16a410.3,410.3,0,0,0,1.5-49.6,428.1,428.1,0,0,0-4.2-47.9c-.7-4.6-.4-13.1-4.8-16.2-2.1-1.5-5.1-1.7-7.5-2.1s-7.3-1.1-10.9-1.5c-16.9-1.7-35.5-2.1-52.2,1.2-11.9,2.4-24.2,11.4-21.4,25,.4,1.7,3.1,1,2.7-.7-3.3-16.2,15.5-21.6,27.6-22.7a260.5,260.5,0,0,1,38.5-.5c6.1.5,14.2.4,20,2.8,3.9,1.7,3.9,6.2,4.4,9.7s1.4,8.7,1.9,13.1c1.7,13.2,2.7,26.5,3.1,39.8s.2,26.6-.7,39.9c-.4,6.3-.2,13.7-2.1,19.8-2.3,7.7-13.8,8.5-20.5,8.8a202.5,202.5,0,0,1-38.9-1.8c-5.6-.8-12-1.7-17-4.7s-7.9-9.4-9-15.7c-2.6-14.6-3.1-29.8-4.2-44.6s-2.1-30.8-2.8-46.3c-.1-1.7-2.9-1.7-2.8,0Z" transform="translate(-0.3 -0.2)"/><path class="d" d="M189.4,224.5a17.2,17.2,0,0,0-9.4,6,7.9,7.9,0,0,0-1.8,3.8,4,4,0,0,0,1.4,3.9,8.4,8.4,0,0,0,2.5.9,21.7,21.7,0,0,0,6.7.5,7.7,7.7,0,0,0,5.6-3.2,7.2,7.2,0,0,0-.3-7.5,11.7,11.7,0,0,0-6.2-4.5c-.7-.3-1.8,0-1.4.6" transform="translate(-0.3 -0.2)"/><path d="M189,223.2c-5,1.3-11.5,5.3-12.2,10.9s6.3,7.1,10.9,6.9,9.7-3.7,8.9-9.3c-.6-3.8-6-10.2-10.4-8.5a1.4,1.4,0,0,0-1,1v.5c-.2,1.7,2.4,2.5,2.7.7v-.5l-1,1c1.4-.6,4.1,1.6,5,2.5a6.4,6.4,0,0,1,1.9,5.9c-.9,3.6-5.2,4.2-8.4,3.9-1.4-.1-5.5-.4-5.8-2.5s.9-3.8,2.1-5a15.9,15.9,0,0,1,8-4.9,1.3,1.3,0,0,0-.7-2.6Z" transform="translate(-0.3 -0.2)"/><path class="e" d="M193.5,112.4l.5,1.1h-1.6Z" transform="translate(-0.3 -0.2)"/><path class="e" d="M189.8,132.1l.2-.5c.2.4.3.6.2.6h-.4Z" transform="translate(-0.3 -0.2)"/><path d="M190.1,130.9c0,.2-.1.5-.1.7l-.6-.7Z" transform="translate(-0.3 -0.2)"/><path class="e" d="M189.4,130.9l.6.7-.2.5-1.6-1.3Z" transform="translate(-0.3 -0.2)"/><path class="e" d="M184.1,127.2a35.2,35.2,0,0,0,4.1,3.6l-12-.5a.7.7,0,0,0-.6.8,101.5,101.5,0,0,0,3.4,12.3,55.2,55.2,0,0,0-14.4-13.7,1,1,0,0,1-.5-.4.7.7,0,0,0-1,.4,96.4,96.4,0,0,1-9.2,21.1l-.3-19.3v-.6a.7.7,0,0,0-.9-.6,150.7,150.7,0,0,0-16.2,4.8l8.5-11.7.4-.6a.6.6,0,0,0-.4-.9,70.3,70.3,0,0,1-21.6-8.4,143.1,143.1,0,0,1,24.5-3.4l.6-.2c.6-.2,1.2-.4,1.3-.7h0V92.4a89.6,89.6,0,0,1,6,12c.2.5.8.7,1.1.2l.2-.4A157.2,157.2,0,0,1,167.5,87c-.3,4.6-.7,9.3-1,13.9a1.3,1.3,0,0,0-.1.6c0,.5.6.7,1,.5a150.5,150.5,0,0,1,17.7-6.8l-7.5,15.3-.2.5a.6.6,0,0,0,.6.9l14.4,1.5-5.7,4.8c-1.5,1.2-4.4,2.8-5,4.7S183,126.1,184.1,127.2Z" transform="translate(-0.3 -0.2)"/><path class="e" d="M190.2,132.2c.1,0,0-.2-.2-.6s.1-.5.1-.7h-.7c-1.1-1.2-2.8-3-3.8-3.9a61.2,61.2,0,0,0,4.9,4C190.9,131.3,190.8,132.2,190.2,132.2Z" transform="translate(-0.3 -0.2)"/><path class="e" d="M186.1,93.6a.7.7,0,0,1,.8.9c-2.7,5.4-5.3,10.8-8,16.3l6.2-15.6,1.4-.4-.7-.9v-.2Z" transform="translate(-0.3 -0.2)"/><path class="e" d="M185.8,93.9l.7.9-1.4.4h0Z" transform="translate(-0.3 -0.2)"/><path d="M185.7,93.7v.2l-.7,1.2Z" transform="translate(-0.3 -0.2)"/><path class="e" d="M185.1,95.2h0Z" transform="translate(-0.3 -0.2)"/><path class="e" d="M186.7,118.2l5.7-4.8h1.7l-9.3,7.8c-1.1,1-2.2,1.4-1.3,3.3s1.4,1.5,2,2.1v.2c1,.9,2.7,2.7,3.8,3.9h-1.2a35.2,35.2,0,0,1-4.1-3.6c-1.1-1.1-3-2.6-2.4-4.3S185.2,119.4,186.7,118.2Z" transform="translate(-0.3 -0.2)"/><path class="e" d="M181,148.6Z" transform="translate(-0.3 -0.2)"/><path class="e" d="M182.3,148.3c.2.7-.9,1.1-1.2.5s-.1-.1-.1-.2h0l1.2-.5Z" transform="translate(-0.3 -0.2)"/><path class="e" d="M179,143.4a48.7,48.7,0,0,1,3.2,4.7l-1.2.5h0C180.3,146.9,179.7,145.2,179,143.4Z" transform="translate(-0.3 -0.2)"/><path class="e" d="M177.6,110.5l7.5-15.3h0l-6.2,15.6H178Z" transform="translate(-0.3 -0.2)"/><path class="e" d="M178,110.7h.9a5.9,5.9,0,0,0-.4.8Z" transform="translate(-0.3 -0.2)"/><path d="M194,112.2c.5.1.9.7.4,1.1l-.3.3H194l-.5-1.1-1.1,1L178,111.9a.6.6,0,0,1-.6-.9l.2-.5.4.2.5.9a5.9,5.9,0,0,1,.4-.8Z" transform="translate(-0.3 -0.2)"/><path d="M189.8,132.1h0l-12.8-.6a3.1,3.1,0,0,0-.2-.8l-.6.8h.8a102.1,102.1,0,0,0,5.2,16.5,48.7,48.7,0,0,0-3.2-4.7,101.5,101.5,0,0,1-3.4-12.3.7.7,0,0,1,.6-.8l12,.5Z" transform="translate(-0.3 -0.2)"/><path d="M176.2,131.6l.6-.8a3.1,3.1,0,0,1,.2.8Z" transform="translate(-0.3 -0.2)"/><path class="e" d="M167.5,87l1.4-2-2.4,15.9C166.8,96.3,167.2,91.6,167.5,87Z" transform="translate(-0.3 -0.2)"/><path d="M168.9,85l-1.2-.3h-.1l.2-.2c.3-.5,1.2-.4,1.1.3V85Z" transform="translate(-0.3 -0.2)"/><path class="e" d="M167.7,84.7l1.2.3-1.4,2C167.6,86.2,167.6,85.5,167.7,84.7Z" transform="translate(-0.3 -0.2)"/><path class="e" d="M167.8,100.5v1a3.1,3.1,0,0,0-1-.5Z" transform="translate(-0.3 -0.2)"/><path d="M167.4,102c-.4.2-1,0-1-.5a1.3,1.3,0,0,1,.1-.6h.2a3.1,3.1,0,0,1,1,.5v-1a143.2,143.2,0,0,1,17.9-6.8l-.6,1.4h0A150.5,150.5,0,0,0,167.4,102Z" transform="translate(-0.3 -0.2)"/><path class="e" d="M166.5,100.9,168.9,85h0c-.4,5.2-.8,10.3-1.1,15.5l-1.1.5h-.2Z" transform="translate(-0.3 -0.2)"/><path d="M164.6,129.7A55.2,55.2,0,0,1,179,143.4c.7,1.8,1.3,3.5,2,5.2h0a56,56,0,0,0-16.9-17.7Z" transform="translate(-0.3 -0.2)"/><path d="M164.6,129.7l-.5,1.2.3-.8Z" transform="translate(-0.3 -0.2)"/><path d="M164.1,130.9l-.7-.5,1-.3Z" transform="translate(-0.3 -0.2)"/><path class="e" d="M156.4,102.8l.7,1.4H157Z" transform="translate(-0.3 -0.2)"/><path class="e" d="M156.4,102.8a177.5,177.5,0,0,1,11.2-18.2h.1c-.1.8-.1,1.5-.2,2.3a157.2,157.2,0,0,0-10.4,17.2Z" transform="translate(-0.3 -0.2)"/><path class="e" d="M156.4,102.8l.6,1.3-1.2-.2Z" transform="translate(-0.3 -0.2)"/><path d="M153.9,153.1v-2.3a96.4,96.4,0,0,0,9.2-21.1.7.7,0,0,1,1-.4,1,1,0,0,0,.5.4l-.2.4-1,.3.7.5A101,101,0,0,1,154,153.1Z" transform="translate(-0.3 -0.2)"/><path class="e" d="M152.8,152.7l1.1-1.9v2.3Z" transform="translate(-0.3 -0.2)"/><path d="M152.7,152.7c-.2-7-.3-14-.4-21l.8-.2h.5l.3,19.3-1.1,1.9Z" transform="translate(-0.3 -0.2)"/><path class="e" d="M153.9,153.4a.7.7,0,0,1-1.2-.3v-.4h.1l1.1.4h.1Z" transform="translate(-0.3 -0.2)"/><path d="M152.3,130.9l.8.6-.8.2Z" transform="translate(-0.3 -0.2)"/><path d="M155.8,104.4a89.6,89.6,0,0,0-6-12V90.1h0a76.5,76.5,0,0,1,6.6,12.7l-.6,1.1,1.2.2h.1l-.2.4C156.6,105.1,156,104.9,155.8,104.4Z" transform="translate(-0.3 -0.2)"/><path class="e" d="M149.8,109.2Z" transform="translate(-0.3 -0.2)"/><path d="M148.6,90.4l1.2,2v16.8q0-.2-.3-.3c0-.2-.5-.2-1-.2V90.4Z" transform="translate(-0.3 -0.2)"/><path class="e" d="M148.6,90.4l1.2-.3v2.3Z" transform="translate(-0.3 -0.2)"/><path class="e" d="M148.5,109.9l1.3-.7C149.7,109.5,149.1,109.7,148.5,109.9Z" transform="translate(-0.3 -0.2)"/><path class="e" d="M148.5,109.9l1.3-.7h0Z" transform="translate(-0.3 -0.2)"/><path class="e" d="M148.5,108.7c.5,0,1,0,1,.2s.3.2.3.3l-1.3.7v-1.2Z" transform="translate(-0.3 -0.2)"/><path class="e" d="M149.7,89.8c0,.1.1.2.1.3h0l-1.2.3h-.1v-.3A.7.7,0,0,1,149.7,89.8Z" transform="translate(-0.3 -0.2)"/><path class="e" d="M144.7,123.1l-10.2,12.6,9.3-12.8Z" transform="translate(-0.3 -0.2)"/><path class="e" d="M144.3,122.2a3.6,3.6,0,0,0,.4.9l-.9-.2Z" transform="translate(-0.3 -0.2)"/><path d="M136.5,135.1a150.7,150.7,0,0,1,16.2-4.8.7.7,0,0,1,.9.6v.6h-.5l-.8-.6v.8a164.9,164.9,0,0,0-16.9,5.2h-.1Z" transform="translate(-0.3 -0.2)"/><path class="e" d="M136.5,135.1l-1.9.7Z" transform="translate(-0.3 -0.2)"/><path class="e" d="M134.6,135.8l1.9-.7-1.2,1.7Z" transform="translate(-0.3 -0.2)"/><path d="M135.3,136.8h.1l-.5.2a.7.7,0,0,1-.7-1l.3-.3h.1Z" transform="translate(-0.3 -0.2)"/><path class="e" d="M144.7,123.1l.3.3-8.5,11.7-1.9.7h-.1Z" transform="translate(-0.3 -0.2)"/><path d="M148.5,108.7v1.2l-.6.2a143.1,143.1,0,0,0-24.5,3.4h0l-1.4-.9a142,142,0,0,1,25.9-3.8Z" transform="translate(-0.3 -0.2)"/><path d="M122,112.7l1.4.8Z" transform="translate(-0.3 -0.2)"/><path d="M121.9,113.9c0-.4.1-.8.1-1.2l1.4.8Z" transform="translate(-0.3 -0.2)"/><polygon points="121.7 112.3 123.1 113.3 121.8 112.5 121.7 112.3"/><path d="M144.7,123.1a3.6,3.6,0,0,1-.4-.9l-.5.7a69.6,69.6,0,0,1-22.4-9.1.6.6,0,0,1,.1-1.1h.5c0,.4-.1.8-.1,1.2l1.5-.4h0a70.3,70.3,0,0,0,21.6,8.4.6.6,0,0,1,.4.9l-.4.6Z" transform="translate(-0.3 -0.2)"/><path class="f" d="M185.6,127a61.2,61.2,0,0,0,4.9,4c.4.3.3,1.2-.3,1.2" transform="translate(-0.3 -0.2)"/><line class="f" x1="149.6" y1="109" x2="148.3" y2="109.7"/><path class="g" d="M185.1,95.2h0l1.4-.4-.7-.9" transform="translate(-0.3 -0.2)"/><line class="g" x1="184.9" y1="95" x2="177.4" y2="110.2"/><path class="g" d="M185.7,93.7h.4a.7.7,0,0,1,.8.9c-2.7,5.4-5.3,10.8-8,16.3" transform="translate(-0.3 -0.2)"/><line class="f" x1="184.9" y1="94.9" x2="185.5" y2="93.4"/><polyline class="f" points="178.7 110.5 184.9 95 184.9 94.9"/><path class="g" d="M189.8,132.1l.2-.5c0-.2.1-.5.1-.7h-1.9a35.2,35.2,0,0,1-4.1-3.6c-1.1-1.1-3-2.6-2.4-4.3s3.5-3.5,5-4.7l5.7-4.8H194" transform="translate(-0.3 -0.2)"/><path class="g" d="M194.1,113.6l-9.3,7.8c-1.1,1-2.2,1.4-1.3,3.3s1.4,1.5,2,2.1v.2c1,.9,2.7,2.7,3.8,3.9l.6.7c.2.4.3.6.2.6h-.4" transform="translate(-0.3 -0.2)"/><path class="f" d="M182.2,148.1v.2c.2.7-.9,1.1-1.2.5s-.1-.1-.1-.2" transform="translate(-0.3 -0.2)"/><line class="f" x1="180.8" y1="148.4" x2="180.8" y2="148.4"/><path class="f" d="M182.2,148.1l-1.2.5h0" transform="translate(-0.3 -0.2)"/><path class="g" d="M178,110.7h.9" transform="translate(-0.3 -0.2)"/><path class="g" d="M178,110.7l.5.9a5.9,5.9,0,0,1,.4-.8l15.1,1.4c.5.1.9.7.4,1.1l-.3.3H194l-.5-1.1-1.1,1L178,111.9a.6.6,0,0,1-.6-.9l.2-.5Z" transform="translate(-0.3 -0.2)"/><path class="f" d="M177,131.6a102.1,102.1,0,0,0,5.2,16.5,48.7,48.7,0,0,0-3.2-4.7,101.5,101.5,0,0,1-3.4-12.3.7.7,0,0,1,.6-.8l12,.5,1.6,1.3h0l-12.8-.6" transform="translate(-0.3 -0.2)"/><path class="f" d="M176.8,130.8l-.6.8h.8A3.1,3.1,0,0,0,176.8,130.8Z" transform="translate(-0.3 -0.2)"/><path class="g" d="M168.9,85c-.4,5.2-.8,10.3-1.1,15.5" transform="translate(-0.3 -0.2)"/><path class="g" d="M166.5,100.9c.3-4.6.7-9.3,1-13.9l1.4-2" transform="translate(-0.3 -0.2)"/><line class="f" x1="168.6" y1="84.8" x2="166.2" y2="100.7"/><path class="g" d="M166.7,101l1.1-.5" transform="translate(-0.3 -0.2)"/><polyline class="g" points="166.2 100.7 166.5 100.7 166.5 100.7"/><path class="f" d="M185.8,93.9l-.7,1.2h0a150.5,150.5,0,0,0-17.7,6.8c-.4.2-1,0-1-.5a1.3,1.3,0,0,1,.1-.6" transform="translate(-0.3 -0.2)"/><line class="g" x1="185.5" y1="93.4" x2="185.5" y2="93.6"/><path class="f" d="M166.7,101a3.1,3.1,0,0,1,1,.5v-1a143.2,143.2,0,0,1,17.9-6.8" transform="translate(-0.3 -0.2)"/><path class="f" d="M164.6,129.7A55.2,55.2,0,0,1,179,143.4c.7,1.8,1.3,3.5,2,5.2h0a56,56,0,0,0-16.9-17.7" transform="translate(-0.3 -0.2)"/><line class="f" x1="163.9" y1="130.6" x2="164.4" y2="129.4"/><path class="f" d="M164.4,130.1l-.3.8" transform="translate(-0.3 -0.2)"/><path class="g" d="M156.4,102.8a177.5,177.5,0,0,1,11.2-18.2l.2-.2c.3-.5,1.2-.4,1.1.3V85h0l-1.2-.3c-.1.8-.1,1.5-.2,2.3a157.2,157.2,0,0,0-10.4,17.2" transform="translate(-0.3 -0.2)"/><line class="f" x1="156.9" y1="103.9" x2="156.2" y2="102.5"/><path class="f" d="M156.4,102.8l.6,1.3" transform="translate(-0.3 -0.2)"/><path class="f" d="M152.8,152.7l1.1.4v-2.3a96.4,96.4,0,0,0,9.2-21.1.7.7,0,0,1,1-.4,1,1,0,0,0,.5.4l-.2.4-1,.3.7.5A101,101,0,0,1,154,153.1v.3a.7.7,0,0,1-1.2-.3v-.4" transform="translate(-0.3 -0.2)"/><path class="f" d="M149.8,109.2h0" transform="translate(-0.3 -0.2)"/><path class="f" d="M149.8,109.2h0c-.1.3-.7.5-1.3.7" transform="translate(-0.3 -0.2)"/><line class="f" x1="148.3" y1="109.7" x2="149.6" y2="108.9"/><path class="f" d="M148.5,90.4v-.3a.7.7,0,0,1,1.2-.3c0,.1.1.2.1.3a76.5,76.5,0,0,1,6.6,12.7l-.6,1.1,1.2.2h.1l-.2.4c-.3.5-.9.3-1.1-.2a89.6,89.6,0,0,0-6-12V90.1l-1.2.3" transform="translate(-0.3 -0.2)"/><path class="f" d="M149.8,92.4v16.8q0-.2-.3-.3c0-.2-.5-.2-1-.2V90.4h.1Z" transform="translate(-0.3 -0.2)"/><path class="g" d="M134.5,135.7l9.3-12.8.9.2" transform="translate(-0.3 -0.2)"/><line class="g" x1="134.3" y1="135.5" x2="134.2" y2="135.5"/><line class="f" x1="144.4" y1="122.9" x2="134.3" y2="135.5"/><line class="g" x1="136.2" y1="134.9" x2="144.7" y2="123.1"/><path class="g" d="M134.6,135.8l1.9-.7" transform="translate(-0.3 -0.2)"/><line class="f" x1="136.2" y1="134.9" x2="134.4" y2="135.6"/><path class="f" d="M152.3,131.7l.8-.2-.8-.6Z" transform="translate(-0.3 -0.2)"/><path class="f" d="M134.6,135.8l.7,1,1.2-1.7a150.7,150.7,0,0,1,16.2-4.8.7.7,0,0,1,.9.6v.6l.3,19.3-1.1,1.9h-.1c-.2-7-.3-14-.4-21" transform="translate(-0.3 -0.2)"/><line class="g" x1="134.2" y1="135.5" x2="134.4" y2="135.6"/><path class="f" d="M152.3,131.7a164.9,164.9,0,0,0-16.9,5.2l-.5.2a.7.7,0,0,1-.7-1l.3-.3" transform="translate(-0.3 -0.2)"/><path class="f" d="M122,112.6a142,142,0,0,1,25.9-3.8h.6v1.2l-.6.2a143.1,143.1,0,0,0-24.5,3.4" transform="translate(-0.3 -0.2)"/><line class="f" x1="123.1" y1="113.3" x2="121.7" y2="112.3"/><path class="f" d="M123.4,113.5l-1.4-.8" transform="translate(-0.3 -0.2)"/><line class="f" x1="121.8" y1="112.5" x2="123.1" y2="113.3"/><path class="f" d="M144.7,123.1a3.6,3.6,0,0,1-.4-.9l-.5.7a69.6,69.6,0,0,1-22.4-9.1.6.6,0,0,1,.1-1.1h.5c0,.4-.1.8-.1,1.2l1.5-.4h0a70.3,70.3,0,0,0,21.6,8.4.6.6,0,0,1,.4.9l-.4.6" transform="translate(-0.3 -0.2)"/><line class="g" x1="144.7" y1="123.1" x2="144.4" y2="122.9"/><path class="b" d="M128.7,166.9l1,16c-7.3,3.4-6.1-1.5-7-4.2s-3-6.5,0-10.8C123.5,166.9,127.7,168.4,128.7,166.9Z" transform="translate(-0.3 -0.2)"/><path d="M126,148.8a.1.1,0,0,1-.1-.1h0A.1.1,0,0,1,126,148.8Z" transform="translate(-0.3 -0.2)"/><path d="M125.9,148.7h0Z" transform="translate(-0.3 -0.2)"/><path d="M125.9,148.7l-.6,1.3-.4-.2v-.7c.1-.4.5-.5.9-.5h.2Z" transform="translate(-0.3 -0.2)"/><path d="M125,150.5v-.7l.4.2.6-1.3a.1.1,0,0,0,.1.1.1.1,0,0,0-.1-.1l.5-1.2h.3c1.5.7.4,3-1,2.6s-.2,0-.2.1Z" transform="translate(-0.3 -0.2)"/><path d="M124.9,149.8v.7a1.2,1.2,0,0,1-1.3-.6A2.4,2.4,0,0,1,124.9,149.8Z" transform="translate(-0.3 -0.2)"/><path d="M123.6,148.6a2.6,2.6,0,0,1,2.1,0c-.4,0-.8.1-.9.5v.7a2.4,2.4,0,0,0-1.2.1A1.5,1.5,0,0,1,123.6,148.6Z" transform="translate(-0.3 -0.2)"/><path class="b" d="M125,150.5l2.1,14.8c-1,.1-3.9.5-4.4.1s-.5-3.3-.5-4.5-.8-9.7,1.5-11A1.2,1.2,0,0,0,125,150.5Z" transform="translate(-0.3 -0.2)"/><path d="M125.9,148.7h-.2a2.6,2.6,0,0,0-2.1,0c0-.3.2-.5.5-.7a2,2,0,0,1,2.3-.4Z" transform="translate(-0.3 -0.2)"/><path d="M127.3,166.7l-.2-1.4h.2a1.4,1.4,0,0,1,0,2.8,35.7,35.7,0,0,1-4.7.1v-1.5h4.7Z" transform="translate(-0.3 -0.2)"/><path d="M121.5,168l1.1.2c-.1.5-.1,1-.2,1.5Z" transform="translate(-0.3 -0.2)"/><path d="M127.1,165.3l.2,1.4h-4.7a1.4,1.4,0,0,0-1.7-1.3v-.3c-.1-3.3-.1-6.6-.2-9.9a9.5,9.5,0,0,1,.9-5,4,4,0,0,1,2-1.6,1.5,1.5,0,0,0,.1,1.3c-2.3,1.3-1.5,9.5-1.5,11s-.5,3.7.5,4.5S126.1,165.4,127.1,165.3Z" transform="translate(-0.3 -0.2)"/><path d="M121,166.9l.5,1.1-.6-.3A1.9,1.9,0,0,0,121,166.9Z" transform="translate(-0.3 -0.2)"/><path d="M120.9,165.4a1.4,1.4,0,0,1,1.7,1.3c-.5,0-1.1,0-1.4-.4A1.6,1.6,0,0,1,120.9,165.4Z" transform="translate(-0.3 -0.2)"/><path d="M122.7,178.7c.9,2.7,4.2,3.7,7,4.3l1,1.9c-3.9-.8-8.4-2.2-9.6-5.2a6.5,6.5,0,0,1-.3-2.8c0-3.1,0-6.1.1-9.2l.6.3,1.2-1.1-.3,2.8C122.2,172.7,121.8,176.2,122.7,178.7Z" transform="translate(-0.3 -0.2)"/><path d="M121.2,166.3c.3.4.9.4,1.4.4v1.5l-1.1-.2-.5-1.1a1.9,1.9,0,0,1-.1.8,1.9,1.9,0,0,1-1-1c-.2-.2-.2-.4-.3-.6a1.5,1.5,0,0,1,1.3-.7A1.6,1.6,0,0,0,121.2,166.3Z" transform="translate(-0.3 -0.2)"/><path d="M121.1,179.7c1.2,3,5.7,4.4,9.6,5.2l-1-1.9,1.4.3c2.1.5,1.2,3.7-.8,3.2s-6.6-1.5-8.9-3.7a1.6,1.6,0,0,0-1.3-1.4c-2.3-3.8-.9-10.3-.8-14.5a1.1,1.1,0,0,1,.3-.8c.1.2.1.4.3.6a1.9,1.9,0,0,0,1,1c-.1,3.1-.1,6.1-.1,9.2A6.5,6.5,0,0,0,121.1,179.7Z" transform="translate(-0.3 -0.2)"/><path d="M120.1,181.4a1.6,1.6,0,0,1,1.3,1.4,4.3,4.3,0,0,1-1.1-1.2Z" transform="translate(-0.3 -0.2)"/><path class="b" d="M121.7,182.9l8,3,1,15c-4.1.7-7.8-2.2-9.4-5.9-.4-.9-1.8-11-1.2-10.9A8.3,8.3,0,0,0,121.7,182.9Z" transform="translate(-0.3 -0.2)"/><path d="M118.7,184.1c0-.8.8-2,1.4-1.4l.7,1.3h-.7c-.6-.1.8,10,1.2,10.9,1.6,3.7,5,6.6,9.1,6l.7,1.2c-4.1,1.2-8.6-1.6-10.5-5.5S118.5,188.4,118.7,184.1Z" transform="translate(-0.3 -0.2)"/><path d="M119.4,156.6c-.1-4.1,1.2-11.6,7-9.1h0a2,2,0,0,0-2.3.4c-.3.2-.5.4-.5.7a4,4,0,0,0-2,1.6,9.5,9.5,0,0,0-.9,5c.1,3.3.1,6.6.2,9.9v.3a1.5,1.5,0,0,0-1.3.7,9.9,9.9,0,0,1-.1-2.4C119.4,161.3,119.4,159,119.4,156.6Z" transform="translate(-0.3 -0.2)"/><path d="M131.5,203.6c-5.7,1.1-10.8-2.4-12.8-7.7-1-2.4-3.9-15.2,1.4-14.6h0l.2.2a4.3,4.3,0,0,0,1.1,1.2,1.3,1.3,0,0,1-.6,1.2l-.7-1.3c-.6-.6-1.4.6-1.4,1.4-.2,4.3-.1,8.8,1.9,12.6s6.4,6.7,10.5,5.5l-.7-1.2h.4C132.5,200.5,133.2,203.2,131.5,203.6Z" transform="translate(-0.3 -0.2)"/><path class="b" d="M193.9,249.2v.6a13.9,13.9,0,0,0-.6-1.9l-3.9-9.5a7.5,7.5,0,0,1-.5-1.6,4.4,4.4,0,0,1,.7-2.7c2.3-4.3,7.3-6.7,12.2-7a5.4,5.4,0,0,1,2.2.1,7.5,7.5,0,0,1,2,1,15.6,15.6,0,0,1,4.5,4,16.8,16.8,0,0,1,2.7,8.5,52.6,52.6,0,0,1-.7,8.9c-6.3-1.1-12.9.7-19.2-.5" transform="translate(-0.3 -0.2)"/><path d="M192.5,249.2v.6l2.8-.3c-1-3.4-2.9-6.5-3.9-9.9-1.9-6.1,2.8-9.7,8.1-10.8,12.2-2.7,12.7,13,11.6,20.8l1.8-1.3c-6.4-.9-12.8.4-19.2-.5-1.7-.3-2.5,2.4-.7,2.6,6.4,1,12.8-.3,19.2.6a1.4,1.4,0,0,0,1.7-1.4c.8-6.2,1.5-13-2.5-18.4-2.8-3.8-6.6-6-11.3-5.3s-9.5,3.2-11.7,7.5,2.7,11.8,4.2,16.8c.5,1.6,2.5,1.1,2.7-.4v-.6c.2-1.8-2.6-1.8-2.8,0Z" transform="translate(-0.3 -0.2)"/><path class="b" d="M124.6,148.5l2.8.7" transform="translate(-0.3 -0.2)"/><path d="M124.2,149.9l2.9.6a1.4,1.4,0,0,0,1.7-1,1.4,1.4,0,0,0-1-1.6l-2.8-.7a1.4,1.4,0,0,0-.8,2.7Z" transform="translate(-0.3 -0.2)"/><path class="h" d="M121.7,166.4a2.2,2.2,0,0,1-.9,1" transform="translate(-0.3 -0.2)"/><path class="b" d="M127.6,184.7a5.7,5.7,0,0,1,3.1,1" transform="translate(-0.3 -0.2)"/><path d="M127.6,186.1a5.1,5.1,0,0,1,2.4.7c1.5,1,2.9-1.4,1.4-2.3a7.4,7.4,0,0,0-3.8-1.2,1.4,1.4,0,1,0,0,2.8Z" transform="translate(-0.3 -0.2)"/><path class="b" d="M288.1,280.8a115.7,115.7,0,0,1-31.3,81c6.1-19.1,4-38.8,1.2-58.9a37.4,37.4,0,0,0-.5-9.4c-.3-1.7-2.6-1.2-2.9.3a1.4,1.4,0,0,0-.7,1.1v.4h.1c.4,2.5.7,5,1.1,7.6-.7,12.7-7.2,25.1-13,36.1a144.2,144.2,0,0,1-24.5,34l-.3.3a101.4,101.4,0,0,1-19.7,15.2c20-27.6,18.8-64,15.8-96.7-1.8-18.8-4.9-38-4.4-56.9.2-9.7,1.8-19.5,5.9-28.3s10.3-16.2,16.7-23.2c12.2-13.3,25-25.8,42.9-30.4s34.5-1.9,50.5,3.5,32.5,17.7,38.4,35.3,2,35.6,1.1,53.2c-.4,9.4-.1,18.9,2.7,28s6.5,14.9,10.5,22,8.6,14.4,11.1,22.4c2.9,9.5,1.8,18.9-2.5,27.8S371,361.4,365,370.7c-2.1-10.8-6.9-20.7-12-30.5a199.8,199.8,0,0,1-8.8-18.7,91.3,91.3,0,0,1-2.7-8.9c-.9-4.3.1-8.3,1.3-12.4.1-.1.1-.3.2-.4.5-1.7-1.9-2.5-2.8-1.1l-.2.3c-3.4,5.2-8.1,9.3-11.9,14.2s-6.9,11.3-10.6,16.8c-5.1,7.5-10.1,15.8-10.9,24.6a219.3,219.3,0,0,1-15.5-73.8C291,278.9,288,278.9,288.1,280.8Z" transform="translate(-0.3 -0.2)"/><path class="b" d="M256.8,361.8a115.7,115.7,0,0,0,31.3-81c-.1-1.9,2.9-1.9,3,0a219.3,219.3,0,0,0,15.5,73.8c.8-8.8,5.8-17.1,10.9-24.6,3.7-5.5,6.6-11.6,10.6-16.8s8.5-9,11.9-14.2l.2-.3c.9-1.4,3.3-.6,2.8,1.1-.1.1-.1.3-.2.4-1.2,4.1-2.2,8.1-1.3,12.4a91.3,91.3,0,0,0,2.7,8.9,199.8,199.8,0,0,0,8.8,18.7c5.1,9.8,9.9,19.7,12,30.5,6-9.3,16-15.5,21.3-25.5s5.4-18.3,2.5-27.8c-2.5-8-6.9-15.2-11.1-22.4s-8.1-14.2-10.5-22-3.1-18.6-2.7-28c.9-17.6,4.7-36-1.1-53.2s-21.2-29.5-38.4-35.3-33.9-7.8-50.5-3.5-30.7,17.1-42.9,30.4c-6.4,7-12.6,14.6-16.7,23.2s-5.7,18.6-5.9,28.3c-.5,18.9,2.6,38.1,4.4,56.9,3,32.7,4.2,69.1-15.8,96.7a101.4,101.4,0,0,0,19.7-15.2l.3-.3a144.2,144.2,0,0,0,24.5-34c5.8-11,12.3-23.4,13-36.1-.4-2.6-.7-5.1-1.1-7.6h-.1v-.4a1.4,1.4,0,0,1,.7-1.1c.3-1.5,2.6-2,2.9-.3a37.4,37.4,0,0,1,.5,9.4C260.8,323,262.9,342.7,256.8,361.8ZM289.7,301a118.5,118.5,0,0,1-35.3,67.5l-.2.2c-1.4,1.3-3-.3-2.4-1.8a.4.4,0,0,0,.1-.3c7.2-17.1,6.6-35.4,4.5-53.4-2.2,8.5-6.2,16.6-10.1,24.4a150,150,0,0,1-26.6,37.6l-.4.3-.4.6h-.2a115.4,115.4,0,0,1-25.9,18.5l-.3.2a1.5,1.5,0,0,1-1.8-2.4c0-.1.1-.2.2-.3,31.8-36.3,20.4-91,16.2-134.5-1.7-17.9-2.6-36.8,5.6-53.3,4.2-8.6,10.4-16.2,16.8-23.1s12.8-13.9,20.1-19.5c26.4-20,66.6-17.5,93.7.2a56.3,56.3,0,0,1,25.5,39.7c2.6,18.8-2.6,37.6-1.2,56.4S379,289.7,387,305.3c6.9,13.7,8.7,27.3,1.9,41.5h-.1c-5.9,10.9-17.4,17.3-23,28.4a2.1,2.1,0,0,1-.4.6c-.7,1.5-2.6.6-2.8-.7-1.6-14.7-9.2-27.4-15.7-40.5a100.5,100.5,0,0,1-7.5-18.3,24.8,24.8,0,0,1-.8-10.7c-1.8,2-3.6,3.9-5.3,5.9-4.2,4.9-6.9,10.4-10.4,15.7-7.2,11-17,23.2-12.2,37v.4c.6,1.6-2,2.7-2.7,1.2l-.2-.4A224.1,224.1,0,0,1,289.7,301Z" transform="translate(-0.3 -0.2)"/><path class="i" d="M387,305.3c-8-15.6-18.2-29.1-19.4-47.2s3.8-37.6,1.2-56.4A56.3,56.3,0,0,0,343.3,162c-27.1-17.7-67.3-20.2-93.7-.2-7.3,5.6-13.8,12.6-20.1,19.5s-12.6,14.5-16.8,23.1c-8.2,16.5-7.3,35.4-5.6,53.3,4.2,43.5,15.6,98.2-16.2,134.5-.1.1-.2.2-.2.3a1.5,1.5,0,0,0,1.8,2.4l.3-.2a115.4,115.4,0,0,0,25.9-18.5h.2l.4-.6.4-.3a150,150,0,0,0,26.6-37.6c3.9-7.8,7.9-15.9,10.1-24.4,2.1,18,2.7,36.3-4.5,53.4a.4.4,0,0,1-.1.3c-.6,1.5,1,3.1,2.4,1.8l.2-.2A118.5,118.5,0,0,0,289.7,301a224.1,224.1,0,0,0,18.2,64.5l.2.4c.7,1.5,3.3.4,2.7-1.2v-.4c-4.8-13.8,5-26,12.2-37,3.5-5.3,6.2-10.8,10.4-15.7,1.7-2,3.5-3.9,5.3-5.9a24.8,24.8,0,0,0,.8,10.7,100.5,100.5,0,0,0,7.5,18.3c6.5,13.1,14.1,25.8,15.7,40.5.2,1.3,2.1,2.2,2.8.7a2.1,2.1,0,0,0,.4-.6c5.6-11.1,17.1-17.5,23-28.4h.1C395.7,332.6,393.9,319,387,305.3Z" transform="translate(-0.3 -0.2)"/><path class="i" d="M386.3,345.2c-5.3,10-15.3,16.2-21.3,25.5-2.1-10.8-6.9-20.7-12-30.5a199.8,199.8,0,0,1-8.8-18.7,91.3,91.3,0,0,1-2.7-8.9c-.9-4.3.1-8.3,1.3-12.4.1-.1.1-.3.2-.4.5-1.7-1.9-2.5-2.8-1.1l-.2.3c-3.4,5.2-8.1,9.3-11.9,14.2s-6.9,11.3-10.6,16.8c-5.1,7.5-10.1,15.8-10.9,24.6a219.3,219.3,0,0,1-15.5-73.8c-.1-1.9-3.1-1.9-3,0a115.7,115.7,0,0,1-31.3,81c6.1-19.1,4-38.8,1.2-58.9a37.4,37.4,0,0,0-.5-9.4c-.3-1.7-2.6-1.2-2.9.3a1.4,1.4,0,0,0-.7,1.1v.4h.1c.4,2.5.7,5,1.1,7.6-.7,12.7-7.2,25.1-13,36.1a144.2,144.2,0,0,1-24.5,34l-.3.3a101.4,101.4,0,0,1-19.7,15.2c20-27.6,18.8-64,15.8-96.7-1.8-18.8-4.9-38-4.4-56.9.2-9.7,1.8-19.5,5.9-28.3s10.3-16.2,16.7-23.2c12.2-13.3,25-25.8,42.9-30.4s34.5-1.9,50.5,3.5,32.5,17.7,38.4,35.3,2,35.6,1.1,53.2c-.4,9.4-.1,18.9,2.7,28s6.5,14.9,10.5,22,8.6,14.4,11.1,22.4C391.7,326.9,390.6,336.3,386.3,345.2Z" transform="translate(-0.3 -0.2)"/><path class="j" d="M386,302.3c6.9,13.7,8.7,27.3,1.9,41.5a.3.3,0,0,0-.1.2c-5.9,10.8-17.4,17.3-23,28.3a4.3,4.3,0,0,0-.4.7c-.7,1.4-2.6.5-2.8-.8-1.6-14.7-9.3-27.4-15.7-40.4a104.5,104.5,0,0,1-7.5-18.4,24.7,24.7,0,0,1-.8-10.7l-5.3,6c-4.3,4.8-6.9,10.3-10.4,15.6-7.2,11-17,23.2-12.2,37,0,.2.1.3.1.4.6,1.6-2,2.7-2.7,1.2l-.2-.4A224.1,224.1,0,0,1,288.7,298a118.8,118.8,0,0,1-35.3,67.5l-.3.2c-1.3,1.3-2.9-.3-2.3-1.8v-.3c7.2-17.1,6.6-35.3,4.5-53.4-2.2,8.5-6.2,16.7-10.1,24.4a150,150,0,0,1-26.6,37.6l-.4.3-.4.6h-.2a112.3,112.3,0,0,1-25.9,18.5l-.3.2a1.6,1.6,0,0,1-1.9-2.4l.3-.3c31.7-36.3,20.4-91,16.2-134.5-1.7-17.9-2.6-36.8,5.6-53.3,4.2-8.6,10.4-16.1,16.8-23.1s12.7-13.9,20.1-19.5c26.4-20,66.6-17.5,93.6.2,14,9.1,23.3,23.1,25.6,39.7,2.6,18.8-2.6,37.6-1.3,56.4S378,286.8,386,302.3Zm-.7,40c4.3-9,5.4-18.4,2.5-27.9-2.5-8-6.9-15.2-11.1-22.4s-8.1-14.2-10.5-22-3.2-18.6-2.7-28c.8-17.6,4.7-36-1.1-53.2s-21.2-29.5-38.4-35.3-33.9-7.8-50.5-3.5-30.7,17.1-42.9,30.4c-6.4,7-12.6,14.6-16.7,23.2s-5.7,18.6-6,28.3c-.4,18.9,2.7,38.1,4.5,56.9,3,32.8,4.1,69.1-15.8,96.7a101.4,101.4,0,0,0,19.7-15.2l.3-.3a143.7,143.7,0,0,0,24.5-33.9c5.8-11,12.3-23.5,12.9-36.2-.3-2.5-.7-5.1-1-7.6h-.1v-.4a1.4,1.4,0,0,1,.7-1.1c.3-1.5,2.6-2,2.9-.2a36.3,36.3,0,0,1,.5,9.3c2.8,20.1,4.9,39.8-1.2,58.9a115.7,115.7,0,0,0,31.3-81c-.1-1.9,2.9-1.9,3,0a222.7,222.7,0,0,0,15.4,73.9c.8-8.9,5.9-17.2,11-24.7,3.7-5.4,6.6-11.6,10.6-16.8s8.5-9,11.9-14.2l.2-.3c.9-1.4,3.3-.5,2.7,1.1a.6.6,0,0,1-.1.4c-1.2,4.1-2.2,8.1-1.3,12.4a91.3,91.3,0,0,0,2.7,8.9c2.4,6.5,5.7,12.6,8.8,18.7,5.1,9.8,9.9,19.7,12,30.5C370,358.4,380,352.2,385.3,342.3Z" transform="translate(-0.3 -0.2)"/><path class="j" d="M387.8,314.4c2.9,9.5,1.8,18.9-2.5,27.9S370,358.4,364,367.7c-2.1-10.8-6.9-20.7-12-30.5-3.1-6.1-6.4-12.2-8.8-18.7a91.3,91.3,0,0,1-2.7-8.9c-.9-4.3.1-8.3,1.3-12.4a.6.6,0,0,0,.1-.4c.6-1.6-1.8-2.5-2.7-1.1l-.2.3c-3.4,5.2-8.1,9.3-11.9,14.2s-6.9,11.4-10.6,16.8c-5.1,7.5-10.2,15.8-11,24.7a222.7,222.7,0,0,1-15.4-73.9c-.1-1.9-3.1-1.9-3,0a115.7,115.7,0,0,1-31.3,81c6.1-19.1,4-38.8,1.2-58.9a36.3,36.3,0,0,0-.5-9.3c-.3-1.8-2.6-1.3-2.9.2a1.4,1.4,0,0,0-.7,1.1v.4h.1c.3,2.5.7,5.1,1,7.6-.6,12.7-7.1,25.2-12.9,36.2A143.7,143.7,0,0,1,216.6,370l-.3.3a101.4,101.4,0,0,1-19.7,15.2c19.9-27.6,18.8-63.9,15.8-96.7-1.8-18.8-4.9-38-4.5-56.9.3-9.7,1.8-19.4,6-28.3s10.3-16.2,16.7-23.2c12.2-13.3,25-25.8,42.9-30.4s34.5-1.9,50.5,3.5,32.5,17.7,38.4,35.3,1.9,35.6,1.1,53.2c-.5,9.4-.1,19,2.7,28s6.4,15,10.5,22S385.3,306.4,387.8,314.4Z" transform="translate(-0.3 -0.2)"/><path class="j" d="M190.7,392.6a2,2,0,0,1-1.5-.8,2,2,0,0,1,.1-2.6.3.3,0,0,0,.1-.2h.1c27.7-31.6,22.5-77.2,17.9-117.3-.7-5.9-1.3-11.4-1.8-16.9-1.7-17-2.7-36.6,5.7-53.6,4.6-9.2,11.4-17.2,16.8-23.2s12.7-13.7,20.2-19.5c12.5-9.5,29.1-14.5,46.9-14.2a91.3,91.3,0,0,1,47.3,14.4,56.8,56.8,0,0,1,25.8,40.1c1.4,10.3.5,20.7-.4,30.7-.7,8.4-1.5,17.1-.9,25.7,1,13.8,7.2,24.9,13.8,36.6,1.8,3.4,3.8,6.9,5.6,10.4,7.7,15,8.3,28.7,1.9,41.9,0,.1,0,.1-.1.2-2.9,5.4-7.2,9.7-11.4,13.9s-8.7,8.8-11.6,14.4l-.3.7a1.9,1.9,0,0,1-1.9,1,2.6,2.6,0,0,1-1.9-2c-1.3-12.2-7-23.3-12.5-34l-3.2-6.2a109.6,109.6,0,0,1-7.5-18.5,27.1,27.1,0,0,1-1-9.3,20.9,20.9,0,0,1-2,2.2c-.7.9-1.5,1.7-2.3,2.6a68.1,68.1,0,0,0-7.1,10.4c-1,1.7-2,3.5-3.2,5.2s-1.5,2.2-2.2,3.4c-6.6,9.8-14.1,21-9.9,33.2,0,.1,0,.2.1.2h0a2,2,0,0,1-3.7,1.6v-.4a224.2,224.2,0,0,1-17.9-61.4,118.8,118.8,0,0,1-34.8,64.5l-.2.2h-.1a1.9,1.9,0,0,1-2.4.3,2.4,2.4,0,0,1-.8-2.7h.1a.3.3,0,0,1,.1-.2c6.9-16.5,6.5-34,4.7-50.6-2.3,7.8-5.9,15.1-9.5,22a149.3,149.3,0,0,1-26.6,37.7.5.5,0,0,1-.4.3,1,1,0,0,1-.5.6l-.2.2a114.1,114.1,0,0,1-26,18.5l-.2.2h-.1A1.9,1.9,0,0,1,190.7,392.6Zm103-247.3c-16.6,0-32.6,4.6-44.8,13.9-7.5,5.7-14.1,13-20,19.4s-12.2,13.8-16.7,23c-8.3,16.7-7.3,36.1-5.6,53,.5,5.5,1.1,11,1.8,16.8,4.6,40.4,9.8,86.2-18.1,118.2H190a1.1,1.1,0,0,0,0,1.4.9.9,0,0,0,1.2.2h.3a119,119,0,0,0,25.8-18.4l.2-.2a1,1,0,0,0,.4-.5h.2l.3-.2c10-10.1,18.9-22.7,26.5-37.4,3.8-7.6,7.8-15.8,10-24.3l.7-2.6.3,2.7c2,17.4,2.9,36-4.5,53.6a.3.3,0,0,0-.1.2h0a1.1,1.1,0,0,0,.3,1.4.9.9,0,0,0,1.2-.1h.1c0-.1.1-.1.1-.2a118.1,118.1,0,0,0,35.2-67.2l.5-3.5.5,3.5a223.5,223.5,0,0,0,18.2,64.4v.4c.3.6,1.1.3,1.2.3a.8.8,0,0,0,.6-1.1h0c0-.1-.1-.3-.1-.4-4.3-12.6,3.3-23.9,10-34l2.3-3.3,3.2-5.2a66.1,66.1,0,0,1,7.2-10.6l2.3-2.5,3-3.4,1.1-1.3-.2,1.7a25.2,25.2,0,0,0,.8,10.5,106.1,106.1,0,0,0,7.4,18.2l3.2,6.3c5.5,10.7,11.2,21.9,12.6,34.3a1.5,1.5,0,0,0,1.1,1.1c.3.1.6-.1.8-.5a2.5,2.5,0,0,1,.4-.7c2.8-5.7,7.4-10.2,11.7-14.6s8.4-8.4,11.2-13.7l.2-.2c6.2-12.8,5.5-26.2-2-40.9h0c-1.8-3.6-3.7-7.1-5.6-10.4-6.6-11.8-12.9-23-13.8-37.1-.7-8.6.1-17.3.8-25.7.9-10.1,1.8-20.4.4-30.6A55.9,55.9,0,0,0,342,159.4,89.1,89.1,0,0,0,293.7,145.3Z" transform="translate(-0.3 -0.2)"/><path class="j" d="M194.8,387.2l1.4-2c20.1-27.9,18.6-64.3,15.7-96.4-.5-5.1-1.1-10.4-1.7-15.5-1.5-13.6-3.1-27.6-2.8-41.4.3-11.2,2.3-20.5,6.1-28.5s11.3-17.4,16.8-23.3c11.8-12.9,24.8-25.9,43.1-30.6,15-3.8,32.6-2.6,50.8,3.5s33.3,19.5,38.7,35.7c4.4,13.2,3.2,27.2,2,40.8-.3,4.1-.7,8.4-.9,12.5-.5,11.3.3,20.2,2.7,27.9s6.1,14.3,10.5,21.8l1.2,2.1c3.7,6.5,7.6,13.2,9.9,20.4a38.4,38.4,0,0,1-2.5,28.3h-.1c-2.9,5.4-7.2,9.8-11.5,14.1a71.1,71.1,0,0,0-9.8,11.4l-.7,1-.2-1.2c-2.1-10.7-6.8-20.5-11.9-30.4l-.5-.9a169.1,169.1,0,0,1-8.3-17.8,73.4,73.4,0,0,1-2.8-9c-.9-4.5.1-8.5,1.4-12.7h0v-.2a1,1,0,0,0-.5-1.1,1.1,1.1,0,0,0-1.4.3l-.2.4a88.6,88.6,0,0,1-6.7,8.2,74.5,74.5,0,0,0-5.2,6c-2.3,3-4.2,6.4-6.2,9.6s-2.8,4.9-4.4,7.2c-4.8,7.1-10,15.5-10.9,24.4v2.1l-.8-2a220.4,220.4,0,0,1-15.5-74,1,1,0,0,0-1.1-.9c-.2,0-1,.1-.9.9a116.7,116.7,0,0,1-31.4,81.3l-1.5,1.6.7-2.1c5.9-18.6,4-37.6,1.1-58.7a40.5,40.5,0,0,0-.5-9.3c-.1-.5-.4-.7-.7-.7h0a1.3,1.3,0,0,0-1.2,1v.2h-.2a1.3,1.3,0,0,0-.5.7h0v.2l1,7.6c-.7,13.3-7.5,26.2-13,36.5a144.8,144.8,0,0,1-24.6,34.1c-.1,0-.1.1-.1.2h-.1A110,110,0,0,1,196.9,386Zm96.7-238.9a69.6,69.6,0,0,0-17.9,2.2c-18,4.6-30.9,17.5-42.6,30.2-5.4,6-12.2,13.9-16.6,23.2-3.7,7.8-5.7,17-6,28-.3,13.7,1.3,27.7,2.8,41.3.6,5.1,1.2,10.4,1.7,15.6,2.9,31.4,4.4,67.1-14.5,95A102,102,0,0,0,216,370c0-.1.1-.2.2-.3a143.7,143.7,0,0,0,24.4-33.9c5.5-10.2,12.3-23,13-35.9l-1-7.2h-.1v-.9a2,2,0,0,1,.8-1.3,2.1,2.1,0,0,1,2.1-1.6h0a1.7,1.7,0,0,1,1.7,1.6,41.4,41.4,0,0,1,.5,9.4c2.8,20.3,4.7,38.7-.6,56.9a115.6,115.6,0,0,0,29.7-79,1.8,1.8,0,0,1,1.9-1.9,2.1,2.1,0,0,1,2.1,1.9,217.4,217.4,0,0,0,14.7,71.8c1.3-8.3,6.2-16.1,10.8-22.8,1.5-2.4,3-4.8,4.4-7.2a88.7,88.7,0,0,1,6.2-9.7,62.7,62.7,0,0,1,5.3-6.1,64.8,64.8,0,0,0,6.6-8.1l.2-.3a2,2,0,0,1,2.6-.7,1.8,1.8,0,0,1,1,2.3h0v.2c-1.2,4-2.2,8-1.3,12.2a69.3,69.3,0,0,0,2.7,8.8A158.7,158.7,0,0,0,352,336l.5,1c4.9,9.6,9.6,19.1,11.7,29.4,2.7-3.9,6.1-7.2,9.3-10.5s8.5-8.5,11.4-13.9a36.7,36.7,0,0,0,2.4-27.5c-2.2-7.1-6.1-13.8-9.8-20.2l-1.2-2.1c-4.4-7.5-8.2-14.4-10.6-22.1s-3.2-16.7-2.7-28.1c.2-4.2.6-8.5.9-12.6,1.2-13.4,2.4-27.4-2-40.4-5.3-15.9-19.1-28.6-38-35A102.8,102.8,0,0,0,291.5,148.3Z" transform="translate(-0.3 -0.2)"/><path d="M409.7,442.8h0c-1.7-23.9-13-46.1-24-67.7-2.2-4.3-4.5-8.8-6.6-13.1a2.2,2.2,0,0,1,.1-2.1c.1,0,.1-.1.2-.2a1.9,1.9,0,0,1,1.7-.7,1.6,1.6,0,0,1,1.5,1c2.1,4.3,4.4,8.8,6.5,13,11,21.6,22.3,43.8,24.4,67.9a.6.6,0,0,1,.1.4v3.2h-.1a1.9,1.9,0,0,1-1.8,1.4h-.1a2.1,2.1,0,0,1-2-1.4h0v-.2c0-.1-.1-.2-.1-.3h0Z" transform="translate(-0.3 -0.2)"/><path d="M213.3,399.7c.9-9,2.9-20.3,10.5-28.8l.7-.8a2,2,0,0,1,2.9,2.8c-8.2,8.6-9.7,20.8-10.5,31.6a313.3,313.3,0,0,0-.2,40v.3l-.3.2h-.5c-.1,0-.1-.2-.2-.5h0v-.2C214.6,439.6,212.2,411,213.3,399.7Z" transform="translate(-0.3 -0.2)"/><path class="k" d="M385.7,375.1c11,21.6,22.3,43.8,24,67.7-6.6.1-13.2.1-19.7.4l-58.7,1.1c-8.8-.7-17.7-.2-26.6.3l-8.1.4-80.4,1.5v-1.4h.2l.3-.2v-.3a313.3,313.3,0,0,1,.2-40c.8-10.8,2.3-23,10.5-31.6a2,2,0,0,0-2.9-2.8l-.7.8h0a154.2,154.2,0,0,0,21.9-32.7c3.6-6.9,7.2-14.2,9.5-22,1.8,16.6,2.2,34.1-4.7,50.6a.3.3,0,0,0-.1.2h-.1a2.4,2.4,0,0,0,.8,2.7,1.9,1.9,0,0,0,2.4-.3h.1l.2-.2a118.8,118.8,0,0,0,34.8-64.5,224.2,224.2,0,0,0,17.9,61.4v.4a1.9,1.9,0,0,0,2.5.8,1.8,1.8,0,0,0,1.2-2.3v-.2c-.1,0-.1-.1-.1-.2-4.2-12.2,3.3-23.4,9.9-33.2l2.2-3.4c1.2-1.7,2.2-3.5,3.2-5.2a68.1,68.1,0,0,1,7.1-10.4c.8-.9,1.6-1.7,2.3-2.6a20.9,20.9,0,0,0,2-2.2,27.1,27.1,0,0,0,1,9.3,109.6,109.6,0,0,0,7.5,18.5l3.2,6.2c5.5,10.7,11.2,21.8,12.5,34a2.6,2.6,0,0,0,1.9,2,1.9,1.9,0,0,0,1.9-1l.3-.7c2.9-5.6,7.3-10.1,11.6-14.4.7-.7,1.5-1.4,2.2-2.2l.4.4c-.1.1-.1.2-.2.2a2.2,2.2,0,0,0-.1,2.1C381.2,366.3,383.5,370.8,385.7,375.1Z" transform="translate(-0.3 -0.2)"/><path class="l" d="M409.7,442.8V444h0c0,.1.1.2.1.3v.2h0a2.1,2.1,0,0,0,2,1.4h.1a1.9,1.9,0,0,0,1.8-1.4h.1v-3.2a.6.6,0,0,0-.1-.4c-2.1-24.1-13.4-46.3-24.4-67.9-2.1-4.2-4.4-8.7-6.5-13a1.6,1.6,0,0,0-1.5-1,1.9,1.9,0,0,0-1.7.7c-.1.1-.1.2-.2.2a2.2,2.2,0,0,0-.1,2.1c2.1,4.3,4.4,8.8,6.6,13.1,11,21.6,22.3,43.8,24,67.7" transform="translate(-0.3 -0.2)"/><path class="l" d="M223.8,370.9c-7.6,8.5-9.6,19.8-10.5,28.8-1.1,11.3,1.3,39.9,2.4,44.6v.2h0c.1.3.1.5.2.5h.5l.3-.2v-.3a313.3,313.3,0,0,1,.2-40c.8-10.8,2.3-23,10.5-31.6a2,2,0,0,0-2.9-2.8Z" transform="translate(-0.3 -0.2)"/><path class="l" d="M379,359.3a55.3,55.3,0,0,0,9.2-11.7l.2-.2c6.3-13.2,5.7-26.9-2-41.9-1.8-3.6-3.8-7-5.6-10.4-6.6-11.7-12.8-22.8-13.7-36.6-.7-8.6.1-17.3.8-25.7.9-10,1.8-20.4.4-30.7a56.9,56.9,0,0,0-25.8-40.2,92.2,92.2,0,0,0-47.3-14.3c-17.8-.3-34.4,4.7-46.9,14.2-7.5,5.8-14.3,13.1-20.2,19.5s-12.2,14-16.8,23.2c-8.4,16.9-7.4,36.6-5.7,53.6.5,5.5,1.1,11,1.8,16.9,4.6,40.1,9.8,85.7-17.9,117.3v.2h-.1a2,2,0,0,0-.1,2.6,2,2,0,0,0,1.5.8,1.9,1.9,0,0,0,1-.3h.1c.1-.1.2-.1.2-.2A114.1,114.1,0,0,0,218,377l.2-.2a1.2,1.2,0,0,0,.5-.5c.1-.1.3-.2.4-.4,1.6-1.6,3.2-3.3,4.7-5a154.2,154.2,0,0,0,21.9-32.7c3.6-6.9,7.2-14.2,9.5-22,1.8,16.6,2.2,34.1-4.7,50.6a.3.3,0,0,0-.1.2h-.1a2.4,2.4,0,0,0,.8,2.7,1.9,1.9,0,0,0,2.4-.3h.1l.2-.2a118.8,118.8,0,0,0,34.8-64.5,224.2,224.2,0,0,0,17.9,61.4v.4a1.9,1.9,0,0,0,2.5.8,1.8,1.8,0,0,0,1.2-2.3v-.2c-.1,0-.1-.1-.1-.2-4.2-12.2,3.3-23.4,9.9-33.2l2.2-3.4c1.2-1.7,2.2-3.5,3.2-5.2a68.1,68.1,0,0,1,7.1-10.4c.8-.9,1.6-1.7,2.3-2.6a20.9,20.9,0,0,0,2-2.2,27.1,27.1,0,0,0,1,9.3,109.6,109.6,0,0,0,7.5,18.5l3.2,6.2c5.5,10.7,11.2,21.8,12.5,34a2.6,2.6,0,0,0,1.9,2,1.9,1.9,0,0,0,1.9-1l.3-.7c2.9-5.6,7.3-10.1,11.6-14.4C377.5,360.8,378.3,360.1,379,359.3Z" transform="translate(-0.3 -0.2)"/><path class="l" d="M331.3,444.3c-8.8-.7-17.7-.2-26.6.3l-8.1.4Z" transform="translate(-0.3 -0.2)"/><path class="l" d="M296.6,445l-80.4,1.5h-1.4C242.1,446.7,269.3,446.2,296.6,445Z" transform="translate(-0.3 -0.2)"/><path class="l" d="M409.7,442.8c-6.6.1-13.2.1-19.7.4l19.7-.4" transform="translate(-0.3 -0.2)"/><path class="l" d="M409.7,442.8Z" transform="translate(-0.3 -0.2)"/><path class="l" d="M331.3,444.3l3.1.3c5.3.6,10.5,1.7,15.9,1.9s12.4-.9,18.5-1.7,14.1-1.3,21.2-1.6Z" transform="translate(-0.3 -0.2)"/><path class="m" d="M170.2,201c4.9-15.4-1.7-39.6,13.3-50.4,3.6-2.6,8.3-4.1,12.7-3s7.5,5.2,9.6,9.3c4.4,8.5,8.1,17.5,12.1,26.2.8,1.7,3.4.2,2.6-1.5L212.4,164c-2.1-4.5-3.9-9.4-6.9-13.3-4.9-6.4-12.7-7.9-19.9-4.7-20.5,9-12.9,37.3-18.3,54.2-.6,1.8,2.3,2.6,2.9.8Z" transform="translate(-0.3 -0.2)"/><path class="m" d="M179.3,199a120.1,120.1,0,0,0-18.4,33.7c-.7,1.8,2.2,2.6,2.9.8a114.5,114.5,0,0,1,17.6-32.4c1.2-1.5-.9-3.7-2.1-2.1Z" transform="translate(-0.3 -0.2)"/></svg>